<svg width="175" height="383" viewBox="0 0 175 383" fill="none" xmlns="http://www.w3.org/2000/svg">
<path opacity="0.2" d="M80.29 382.94C121.855 382.94 155.55 377.263 155.55 370.26C155.55 363.257 121.855 357.58 80.29 357.58C38.725 357.58 5.02997 363.257 5.02997 370.26C5.02997 377.263 38.725 382.94 80.29 382.94Z" fill="black" fill-opacity="0.7"/>
<path d="M142.3 174.34V184.42L110.13 185.86L105.91 185.66L8.77998 181L8.35998 176.65C8.03408 173.216 8.4572 169.752 9.60013 166.498C10.7431 163.244 12.5786 160.276 14.98 157.8L24.6 147.89C31.7682 140.533 41.5039 136.233 51.77 135.89L59.37 135.64L108.15 134.01H109.37C114.035 133.859 118.588 135.453 122.14 138.48L128.01 143.48C124.324 148.442 122.333 154.459 122.33 160.64C122.33 161.02 122.33 161.4 122.33 161.78L122.55 165C122.633 167.053 123.453 169.007 124.86 170.503C126.267 172 128.166 172.94 130.21 173.15L142.3 174.34Z" fill="#6D6D6D"/>
<path d="M110.13 187.36H110.06L105.84 187.16L8.70998 182.46C8.34988 182.44 8.00875 182.292 7.7483 182.043C7.48784 181.793 7.32527 181.459 7.28998 181.1L6.86998 176.75C6.51945 173.108 6.96384 169.434 8.17243 165.981C9.38101 162.528 11.325 159.378 13.87 156.75L23.55 146.8C27.8579 142.355 33.1111 138.938 38.92 136.8C43.0306 135.28 47.3595 134.432 51.74 134.29L109.39 132.37C114.43 132.211 119.349 133.933 123.19 137.2L129.06 142.2C129.341 142.444 129.521 142.785 129.564 143.155C129.606 143.525 129.509 143.898 129.29 144.2C125.803 148.909 123.914 154.61 123.9 160.47C123.9 160.82 123.9 161.18 123.9 161.53L124.03 164.83C124.106 166.521 124.786 168.128 125.945 169.361C127.105 170.593 128.667 171.37 130.35 171.55L142.46 172.79C142.828 172.829 143.168 173.003 143.415 173.278C143.663 173.553 143.8 173.91 143.8 174.28V184.36C143.8 184.746 143.652 185.117 143.386 185.397C143.119 185.676 142.756 185.842 142.37 185.86L110.2 187.3L110.13 187.36ZM10.13 179.52L110.13 184.36L140.8 183V175.71L130.04 174.61C127.643 174.352 125.417 173.244 123.766 171.487C122.115 169.729 121.148 167.439 121.04 165.03L120.91 161.75C120.91 161.36 120.91 160.96 120.91 160.55C120.929 154.527 122.727 148.644 126.08 143.64L121.25 139.52C117.981 136.736 113.792 135.271 109.5 135.41L51.85 137.33C41.969 137.673 32.6032 141.822 25.71 148.91L16.09 158.82C13.8384 161.14 12.1178 163.922 11.0473 166.973C9.97677 170.024 9.5819 173.271 9.88998 176.49L10.13 179.52Z" fill="#494949"/>
<path d="M145.4 188.17L144.95 194L143.95 207.39L131.74 363.84C131.638 365.123 131.147 366.343 130.332 367.339C129.517 368.335 128.417 369.057 127.18 369.41L104.66 375.82L104.23 375.94C103.58 376.123 102.905 376.204 102.23 376.18L28.36 373.42C26.8206 373.353 25.3593 372.724 24.2534 371.651C23.1474 370.578 22.4736 369.137 22.36 367.6L8.77997 188.17H145.4Z" fill="#6D6D6D"/>
<path d="M102.47 377.68H102.23L28.35 374.92C26.4346 374.849 24.6126 374.074 23.2326 372.744C21.8525 371.414 21.0114 369.621 20.87 367.71L7.28999 188.28C7.27525 188.075 7.30221 187.869 7.36924 187.675C7.43627 187.481 7.54198 187.302 7.67999 187.15C7.8208 186.999 7.99106 186.879 8.18025 186.796C8.36945 186.713 8.57356 186.671 8.77999 186.67H145.4C145.607 186.669 145.811 186.711 146.001 186.793C146.19 186.876 146.36 186.998 146.5 187.15C146.642 187.302 146.751 187.482 146.82 187.678C146.889 187.874 146.916 188.083 146.9 188.29L133.24 364C133.109 365.586 132.498 367.095 131.489 368.326C130.48 369.556 129.12 370.451 127.59 370.89L104.59 377.42C103.898 377.601 103.185 377.688 102.47 377.68ZM10.4 189.68L23.86 367.49C23.9477 368.665 24.4654 369.766 25.314 370.583C26.1626 371.401 27.2826 371.877 28.46 371.92L102.33 374.68C102.836 374.693 103.341 374.632 103.83 374.5L104.26 374.37L126.77 367.97C127.712 367.696 128.548 367.144 129.17 366.385C129.791 365.626 130.168 364.697 130.25 363.72L143.78 189.67L10.4 189.68Z" fill="#494949"/>
<path d="M151.49 184.45L150.99 190.79C150.936 191.456 150.646 192.081 150.17 192.551C149.695 193.021 149.067 193.304 148.4 193.35L105.91 196.25L102.24 196.5L3.64997 195.19C3.47175 195.188 3.30083 195.119 3.17114 194.997C3.04146 194.874 2.96251 194.708 2.94997 194.53L2.04997 180.82C2.04171 180.724 2.05335 180.627 2.08418 180.536C2.11501 180.445 2.16435 180.361 2.22913 180.289C2.2939 180.218 2.37271 180.161 2.46061 180.121C2.54851 180.082 2.64362 180.061 2.73997 180.06L103.74 178.34L122.74 179.2L147.74 180.33C148.262 180.339 148.776 180.455 149.251 180.67C149.726 180.886 150.152 181.196 150.503 181.581C150.855 181.967 151.123 182.421 151.293 182.914C151.462 183.407 151.53 183.93 151.49 184.45Z" fill="#6D6D6D"/>
<path d="M102.24 198L3.62997 196.69C3.08539 196.683 2.56272 196.474 2.16224 196.105C1.76176 195.736 1.51168 195.232 1.45997 194.69L0.549974 180.92C0.526559 180.619 0.565519 180.317 0.664412 180.032C0.763305 179.747 0.919998 179.486 1.12467 179.264C1.32934 179.042 1.57758 178.865 1.85381 178.744C2.13005 178.623 2.42834 178.56 2.72997 178.56L103.73 176.84H103.87L147.95 178.84C148.663 178.874 149.362 179.051 150.006 179.36C150.65 179.669 151.225 180.104 151.698 180.639C152.17 181.174 152.531 181.798 152.758 182.475C152.985 183.152 153.074 183.868 153.02 184.58L152.52 190.92C152.44 191.949 151.991 192.914 151.256 193.638C150.521 194.361 149.55 194.796 148.52 194.86L102.34 198H102.24ZM4.39997 193.7L102.21 195L148.3 191.85C148.609 191.832 148.901 191.702 149.121 191.485C149.342 191.268 149.476 190.978 149.5 190.67L150 184.33C150.022 184.019 149.981 183.708 149.881 183.413C149.78 183.118 149.622 182.846 149.415 182.613C149.209 182.381 148.957 182.191 148.677 182.057C148.396 181.922 148.091 181.845 147.78 181.83L103.71 179.83L3.59997 181.55L4.39997 193.7Z" fill="#494949"/>
<path d="M102.75 368.83C102.352 368.83 101.971 368.672 101.689 368.391C101.408 368.109 101.25 367.728 101.25 367.33V204.33C101.25 203.932 101.408 203.551 101.689 203.269C101.971 202.988 102.352 202.83 102.75 202.83C103.148 202.83 103.529 202.988 103.811 203.269C104.092 203.551 104.25 203.932 104.25 204.33V367.33C104.25 367.728 104.092 368.109 103.811 368.391C103.529 368.672 103.148 368.83 102.75 368.83Z" fill="#494949"/>
<path d="M105.91 182.75V190.48" stroke="#494949" stroke-width="3" stroke-linecap="round" stroke-linejoin="round"/>
<path d="M104.83 176.84C104.717 176.854 104.603 176.854 104.49 176.84C104.298 176.796 104.116 176.715 103.955 176.601C103.795 176.486 103.658 176.341 103.554 176.174C103.45 176.007 103.38 175.82 103.348 175.625C103.317 175.431 103.324 175.232 103.37 175.04L110.73 143.49C110.814 143.129 110.779 142.75 110.629 142.411C110.479 142.072 110.223 141.791 109.9 141.61C109.565 141.415 109.318 141.098 109.21 140.726C109.102 140.354 109.141 139.954 109.32 139.61C109.512 139.271 109.828 139.021 110.202 138.913C110.576 138.804 110.977 138.846 111.32 139.03C112.211 139.529 112.917 140.304 113.332 141.237C113.746 142.171 113.847 143.214 113.62 144.21L106.25 175.76C106.161 176.069 105.975 176.341 105.719 176.536C105.464 176.731 105.151 176.837 104.83 176.84Z" fill="#494949"/>
<path d="M74.9 272.25L73.34 269.62L68.34 261.25C67.94 260.57 67.98 260.37 68.64 259.98C72.5466 257.62 76.4633 255.27 80.39 252.93C80.95 252.59 81.22 252.66 81.56 253.22C83.9533 257.22 86.3466 261.22 88.74 265.22C89.2859 266.081 89.5757 267.08 89.5757 268.1C89.5757 269.12 89.2859 270.119 88.74 270.98C86.02 275.647 83.2766 280.313 80.51 284.98C80.0223 285.858 79.3004 286.584 78.4247 287.077C77.5491 287.569 76.5539 287.809 75.55 287.77C73.38 287.77 71.22 287.77 69.06 287.77H68.37C68.37 287.98 68.37 288.17 68.37 288.35C68.37 289.63 68.37 290.92 68.37 292.2C68.37 292.57 68.37 292.93 67.92 293.05C67.47 293.17 67.28 292.88 67.08 292.57C64.52 288.57 61.95 284.603 59.37 280.67C59.2467 280.513 59.1797 280.319 59.1797 280.12C59.1797 279.92 59.2467 279.727 59.37 279.57C61.97 275.57 64.56 271.593 67.14 267.64L67.2 267.56C67.38 267.25 67.67 267.03 67.98 267.22C68.0923 267.3 68.1867 267.403 68.2572 267.522C68.3278 267.641 68.373 267.773 68.39 267.91C68.39 269.15 68.39 270.4 68.39 271.65V272.25H74.9ZM67 290.25H67.11V287.59C67.11 286.76 67.27 286.59 68.11 286.59C70.52 286.59 72.93 286.59 75.34 286.59C76.2043 286.623 77.0601 286.408 77.8061 285.97C78.5521 285.533 79.1573 284.891 79.55 284.12C81.55 280.65 83.63 277.18 85.66 273.71C85.74 273.58 85.8 273.45 85.86 273.34C85.11 273.4 84.39 273.51 83.66 273.52C81.81 273.52 79.97 273.52 78.12 273.52H68C67.3 273.52 67.12 273.34 67.12 272.65C67.12 272.16 67.12 271.65 67.12 271.17V269.94L66.9 270.18C64.8066 273.387 62.7133 276.597 60.62 279.81C60.43 280.09 60.53 280.27 60.68 280.51C62.32 283.03 63.9533 285.55 65.58 288.07C66.06 288.78 66.55 289.49 67 290.21V290.25ZM69.55 260.85C69.5735 260.902 69.5936 260.955 69.61 261.01C71.8033 264.67 74 268.337 76.2 272.01C76.2666 272.09 76.3488 272.157 76.4416 272.205C76.5343 272.253 76.6358 272.282 76.74 272.29C79.15 272.29 81.56 272.34 83.97 272.29C84.7411 272.307 85.5024 272.114 86.1719 271.731C86.8413 271.347 87.3935 270.789 87.7689 270.115C88.1444 269.441 88.329 268.678 88.3027 267.907C88.2765 267.136 88.0404 266.387 87.62 265.74C85.4133 262.053 83.2 258.36 80.98 254.66C80.88 254.51 80.77 254.36 80.66 254.18L69.55 260.85Z" fill="#494949"/>
<path d="M33.88 259.13L30.25 256.89C30.09 256.79 29.87 256.72 29.77 256.57C29.6166 256.374 29.5417 256.128 29.56 255.88C29.56 255.71 29.89 255.58 30.1 255.48C30.2355 255.454 30.3745 255.454 30.51 255.48C35.1 255.48 39.69 255.48 44.28 255.48C44.5225 255.459 44.7655 255.515 44.974 255.641C45.1825 255.767 45.3456 255.955 45.44 256.18C47.44 260.07 49.55 263.94 51.62 267.81C51.79 268.14 51.95 268.47 51.62 268.81C51.29 269.15 50.95 268.96 50.62 268.81C49.45 268.12 48.27 267.45 47.04 266.74L43.66 272.37H56.55C57.37 272.37 57.55 272.52 57.55 273.37V286.93C57.55 287.69 57.38 287.86 56.63 287.86H42.79C41.7482 287.895 40.7181 287.631 39.8214 287.1C38.9248 286.568 38.199 285.791 37.73 284.86C35.0633 280.087 32.4567 275.303 29.91 270.51C29.3998 269.616 29.157 268.594 29.2101 267.566C29.2633 266.538 29.6103 265.547 30.21 264.71C31.41 262.82 32.63 261 33.88 259.13ZM37.16 281.18C37.3725 280.601 37.623 280.036 37.91 279.49C40.63 274.93 43.3633 270.38 46.11 265.84C46.57 265.07 46.75 265.03 47.54 265.49L49.54 266.67C49.46 266.48 49.44 266.41 49.41 266.36C47.75 263.23 46.08 260.09 44.41 256.97C44.3458 256.887 44.264 256.82 44.1706 256.774C44.0771 256.727 43.9744 256.702 43.87 256.7C40.16 256.7 36.45 256.7 32.74 256.7C32.6236 256.717 32.5096 256.747 32.4 256.79L34.67 258.2C35.47 258.7 35.51 258.88 34.99 259.65C33.76 261.5 32.54 263.34 31.3 265.18C30.7766 265.884 30.4751 266.728 30.4341 267.605C30.3931 268.481 30.6145 269.35 31.07 270.1C32.15 272.1 33.21 274.02 34.28 275.98C35.25 277.69 36.19 279.42 37.16 281.18ZM56.22 273.56H56.01H43.24C43.136 273.578 43.037 273.618 42.9492 273.676C42.8614 273.735 42.7867 273.811 42.73 273.9C41.5 275.9 40.3 277.9 39.08 279.95C38.6487 280.607 38.407 281.37 38.3815 282.155C38.3559 282.94 38.5476 283.717 38.9353 284.401C39.323 285.084 39.8917 285.647 40.5789 286.028C41.266 286.409 42.045 286.593 42.83 286.56H56.22V273.56Z" fill="#494949"/>
<path d="M75.6 243.4L79.1 241.4C79.2348 241.286 79.3913 241.201 79.56 241.15C79.81 241.15 80.19 241.07 80.31 241.21C80.3876 241.325 80.4371 241.456 80.4544 241.593C80.4718 241.73 80.4566 241.87 80.41 242C79.81 243.27 79.16 244.52 78.52 245.77C77.14 248.48 75.75 251.18 74.41 253.91C74.3059 254.175 74.1171 254.398 73.8729 254.545C73.6287 254.691 73.3428 254.753 73.06 254.72C68.42 254.72 63.78 254.72 59.13 254.72C59.01 254.72 58.86 254.72 58.77 254.72C58.68 254.72 58.17 254.45 58.12 254.25C58.1172 254.112 58.1475 253.976 58.2084 253.852C58.2693 253.729 58.359 253.622 58.47 253.54C59.47 252.88 60.47 252.28 61.47 251.66L62.18 251.21C61.07 249.32 59.98 247.47 58.86 245.54C58.17 246.79 57.54 247.96 56.86 249.13L52.63 256.85C52.28 257.5 52.04 257.57 51.41 257.23L39.33 250.63C38.79 250.33 38.71 250.07 39.01 249.52C41.25 245.407 43.49 241.303 45.73 237.21C46.198 236.314 46.9105 235.568 47.7848 235.06C48.6591 234.552 49.6595 234.303 50.67 234.34C56.1166 234.34 61.5666 234.34 67.02 234.34C68.0046 234.324 68.9747 234.578 69.8259 235.073C70.677 235.568 71.3769 236.286 71.85 237.15C72.98 239.04 74.07 240.94 75.18 242.84L75.6 243.4ZM60.95 253.4C61.18 253.4 61.26 253.45 61.34 253.45H72.83C72.9586 253.458 73.0864 253.424 73.1945 253.354C73.3025 253.284 73.3851 253.181 73.43 253.06L78.12 243.8C78.21 243.64 78.27 243.47 78.4 243.18L75.99 244.53C75.26 244.94 75.07 244.88 74.65 244.16C73.41 242.04 72.1666 239.92 70.92 237.8C70.536 237.08 69.9574 236.483 69.2501 236.076C68.5427 235.669 67.7353 235.47 66.92 235.5H54.69H54.23C54.5913 235.918 54.9253 236.359 55.23 236.82C57.99 241.487 60.7366 246.17 63.47 250.87C63.79 251.42 63.71 251.65 63.16 251.99C62.49 252.52 61.78 252.94 60.95 253.45V253.4ZM51.75 256L51.88 255.86C53.9333 252.12 55.9766 248.373 58.01 244.62C58.0444 244.513 58.0569 244.401 58.0466 244.289C58.0362 244.177 58.0034 244.069 57.95 243.97C56.74 241.87 55.51 239.78 54.28 237.69C53.8487 236.935 53.1861 236.339 52.39 235.99C51.3811 235.53 50.2329 235.482 49.1892 235.856C48.1454 236.229 47.2884 236.995 46.8 237.99C45.1533 240.99 43.51 243.99 41.87 246.99L40.38 249.73L51.75 256Z" fill="#494949"/>
<path d="M67 290.21C66.53 289.49 66.06 288.78 65.6 288.06C63.9733 285.54 62.34 283.02 60.7 280.5C60.55 280.26 60.45 280.08 60.64 279.8C62.74 276.587 64.8333 273.377 66.92 270.17L67.14 269.93V271.16C67.14 271.65 67.14 272.16 67.14 272.64C67.14 273.33 67.32 273.51 68.02 273.51H78.14C79.99 273.51 81.83 273.51 83.68 273.51C84.41 273.51 85.13 273.39 85.88 273.33C85.82 273.44 85.76 273.57 85.68 273.7C83.68 277.17 81.6 280.64 79.57 284.11C79.1695 284.878 78.5572 285.515 77.8058 285.946C77.0543 286.376 76.1951 286.583 75.33 286.54C72.92 286.54 70.51 286.54 68.1 286.54C67.27 286.54 67.1 286.7 67.1 287.54V290.2L67 290.21Z" fill="white"/>
<path d="M69.55 260.85L80.66 254.19C80.77 254.37 80.88 254.52 80.98 254.67C83.1933 258.37 85.4067 262.063 87.62 265.75C88.0404 266.397 88.2765 267.146 88.3027 267.917C88.329 268.688 88.1444 269.451 87.769 270.125C87.3935 270.799 86.8413 271.357 86.1719 271.741C85.5024 272.124 84.7412 272.317 83.97 272.3C81.56 272.3 79.15 272.3 76.74 272.3C76.6358 272.292 76.5343 272.263 76.4416 272.215C76.3488 272.167 76.2667 272.1 76.2 272.02C73.9933 268.36 71.7967 264.693 69.61 261.02C69.594 260.962 69.574 260.905 69.55 260.85Z" fill="white"/>
<path d="M37.16 281.18C36.16 279.42 35.25 277.69 34.31 275.97C33.24 273.97 32.18 272.04 31.1 270.09C30.6445 269.34 30.4231 268.471 30.4641 267.595C30.5051 266.718 30.8065 265.874 31.33 265.17C32.57 263.33 33.79 261.49 35.02 259.64C35.54 258.87 35.5 258.69 34.7 258.19L32.43 256.78C32.5395 256.737 32.6536 256.707 32.77 256.69C36.48 256.69 40.19 256.69 43.9 256.69C44.0044 256.692 44.1071 256.717 44.2006 256.764C44.294 256.81 44.3758 256.877 44.44 256.96C46.13 260.08 47.8 263.22 49.44 266.35C49.44 266.4 49.49 266.47 49.57 266.66L47.57 265.48C46.78 265.02 46.57 265.06 46.14 265.83C43.4 270.37 40.6666 274.92 37.94 279.48C37.6424 280.029 37.3818 280.597 37.16 281.18Z" fill="white"/>
<path d="M56.22 273.56V286.56H42.83C42.045 286.593 41.266 286.409 40.5789 286.028C39.8917 285.647 39.323 285.084 38.9353 284.401C38.5476 283.717 38.3559 282.94 38.3815 282.155C38.407 281.37 38.6487 280.607 39.08 279.95C40.3 277.95 41.5 275.95 42.73 273.9C42.7867 273.811 42.8614 273.735 42.9492 273.676C43.037 273.618 43.136 273.578 43.24 273.56H56.01H56.22Z" fill="white"/>
<path d="M60.95 253.45C61.78 252.94 62.49 252.52 63.19 252.08C63.74 251.74 63.82 251.51 63.5 250.96C60.76 246.293 58.0133 241.61 55.26 236.91C54.9554 236.449 54.6213 236.008 54.26 235.59H54.72H66.93C67.7453 235.56 68.5527 235.759 69.2601 236.166C69.9674 236.573 70.546 237.17 70.93 237.89C72.1833 240.01 73.4266 242.13 74.66 244.25C75.08 244.97 75.27 245.03 76 244.62L78.41 243.27C78.28 243.56 78.22 243.73 78.13 243.89L73.44 253.15C73.3951 253.271 73.3125 253.374 73.2045 253.444C73.0964 253.514 72.9686 253.548 72.84 253.54H61.34C61.26 253.5 61.18 253.48 60.95 253.45Z" fill="white"/>
<path d="M51.75 256L40.38 249.79L41.87 247C43.51 243.987 45.1533 240.987 46.8 238C47.2884 237.005 48.1454 236.239 49.1892 235.866C50.2329 235.492 51.3811 235.541 52.39 236C53.1861 236.349 53.8487 236.945 54.28 237.7C55.51 239.79 56.74 241.88 57.95 243.98C58.0034 244.079 58.0362 244.187 58.0466 244.299C58.0569 244.411 58.0444 244.523 58.01 244.63C56.01 248.39 53.9666 252.137 51.88 255.87L51.75 256Z" fill="white"/>
<path d="M87.66 6.05L103.76 1.5L103.55 3.48L101.22 7.33L87.66 6.05Z" fill="#B6B6B6"/>
<path d="M101.22 8.82999H101.08L87.55 7.54999C87.1997 7.51948 86.8712 7.36687 86.6219 7.11881C86.3727 6.87074 86.2185 6.54299 86.1864 6.19282C86.1542 5.84264 86.2461 5.4923 86.446 5.20298C86.6459 4.91367 86.9411 4.70378 87.28 4.60999L103.35 0.059986C103.586 -0.00931103 103.835 -0.0191014 104.076 0.0314887C104.317 0.0820788 104.541 0.191476 104.73 0.349916C104.918 0.508357 105.064 0.710913 105.154 0.939507C105.245 1.1681 105.278 1.41562 105.25 1.65999L105.04 3.65999C105.02 3.88042 104.948 4.09298 104.83 4.27999L102.55 8.10999C102.413 8.33777 102.217 8.52467 101.983 8.65127C101.749 8.77788 101.486 8.83959 101.22 8.82999ZM95.79 5.30999L100.42 5.74999L101.7 3.63999L95.79 5.30999Z" fill="#494949"/>
<path d="M107.647 8.15766L87.6574 6.05664L86.4271 17.7622L106.417 19.8632L107.647 8.15766Z" fill="#B6B6B6"/>
<path d="M106.42 21.3599H106.26L86.26 19.2599C85.869 19.217 85.5103 19.0233 85.26 18.7199C85.0088 18.4075 84.8903 18.0089 84.93 17.6099L86.17 5.89993C86.2153 5.50525 86.4134 5.14401 86.7218 4.89356C87.0302 4.64311 87.4244 4.52335 87.82 4.55993L107.82 6.65993C108.215 6.70273 108.577 6.9005 108.826 7.20985C109.076 7.51919 109.192 7.91483 109.15 8.30993L107.91 19.9999C107.875 20.3694 107.702 20.7123 107.426 20.9605C107.15 21.2087 106.791 21.3441 106.42 21.3399V21.3599ZM88.08 16.4299L105.08 18.2099L105.99 9.48993L88.99 7.69993L88.08 16.4299Z" fill="#494949"/>
<path d="M85.7831 17.6956L107.056 19.9315C107.68 19.9971 108.253 20.3067 108.65 20.7929C109.048 21.2791 109.237 21.9025 109.176 22.5274L103.121 80.14C103.08 80.5398 102.961 80.9276 102.771 81.2814C102.58 81.6352 102.322 81.948 102.01 82.2019C101.699 82.4558 101.34 82.6459 100.955 82.7612C100.57 82.8766 100.166 82.9151 99.7666 82.8744L79.8762 80.7838C79.0691 80.699 78.3287 80.297 77.818 79.6663C77.3073 79.0356 77.068 78.2278 77.1528 77.4207L83.2092 19.7981C83.2752 19.1704 83.5878 18.5945 84.0784 18.1973C84.5689 17.8 85.1972 17.614 85.8249 17.6799L85.7831 17.6956Z" fill="white"/>
<path d="M100.1 84.3799H99.61L79.69 82.2599C79.0949 82.1988 78.5177 82.0208 77.9914 81.7363C77.4651 81.4518 77.0001 81.0663 76.623 80.6019C76.2459 80.1375 75.9641 79.6033 75.7937 79.0298C75.6233 78.4564 75.5677 77.8549 75.63 77.2599L81.63 19.6599C81.6847 19.1484 81.8401 18.6527 82.0872 18.2015C82.3343 17.7503 82.6683 17.3524 83.0698 17.0308C83.4714 16.7092 83.9326 16.4702 84.4269 16.3276C84.9212 16.185 85.4388 16.1416 85.95 16.1999L107.22 18.4399C107.727 18.4911 108.219 18.6421 108.667 18.8843C109.116 19.1265 109.512 19.4551 109.832 19.8512C110.153 20.2472 110.392 20.7029 110.536 21.1918C110.68 21.6808 110.725 22.1933 110.67 22.6999L104.62 80.2999C104.502 81.4175 103.975 82.4519 103.141 83.2049C102.307 83.9579 101.224 84.3763 100.1 84.3799ZM85.55 19.1799C85.349 19.1811 85.1547 19.2518 85 19.3799C84.9094 19.4514 84.8343 19.5406 84.7793 19.642C84.7243 19.7435 84.6905 19.855 84.68 19.9699L78.63 77.5699C78.6063 77.7724 78.6233 77.9775 78.6799 78.1732C78.7366 78.369 78.8318 78.5515 78.96 78.7099C79.2095 79.0175 79.5673 79.2179 79.96 79.2699L99.89 81.3699C100.095 81.3965 100.303 81.382 100.503 81.3272C100.702 81.2725 100.889 81.1787 101.052 81.0512C101.215 80.9237 101.35 80.7651 101.451 80.5846C101.552 80.4042 101.616 80.2054 101.64 79.9999L107.64 22.3999C107.653 22.2844 107.643 22.1675 107.61 22.0559C107.577 21.9444 107.523 21.8404 107.45 21.7499C107.301 21.5728 107.09 21.4585 106.86 21.4299L85.63 19.1899L85.55 19.1799Z" fill="#494949"/>
<path d="M50.61 92.15L45.39 118.85L18.28 116L18.34 112.24L18.59 96.4L18.71 88.8L50.61 92.15Z" fill="#B6B6B6"/>
<path d="M45.39 120.35H45.23L18.12 117.5C17.7496 117.463 17.4067 117.288 17.1587 117.01C16.9107 116.733 16.7756 116.372 16.78 116L17.21 88.8C17.2138 88.5912 17.2611 88.3856 17.3489 88.1961C17.4367 88.0067 17.5631 87.8377 17.72 87.7C17.8768 87.564 18.0596 87.4611 18.2572 87.3975C18.4548 87.3339 18.6633 87.3109 18.87 87.33L50.77 90.69C50.9774 90.7104 51.1781 90.7744 51.3591 90.8778C51.54 90.9812 51.6971 91.1217 51.82 91.29C51.9445 91.4571 52.0328 91.6484 52.0793 91.8515C52.1258 92.0547 52.1294 92.2653 52.09 92.47L46.86 119.17C46.7868 119.505 46.601 119.805 46.3335 120.02C46.066 120.234 45.733 120.351 45.39 120.35ZM19.8 114.65L44.18 117.21L48.83 93.47L20.18 90.47L19.8 114.65Z" fill="#494949"/>
<path d="M52.0432 92.2999L17.2846 88.6466L16.7641 93.5993L51.5226 97.2526L52.0432 92.2999Z" fill="white"/>
<path d="M51.55 98.75H51.39L16.61 95.09C16.4153 95.0685 16.2268 95.0089 16.0552 94.9145C15.8836 94.8201 15.7323 94.6929 15.61 94.54C15.4854 94.3873 15.3922 94.2115 15.3355 94.0228C15.2789 93.8341 15.26 93.636 15.28 93.44L15.8 88.44C15.8477 88.0471 16.0468 87.6884 16.355 87.44C16.6631 87.1916 17.0559 87.0732 17.45 87.11L52.21 90.76C52.6024 90.8054 52.9614 91.0029 53.21 91.31C53.3347 91.4623 53.4274 91.6382 53.4824 91.8273C53.5374 92.0163 53.5536 92.2145 53.53 92.41L53.01 97.41C52.9712 97.7726 52.8015 98.1088 52.5328 98.3554C52.264 98.602 51.9147 98.7423 51.55 98.75ZM18.41 92.26L50.19 95.6L50.39 93.6L18.62 90.3L18.41 92.26Z" fill="#494949"/>
<path d="M41.21 102.39L39.56 111.18L18.34 108.95L18.59 100.01L41.21 102.39Z" fill="white"/>
<path d="M39.55 112.68H39.4L18.17 110.45C17.7952 110.41 17.4493 110.23 17.2011 109.947C16.9528 109.663 16.8203 109.297 16.83 108.92L17.08 99.98C17.0839 99.7728 17.1313 99.5686 17.2192 99.3809C17.307 99.1931 17.4334 99.0259 17.59 98.89C17.7458 98.7561 17.9271 98.6551 18.1231 98.5933C18.319 98.5314 18.5255 98.5099 18.73 98.53L41.36 100.91C41.5575 100.937 41.7477 101.003 41.9194 101.104C42.0911 101.206 42.2408 101.34 42.36 101.5C42.483 101.668 42.5712 101.859 42.6193 102.062C42.6674 102.264 42.6744 102.475 42.64 102.68L40.99 111.47C40.9222 111.805 40.7429 112.107 40.4814 112.327C40.2198 112.546 39.8915 112.671 39.55 112.68ZM19.88 107.6L38.34 109.54L39.44 103.71L20.04 101.71L19.88 107.6Z" fill="#494949"/>
<path d="M131.871 102.392L160.271 95.3903C160.883 95.2392 161.531 95.3377 162.071 95.6643C162.612 95.9908 163 96.5185 163.151 97.1314L172.87 136.551C173.064 137.339 172.938 138.172 172.518 138.866C172.098 139.561 171.419 140.06 170.631 140.255L143.552 146.931C142.764 147.125 141.932 146.998 141.237 146.579C140.542 146.159 140.043 145.48 139.849 144.692L130.13 105.273C130.055 104.969 130.041 104.654 130.088 104.345C130.135 104.036 130.242 103.739 130.404 103.472C130.566 103.204 130.778 102.971 131.03 102.786C131.282 102.601 131.568 102.467 131.871 102.392Z" fill="white"/>
<path d="M142.8 148.54C141.975 148.536 141.166 148.308 140.46 147.88C139.945 147.573 139.497 147.166 139.141 146.684C138.786 146.201 138.53 145.653 138.39 145.07L128.67 105.65C128.441 104.652 128.616 103.604 129.155 102.733C129.694 101.863 130.555 101.24 131.55 101L159.95 94C160.444 93.8754 160.957 93.851 161.461 93.9283C161.964 94.0056 162.446 94.183 162.88 94.4499C163.317 94.712 163.697 95.0583 164 95.4685C164.302 95.8788 164.519 96.3449 164.64 96.8399L174.36 136.26C174.644 137.433 174.454 138.671 173.831 139.705C173.207 140.739 172.2 141.484 171.03 141.78L143.94 148.45C143.565 148.528 143.182 148.558 142.8 148.54ZM160.8 96.8399C160.73 96.8302 160.66 96.8302 160.59 96.8399L132.19 103.84C131.964 103.897 131.77 104.04 131.65 104.24C131.529 104.441 131.49 104.681 131.54 104.91L141.26 144.33C141.359 144.73 141.613 145.074 141.965 145.287C142.317 145.501 142.74 145.567 143.14 145.47L170.23 138.8C170.436 138.755 170.631 138.669 170.803 138.547C170.975 138.425 171.12 138.27 171.23 138.09C171.439 137.734 171.503 137.312 171.41 136.91L161.69 97.4899C161.633 97.2641 161.489 97.0699 161.29 96.9499C161.154 96.8703 160.997 96.832 160.84 96.8399H160.8Z" fill="#494949"/>
<path d="M164.67 128.58C164.336 128.579 164.012 128.466 163.749 128.259C163.486 128.053 163.3 127.764 163.22 127.44L156.92 101.89C156.864 101.696 156.848 101.493 156.872 101.292C156.896 101.092 156.961 100.899 157.062 100.724C157.163 100.549 157.298 100.396 157.459 100.275C157.621 100.154 157.805 100.066 158.001 100.018C158.197 99.9691 158.4 99.9606 158.6 99.9927C158.799 100.025 158.99 100.097 159.161 100.205C159.331 100.312 159.479 100.453 159.594 100.619C159.709 100.785 159.789 100.972 159.83 101.17L166.13 126.72C166.179 126.941 166.178 127.17 166.128 127.39C166.078 127.611 165.979 127.817 165.84 127.995C165.7 128.173 165.523 128.318 165.32 128.419C165.118 128.52 164.896 128.575 164.67 128.58Z" fill="#494949"/>
<path d="M167.42 138.13C167.085 138.129 166.759 138.017 166.495 137.81C166.23 137.604 166.042 137.315 165.96 136.99L164.63 131.58C164.552 131.2 164.623 130.805 164.83 130.477C165.037 130.149 165.362 129.913 165.739 129.82C166.115 129.727 166.513 129.783 166.849 129.977C167.185 130.171 167.432 130.487 167.54 130.86L168.87 136.27C168.918 136.461 168.928 136.66 168.899 136.855C168.87 137.049 168.803 137.237 168.702 137.406C168.601 137.575 168.467 137.722 168.309 137.84C168.151 137.957 167.971 138.042 167.78 138.09C167.662 138.118 167.541 138.132 167.42 138.13Z" fill="#494949"/>
<path d="M158.026 87.9485L130.384 94.7637L132.244 102.308L159.886 95.4926L158.026 87.9485Z" fill="#494949"/>
<path d="M132.25 103.82C131.913 103.82 131.585 103.707 131.32 103.498C131.056 103.29 130.869 102.998 130.79 102.67L128.93 95.13C128.882 94.9389 128.873 94.7402 128.903 94.5455C128.932 94.3508 129 94.1638 129.102 93.9955C129.205 93.8272 129.339 93.6808 129.499 93.5649C129.658 93.4489 129.838 93.3657 130.03 93.32L157.67 86.51C157.862 86.4601 158.061 86.4494 158.257 86.4786C158.453 86.5078 158.641 86.5763 158.81 86.68C159.149 86.8856 159.393 87.216 159.49 87.6L161.34 95.14C161.394 95.3337 161.408 95.5364 161.383 95.7358C161.357 95.9353 161.291 96.1275 161.189 96.301C161.087 96.4745 160.952 96.6258 160.791 96.7459C160.629 96.866 160.445 96.9524 160.25 97L132.61 103.81C132.491 103.827 132.37 103.83 132.25 103.82ZM132.25 95.87L133.39 100.5L158.12 94.4L156.98 89.78L132.25 95.87Z" fill="#494949"/>
</svg>
