<svg width="8" height="16" viewBox="0 0 8 16" fill="none" xmlns="http://www.w3.org/2000/svg">
<g clip-path="url(#clip0_1779_4588)">
<path d="M2.19339 15.5791C2.13995 15.5803 2.08661 15.5744 2.03536 15.5615L1.94293 15.5214L1.14085 15.1681C1.04268 15.118 0.962879 15.0461 0.910263 14.9604C0.857646 14.8746 0.834258 14.7782 0.842683 14.682V3.80659C0.846108 3.65748 0.88356 3.51032 0.953006 3.37308L1.03053 3.24277L1.04842 3.22022C1.06801 3.1866 1.08991 3.15397 1.11402 3.12249C1.13191 3.09994 1.14383 3.0824 1.15874 3.06736C1.18396 3.03565 1.21186 3.0055 1.24223 2.97715L1.28994 2.92703C1.32148 2.89758 1.35535 2.86996 1.39132 2.84434L1.43902 2.80174C1.49203 2.76608 1.54782 2.73343 1.606 2.70401L6.07855 0.518911C6.18783 0.460653 6.3131 0.426998 6.44232 0.421183C6.54164 0.420027 6.63915 0.443566 6.7226 0.488841L7.36069 0.769497C7.46365 0.792204 7.55653 0.839594 7.628 0.90589C7.69947 0.972186 7.74645 1.05452 7.76322 1.14287C7.78112 1.20098 7.79013 1.26076 7.79005 1.32078V12.1511C7.77811 12.3719 7.70406 12.5871 7.57396 12.7792C7.44387 12.9713 7.26144 13.1348 7.04164 13.2562L2.56909 15.4813C2.45616 15.5409 2.32663 15.5746 2.19339 15.5791Z" fill="#3F3B39"/>
<path d="M1.96394 4.06226H1.41829V14.4866H1.96394V4.06226Z" fill="#B5B5B5"/>
<path d="M7.48313 1.5639L7.44138 0.962495L6.63036 0.604159C6.55325 0.570533 6.46637 0.55598 6.37982 0.56219C6.29326 0.568399 6.21057 0.595117 6.14136 0.63924L1.67775 2.82434C1.482 2.9323 1.31926 3.07749 1.2027 3.24814C1.08615 3.4188 1.01906 3.61013 1.00687 3.80664V14.682C0.997795 14.7519 1.01128 14.8225 1.04591 14.8864C1.08054 14.9503 1.13504 15.0053 1.20366 15.0454L2.0117 15.4037L7.48313 11.9857V1.5639ZM6.80628 11.1112L1.58234 13.7223V4.68118L6.80628 2.10767V11.1112Z" fill="#B5B5B5"/>
<path d="M7.45925 1.23313L7.44136 0.962495L6.63033 0.604159C6.55322 0.570533 6.46635 0.55598 6.37979 0.56219C6.29323 0.568399 6.21055 0.595117 6.14133 0.63924L1.67772 2.82434C1.45716 2.9429 1.27972 3.11023 1.16487 3.30797L2.24425 3.7891L7.45925 1.23313Z" fill="white"/>
<path d="M6.95538 0.997543L2.49177 3.17763C2.29602 3.28559 2.13327 3.43078 2.01672 3.60144C1.90016 3.77209 1.83307 3.96342 1.82088 4.15993V15.0353C1.82088 15.3962 2.11906 15.5365 2.48879 15.3561L6.96134 13.1334C7.1564 13.0236 7.31851 12.8773 7.43492 12.706C7.55133 12.5347 7.61887 12.343 7.63222 12.1461V1.3208C7.62626 0.959955 7.32511 0.814615 6.95538 0.997543ZM7.34002 11.3768L2.11011 13.9854V4.93925L7.343 2.37325L7.34002 11.3768Z" fill="#F3F3F3"/>
<path d="M1.9163 15.1455V4.33775C1.92467 4.13668 1.9879 3.93992 2.10112 3.76265C2.21435 3.58538 2.37452 3.43235 2.56929 3.31536L7.04185 1.10019C7.28038 0.982416 7.50699 0.987427 7.63819 1.1879C7.63076 1.12647 7.60348 1.06792 7.55929 1.0186C7.5151 0.969277 7.45569 0.931057 7.3875 0.908082C7.31931 0.885108 7.24494 0.878255 7.17245 0.888266C7.09996 0.898277 7.03211 0.92477 6.97625 0.964875L2.48581 3.17754C2.28818 3.28881 2.12429 3.43742 2.00728 3.61148C1.89026 3.78553 1.82336 3.9802 1.81194 4.17988V15.0553C1.80599 15.1218 1.8204 15.1885 1.8538 15.249C1.88721 15.3096 1.93849 15.3619 2.00277 15.4011C1.96779 15.366 1.94201 15.3251 1.92711 15.281C1.91222 15.237 1.90853 15.1908 1.9163 15.1455Z" fill="white"/>
<path d="M1.16187 6.9991C1.16637 7.03286 1.18 7.06531 1.2017 7.09397C1.2234 7.12264 1.25261 7.14675 1.2871 7.16448L1.53458 7.28727C1.60316 7.32235 1.65683 7.3023 1.65683 7.24467V6.39017C1.65309 6.35619 1.64013 6.32339 1.61893 6.29428C1.59774 6.26517 1.56888 6.24054 1.53458 6.22228L1.2871 6.09949C1.21852 6.06692 1.16187 6.08446 1.16187 6.14209V6.9991Z" fill="#F3F3F3"/>
<path d="M1.50774 6.25239L1.28113 6.13962C1.22746 6.11206 1.18572 6.12208 1.17081 6.15716C1.19095 6.15785 1.2105 6.16304 1.22746 6.1722L1.45407 6.28496C1.48561 6.30085 1.51228 6.32272 1.53196 6.34883C1.55163 6.37494 1.56376 6.40456 1.56737 6.43531V7.21463C1.56907 7.22208 1.56907 7.22973 1.56737 7.23718C1.57559 7.23759 1.58381 7.23648 1.59147 7.23395C1.59912 7.23141 1.60603 7.2275 1.6117 7.22249C1.61738 7.21748 1.62169 7.21149 1.62433 7.20494C1.62697 7.19839 1.62789 7.19144 1.62701 7.18456V6.40274C1.62275 6.37152 1.60972 6.3416 1.58898 6.31546C1.56824 6.28931 1.54039 6.26769 1.50774 6.25239Z" fill="white"/>
<path d="M5.41675 2.8093V2.51611L4.03026 3.19269V3.48838L5.41675 2.8093Z" fill="#B5B5B5"/>
<path d="M7.34299 2.37329L2.10414 4.93928L2.1101 13.9854L7.34001 11.3768L7.34299 2.37329Z" fill="#E67E22"/>
<path d="M7.06565 10.8606L6.2099 10.6777L6.50807 9.78811V9.76054V9.72796L6.0966 8.91607L6.71381 9.00628L7.01198 9.4423L7.03584 9.47989L7.06565 9.44981L7.34593 9.17417L7.04776 9.38466L6.83308 8.91356V8.8885H6.78835L6.09064 8.69054L6.68698 8.15178L6.74661 8.09916L6.71083 8.03651L6.46037 7.58296L6.82712 7.26722L6.88675 7.2146L6.83904 7.15696L5.34819 5.34272L5.98031 4.91422H6.54087H6.58262V4.87914L6.68698 3.84423L6.98515 3.7916V3.77907L7.34295 2.37329L6.96129 3.73898L6.66312 3.78409H6.64225V3.80163L6.50807 4.80397H5.96839H5.9505H5.93559L5.22594 5.26003L5.17525 5.2901L5.21103 5.33521L6.63032 7.18703L6.25761 7.49275L6.20394 7.53785L6.23376 7.59799L6.46633 8.04904L6.14729 8.29963L5.91173 6.90387V6.86628L5.88192 6.84624L5.19314 6.34507L5.12158 5.73614V5.6735H5.01722L3.7828 5.68352L4.71905 4.51078L4.46561 4.18001L3.82454 4.11736L4.42088 4.1775L4.64749 4.50076L3.63669 5.70858L3.57706 5.77874H3.68142L4.94864 5.8013L4.99337 6.38265V6.41272L5.01722 6.43528L5.67618 6.959L5.74476 7.49024H5.6732L5.31539 7.4752L5.36012 7.18703V7.12188L5.28856 7.10434L4.29565 6.85375L3.95872 6.41774L3.93188 6.38265L3.89014 6.4027L3.49357 6.60567L2.86741 6.13457L2.10112 6.09949L2.85549 6.16464L3.48165 6.66581L3.49954 6.68085L3.52637 6.6608L3.91399 6.48539L4.21216 6.91891V6.93645H4.23602L5.16333 7.2171L5.10369 7.54036L5.0858 7.63057H5.19911L5.56287 7.65813L5.68512 8.48757L4.82341 8.40488H4.78763L4.7608 8.4174L4.3851 8.5878L4.17638 8.47003L4.03922 8.39986C4.01232 8.38667 3.98443 8.37496 3.95574 8.36478H3.9289C3.91218 8.36188 3.89493 8.36188 3.87821 8.36478L3.83051 8.38733C3.74311 8.44066 3.66131 8.50018 3.58601 8.56525L3.36834 8.75319L3.15664 8.94363L2.93003 9.13658L2.48278 9.49743L2.06236 9.53501L2.49172 9.51998L2.96581 9.17918L3.20137 9.00879L3.42798 8.82836L3.65757 8.65546C3.73091 8.59987 3.80971 8.54957 3.89312 8.50511H3.90803L3.95574 8.52766L4.07799 8.60033L4.32249 8.7582L4.36423 8.78576L4.42088 8.76572L4.82043 8.61035L5.58673 8.73064L4.58488 9.32953L4.53419 9.3596V9.40722L4.49542 10.2166L3.7828 10.6952H3.75596V10.7228L3.67247 11.1964L2.7064 11.6976H2.68851V11.7151L2.11603 13.9704L2.78393 11.7552L3.78578 11.2666L3.8156 11.254V11.224L3.91101 10.7654L4.65942 10.3068L4.6952 10.2843V10.2442L4.76974 9.44981L5.61356 8.99876L5.53902 9.55255L5.31539 9.89836L5.28558 9.94096L5.30943 9.98356L5.5092 10.3444L4.49244 11.447L4.47157 11.4695L4.48648 11.4946L4.76676 11.9632L4.04817 13.0407L4.84428 11.9807V11.9657V11.9507L4.5968 11.4846L5.71196 10.3995L5.74774 10.3619L5.72389 10.3118L5.55095 9.94347L5.77756 9.62773V9.6127V9.59014L5.87894 9.08897L6.27252 9.77307L6.0638 10.6952L6.04889 10.7504H6.11151L7.02391 10.8731L7.33997 11.3593L7.06565 10.8606Z" fill="#FFBC8A"/>
</g>
<defs>
<clipPath id="clip0_1779_4588">
<rect width="6.94737" height="15.1579" fill="white" transform="translate(0.842773 0.421143)"/>
</clipPath>
</defs>
</svg>
