<svg width="221" height="245" viewBox="0 0 221 245" fill="none" xmlns="http://www.w3.org/2000/svg">
<g style="mix-blend-mode:multiply" opacity="0.3">
<path d="M53.0079 229.921C73.5856 229.921 90.2672 228.582 90.2672 226.931C90.2672 225.279 73.5856 223.94 53.0079 223.94C32.4301 223.94 15.7485 225.279 15.7485 226.931C15.7485 228.582 32.4301 229.921 53.0079 229.921Z" fill="#326C91"/>
</g>
<g style="mix-blend-mode:multiply" opacity="0.3">
<path d="M53.0076 228.618C69.0205 228.618 82.0016 227.862 82.0016 226.931C82.0016 225.999 69.0205 225.243 53.0076 225.243C36.9947 225.243 24.0137 225.999 24.0137 226.931C24.0137 227.862 36.9947 228.618 53.0076 228.618Z" fill="#326C91"/>
</g>
<path d="M57.3977 160.698C57.3977 160.698 33.0405 177.846 26.147 180C25.9919 180.052 25.8339 180.096 25.6737 180.13C24.1133 180.449 22.4899 180.136 21.1604 179.259C20.4764 179.252 19.7971 179.146 19.1438 178.943C17.086 178.299 16.0571 176.721 15.2889 174.89C14.0062 171.865 3.62819 145.923 1.44009 138.947C0.342617 135.463 -0.0963736 133.282 -0.000344472 131.793C0.0250782 131.176 0.212856 130.576 0.544039 130.055C0.875222 129.533 1.33809 129.108 1.88594 128.823C4.10147 127.451 13.8759 121.724 26.4351 115.448C38.9944 109.171 43.5832 111.106 43.5832 111.106L46.7521 122.478L57.3977 160.698Z" fill="#01918B"/>
<g style="mix-blend-mode:multiply" opacity="0.3">
<path d="M34.2958 116.36L33.6647 116.737L31.312 118.109L30.5026 118.582L27.7178 120.18L26.7163 120.757L24.4871 122.026L18.9311 125.174L18.6773 125.318L15.5152 127.115L14.8704 127.479L14.5138 127.691L13.4026 128.322C9.81519 130.38 7.18811 131.917 6.72168 132.349C4.97944 133.961 5.40471 136.67 6.68053 141.032C7.95634 145.395 19.9394 176.927 20.8174 178.34C21.0013 178.62 21.1186 178.94 21.1604 179.273C20.4762 179.269 19.7964 179.162 19.1437 178.957C16.4 173.394 7.57223 150.704 5.37041 144.236C2.83936 136.821 1.61842 132.952 2.31806 132.026C2.57185 131.683 6.29641 129.488 11.1527 126.752L11.7083 126.443L12.9224 125.757L13.5123 125.428L16.256 123.905L16.7087 123.658C17.7239 123.089 18.7665 122.533 19.7679 121.971L21.7434 120.901C23.1152 120.16 24.4185 119.453 25.6669 118.788L26.4008 118.397L27.9167 117.601L28.6026 117.245C29.4463 116.806 30.2214 116.401 30.9279 116.044L31.5452 115.736C32.4301 115.297 33.164 114.947 33.7127 114.707L34.138 114.522L34.3095 114.453C38.7543 112.663 39.7969 112.608 39.7969 112.608C40.0507 112.807 37.7665 114.295 34.2958 116.36Z" fill="#326C91"/>
</g>
<path d="M31.5522 115.317C31.5522 115.454 31.5522 115.592 31.5522 115.722C31.5377 116.525 31.4597 117.325 31.319 118.116L30.5096 118.589L27.7247 120.187L26.7233 120.763L24.494 122.032L18.9381 125.181L18.6843 125.325L15.5222 127.122L14.8774 127.485L14.5207 127.698L13.4095 128.329C12.6038 127.886 11.8513 127.352 11.1666 126.738C9.58817 125.288 8.33362 123.521 7.48495 121.553C6.63628 119.585 6.2126 117.46 6.24163 115.317C6.24163 107.347 11.9074 100.879 18.9038 100.879H21.6818V101.235C24.3914 101.965 26.7748 103.589 28.4449 105.845C30.4895 108.577 31.581 111.905 31.5522 115.317Z" fill="#F1951E"/>
<g style="mix-blend-mode:multiply" opacity="0.3">
<path d="M24.4872 120.887V122.032L18.9313 125.181L18.6775 125.325L15.5154 127.122L14.8706 127.486L14.5139 127.698H13.533C12.8881 127.331 12.2774 126.906 11.7085 126.429C9.97451 124.933 8.6403 123.028 7.82617 120.887H24.4872Z" fill="#F1951E"/>
</g>
<g style="mix-blend-mode:multiply" opacity="0.3">
<path d="M21.8259 115.921H6.81104C6.86712 117.32 7.11405 118.704 7.54497 120.036H21.8259V115.921Z" fill="#F1951E"/>
</g>
<g style="mix-blend-mode:multiply" opacity="0.3">
<path d="M21.1468 112.8H7.00312C6.88408 113.57 6.81762 114.346 6.8042 115.125H21.1468V112.8Z" fill="#F1951E"/>
</g>
<g style="mix-blend-mode:multiply" opacity="0.3">
<path d="M21.1465 110.687H7.50351C7.38005 111.071 7.27716 111.455 7.18799 111.853H21.1465V110.687Z" fill="#F1951E"/>
</g>
<path d="M34.3373 115.317C34.3373 115.667 34.3373 116.003 34.2962 116.36L33.6651 116.737L31.3124 118.109L30.503 118.582L27.7182 120.18L26.7167 120.757L24.4875 122.026L18.9315 125.174L18.6777 125.318L15.5156 127.115L14.8708 127.479C14.1652 126.967 13.5147 126.383 12.9297 125.736C11.6533 124.321 10.6633 122.672 10.0145 120.88C9.9116 120.599 9.81557 120.324 9.74012 120.043C9.32401 118.698 9.09324 117.301 9.0542 115.893C9.0542 115.701 9.0542 115.509 9.0542 115.31V115.118C9.0575 114.339 9.12403 113.561 9.25312 112.793C9.29243 112.475 9.34968 112.159 9.4246 111.846C9.50094 111.452 9.60174 111.062 9.7264 110.68C11.4069 104.98 16.1329 100.872 21.7026 100.872C28.4384 100.872 33.9395 106.867 34.3304 114.432C34.2962 114.727 34.3373 115.022 34.3373 115.317Z" fill="#FFC77C"/>
<g style="mix-blend-mode:multiply" opacity="0.3">
<path d="M33.7266 115.317C33.7266 115.774 33.706 116.248 33.6649 116.737L31.3122 118.109L30.5028 118.582L27.7179 120.18L26.7165 120.757L24.4872 122.026L18.9313 125.174L18.6775 125.318L15.5154 127.115C14.7885 126.622 14.119 126.049 13.5193 125.407C12.5492 124.38 11.744 123.21 11.1323 121.936C12.5787 122.861 14.2247 123.428 15.9338 123.589C16.1944 123.589 16.4619 123.631 16.7295 123.637H16.9558C18.7789 123.625 20.5694 123.153 22.162 122.266C22.2237 122.235 22.2833 122.201 22.3403 122.163C22.9988 121.79 23.6191 121.353 24.1923 120.859C24.682 120.436 25.1405 119.977 25.5641 119.488C25.8771 119.128 26.168 118.75 26.4353 118.356C27.1679 117.296 27.7539 116.143 28.1775 114.926C28.3604 114.408 28.5116 113.879 28.6302 113.342C28.8866 112.217 29.0154 111.066 29.0143 109.912C29.0143 109.521 29.0143 109.137 28.9732 108.753C28.9052 107.774 28.7398 106.804 28.4793 105.858C28.2438 104.972 27.9222 104.11 27.519 103.286C29.4002 104.547 30.9488 106.245 32.0332 108.233C33.1175 110.221 33.7056 112.442 33.7472 114.707C33.7266 114.899 33.7266 115.105 33.7266 115.317Z" fill="#F1951E"/>
</g>
<path d="M30.9485 115.317C30.9485 115.557 30.9485 115.797 30.9485 116.003C30.9 116.869 30.7574 117.727 30.5232 118.562L27.7384 120.16L26.7369 120.736L24.5077 122.005L18.9517 125.153L18.6979 125.297L18.5882 125.256H18.5196L18.1423 125.085C17.6197 124.838 17.1233 124.539 16.6607 124.193L16.3589 123.953L16.304 123.905L16.1051 123.74L15.9611 123.61C15.8555 123.519 15.7547 123.423 15.6593 123.322C15.4809 123.15 15.3163 122.965 15.1517 122.78C14.8712 122.459 14.6123 122.12 14.3766 121.765C14.3217 121.689 14.2737 121.614 14.2188 121.525C14.164 121.436 14.0611 121.271 13.9788 121.134C13.8965 120.997 13.8896 120.983 13.8484 120.901C13.8398 120.876 13.8283 120.853 13.8141 120.832C13.7113 120.633 13.6084 120.427 13.5123 120.222L13.4369 120.064L13.3752 119.906C13.1394 119.351 12.949 118.777 12.8058 118.191C12.7715 118.054 12.7441 117.924 12.7167 117.793C12.6892 117.663 12.6755 117.594 12.6618 117.492C12.6481 117.389 12.6206 117.286 12.6069 117.176C12.5932 117.066 12.5589 116.874 12.5452 116.723L12.504 116.353C12.504 116.209 12.504 116.065 12.504 115.914C12.504 115.763 12.504 115.53 12.504 115.331C12.5006 115.267 12.5006 115.203 12.504 115.139C12.5131 114.357 12.6005 113.578 12.7647 112.814C12.8292 112.494 12.9116 112.178 13.0116 111.867C13.1273 111.47 13.267 111.081 13.43 110.701C14.0146 109.189 14.9797 107.853 16.2319 106.823C17.484 105.794 18.9808 105.104 20.5773 104.823C20.9384 104.77 21.303 104.744 21.668 104.747C23.111 104.772 24.5261 105.149 25.7907 105.845C27.0553 106.54 28.1311 107.534 28.925 108.739C30.2566 110.673 30.9629 112.969 30.9485 115.317Z" fill="#F1951E"/>
<path d="M28.7536 115.317C28.7555 115.958 28.7051 116.598 28.6027 117.231C28.4435 118.252 28.1458 119.247 27.7178 120.187L26.7164 120.763L24.4871 122.032L18.9312 125.181L18.6774 125.325L18.5745 125.284H18.5059L18.1286 125.112C17.606 124.866 17.1096 124.567 16.647 124.221L16.3452 123.98L16.2903 123.932L16.0914 123.768L15.9474 123.637C15.8418 123.547 15.741 123.451 15.6456 123.349C15.4672 123.178 15.3026 122.993 15.138 122.808C14.8575 122.487 14.5986 122.147 14.3629 121.792C14.308 121.717 14.26 121.641 14.2051 121.552C14.1503 121.463 14.0474 121.298 13.9651 121.161L13.8416 120.928C13.8329 120.904 13.8214 120.881 13.8073 120.859C13.7044 120.661 13.6015 120.455 13.5055 120.249C13.5055 120.194 13.4575 120.146 13.4369 120.091C13.4163 120.036 13.3889 119.982 13.3683 119.934C13.1325 119.378 12.9421 118.805 12.799 118.219C12.7647 118.082 12.7373 117.951 12.7098 117.821C12.6824 117.691 12.6687 117.622 12.655 117.519C12.6412 117.416 12.6138 117.313 12.6001 117.204C12.5864 117.094 12.5521 116.902 12.5384 116.751L12.4972 116.38C12.4972 116.236 12.4972 116.092 12.4972 115.941C12.4972 115.791 12.4972 115.557 12.4972 115.358C12.4938 115.294 12.4938 115.23 12.4972 115.166C12.5063 114.384 12.5936 113.606 12.7578 112.841C12.8224 112.521 12.9048 112.205 13.0048 111.894C13.1204 111.498 13.2602 111.108 13.4232 110.728C14.0045 109.21 14.969 107.868 16.2227 106.834C17.4763 105.799 18.9766 105.106 20.5774 104.823C24.6037 105.358 27.8344 108.849 28.5821 113.349C28.6917 113.999 28.7491 114.658 28.7536 115.317Z" fill="#F3B652"/>
<path d="M19.1988 119.909H17.4908V110H19.2123L23.8617 117.022V110H25.5697V119.909H23.8617L19.1988 112.887V119.909Z" fill="#FFDEAC"/>
<path d="M16 115.587H27V116.766H16V115.587Z" fill="#FFDEAC"/>
<path d="M16 113.23H27V114.409H16V113.23Z" fill="#FFDEAC"/>
<g style="mix-blend-mode:multiply" opacity="0.3">
<path d="M28.1223 115.317C28.1256 116.08 28.0475 116.841 27.8891 117.588C27.6838 118.701 27.2992 119.773 26.7505 120.763L24.5212 122.032L18.9652 125.181C18.6865 125.162 18.4093 125.125 18.1353 125.071C17.6126 124.824 17.1163 124.526 16.6537 124.179L16.3519 123.939L16.297 123.891L16.0981 123.727L15.954 123.596C15.8484 123.506 15.7477 123.409 15.6522 123.308C15.4739 123.137 15.3093 122.952 15.1447 122.766C14.8642 122.445 14.6052 122.106 14.3696 121.751C14.3147 121.676 14.2667 121.6 14.2118 121.511C14.1569 121.422 14.054 121.257 13.9717 121.12L13.8483 120.887C13.8396 120.863 13.8281 120.84 13.814 120.818L14.0472 120.887C14.6748 121.047 15.3201 121.127 15.9678 121.127C16.578 121.127 17.1861 121.054 17.7786 120.907C17.8082 120.911 17.8381 120.911 17.8678 120.907C18.5898 120.727 19.2826 120.445 19.9255 120.071C20.1176 119.961 20.3028 119.844 20.4811 119.721C20.6115 119.625 20.7418 119.536 20.8653 119.433C21.2346 119.145 21.5809 118.828 21.901 118.486C22.0107 118.37 22.1205 118.253 22.2165 118.129C22.4373 117.876 22.6412 117.607 22.827 117.327C23.3303 116.571 23.7273 115.749 24.0068 114.885C24.3714 113.838 24.5727 112.742 24.6035 111.634C24.6104 111.506 24.6104 111.378 24.6035 111.25C24.5959 109.645 24.2475 108.059 23.5815 106.599C24.9626 107.511 26.0988 108.747 26.8905 110.2C27.6823 111.653 28.1052 113.278 28.1223 114.933C28.1223 115.063 28.1223 115.187 28.1223 115.317Z" fill="#F1951E"/>
</g>
<path d="M60.6009 162.502C60.3784 162.849 60.103 163.159 59.7847 163.421C56.7186 166.206 46.7522 171.693 39.7489 174.629C34.2135 176.961 29.3366 179.691 26.147 180C24.7752 180.13 23.7532 179.835 23.081 178.909C20.8174 175.768 12.3463 152.995 9.90439 145.58C7.4625 138.165 6.76286 135.813 9.03327 133.186C9.03327 133.186 33.7265 120.009 38.6994 116.95C41.1962 115.42 42.4171 113.959 43.007 112.875C43.3395 112.345 43.5395 111.743 43.59 111.119C43.8987 111.846 61.9042 160.252 60.6009 162.502Z" fill="#006930"/>
<path opacity="0.7" d="M9.74696 125.284C6.35078 127.224 3.09391 129.4 0 131.793C0.024729 131.176 0.212223 130.576 0.543481 130.054C0.87474 129.533 1.33799 129.108 1.88629 128.823C2.89459 128.185 5.47366 126.649 9.17764 124.584C9.35529 124.827 9.54532 125.06 9.74696 125.284Z" fill="white"/>
<path opacity="0.7" d="M60.601 162.502C60.3764 162.847 60.1013 163.157 59.7847 163.421C58.0082 154.504 51.2518 134.695 46.7522 122.492C45.0305 117.841 43.6518 114.261 42.9933 112.889C42.9051 112.672 42.7972 112.463 42.6709 112.265C41.9096 111.27 39.4471 111.627 34.2272 113.637C34.1862 113.176 34.1198 112.718 34.0283 112.265C40.8875 109.988 43.5764 111.126 43.5764 111.126C43.8987 111.846 61.9042 160.252 60.601 162.502Z" fill="white"/>
<g style="mix-blend-mode:multiply" opacity="0.3">
<path d="M59.2908 161.981C57.8023 163.846 47.589 169.828 39.2138 173.36C37.5608 174.046 35.99 174.78 34.4673 175.48C30.9142 177.112 27.5532 178.649 25.5503 178.649C25.2935 178.687 25.031 178.657 24.7899 178.56C24.5487 178.464 24.3377 178.305 24.1784 178.1C22.0452 175.143 13.6769 152.721 11.1939 145.175C8.7726 137.809 8.4022 136.156 9.89751 134.304L15.1448 131.491C18.7185 133.851 24.4871 134.16 29.899 135.394C40.0164 137.692 30.3586 140.683 31.6275 147.809C32.7593 154.209 38.9944 160.156 58.9204 160.039C59.1033 160.674 59.2273 161.324 59.2908 161.981Z" fill="#326C91"/>
<path d="M41.8406 145.752C36.8882 145.285 34.7139 150.882 44.7558 153.571C54.7977 156.26 51.6493 146.671 41.8406 145.752Z" fill="#326C91"/>
</g>
<path d="M25.5231 143.481L25.7426 142C25.1955 141.656 24.5564 141.489 23.9112 141.519C23.1704 141.691 11.0433 147.103 10.5631 147.192C10.083 147.281 3.23061 144.572 3.23061 144.572L2.18115 145.258C2.18115 145.258 7.9429 150.059 10.474 150.45C13.005 150.841 25.5231 143.481 25.5231 143.481Z" fill="#01918B"/>
<path d="M29.1928 151.026C29.2751 152.254 16.366 157.886 15.0971 158.229H14.9256C13.2656 158.325 6.22807 155.999 5.93998 155.485C5.6519 154.97 2.27716 145.505 2.18799 145.237C2.4212 145.333 9.87718 148.379 10.7826 148.461H10.8238C12.0378 148.379 24.7548 141.917 25.7426 141.965C26.7303 142.013 29.1036 149.812 29.1928 151.026Z" fill="#006930"/>
<g style="mix-blend-mode:multiply" opacity="0.3">
<path d="M14.9256 158.256C13.2656 158.352 6.22807 156.027 5.93998 155.512C5.6519 154.998 2.27716 145.532 2.18799 145.265C2.4212 145.361 9.87718 148.406 10.7826 148.488H10.8238C12.1133 151.699 13.8075 155.656 14.9256 158.256Z" fill="#326C91"/>
</g>
<g style="mix-blend-mode:multiply" opacity="0.3">
<path d="M24.0069 145.882C21.8325 146.897 23.609 151.164 25.9275 150.334C28.2459 149.504 26.0646 144.922 24.0069 145.882Z" fill="#326C91"/>
</g>
<g style="mix-blend-mode:multiply" opacity="0.3">
<path d="M162.975 231.245C194.717 231.245 220.448 229.178 220.448 226.629C220.448 224.079 194.717 222.012 162.975 222.012C131.233 222.012 105.501 224.079 105.501 226.629C105.501 229.178 131.233 231.245 162.975 231.245Z" fill="#326C91"/>
</g>
<g style="mix-blend-mode:multiply" opacity="0.3">
<path d="M207.697 226.629C207.697 228.069 187.675 229.235 162.975 229.235C138.275 229.235 118.253 228.069 118.253 226.629C118.253 225.188 138.275 224.022 162.975 224.022C187.675 224.022 207.697 225.188 207.697 226.629Z" fill="#326C91"/>
</g>
<path d="M199.247 51.3755H123.939C118.821 51.3755 114.672 55.5244 114.672 60.6423V215.62C114.672 220.738 118.821 224.886 123.939 224.886H199.247C204.365 224.886 208.513 220.738 208.513 215.62V60.6423C208.513 55.5244 204.365 51.3755 199.247 51.3755Z" fill="#006930"/>
<g style="mix-blend-mode:multiply" opacity="0.3">
<path d="M206.668 76.1373V216.066C206.666 217.924 205.927 219.706 204.613 221.02C203.298 222.335 201.516 223.074 199.658 223.076H123.52C121.662 223.074 119.88 222.335 118.565 221.02C117.251 219.706 116.512 217.924 116.51 216.066V166.727C162.254 148.262 198.451 119.069 206.668 76.1373Z" fill="#326C91"/>
</g>
<path d="M201.99 63.5233V212.746C201.99 214.187 201.418 215.57 200.4 216.59C199.381 217.609 197.999 218.183 196.558 218.185H126.594C125.152 218.183 123.77 217.609 122.752 216.59C121.733 215.57 121.161 214.187 121.161 212.746V63.5233C121.161 62.0818 121.733 60.6994 122.752 59.6795C123.77 58.6596 125.152 58.0857 126.594 58.0839H146.348V59.1265C146.35 59.8263 146.629 60.497 147.124 60.9918C147.619 61.4867 148.289 61.7655 148.989 61.7673H174.135C174.835 61.7655 175.505 61.4867 176 60.9918C176.495 60.497 176.774 59.8263 176.776 59.1265V58.0839H196.53C197.246 58.0812 197.956 58.2199 198.618 58.492C199.28 58.7642 199.883 59.1644 200.39 59.6698C200.897 60.1751 201.3 60.7757 201.574 61.4369C201.849 62.0982 201.99 62.8072 201.99 63.5233Z" fill="#99D6D5"/>
<path d="M151.808 58.0839C151.808 58.3891 151.718 58.6875 151.548 58.9413C151.379 59.1951 151.138 59.3929 150.856 59.5097C150.574 59.6265 150.263 59.6571 149.964 59.5975C149.665 59.538 149.39 59.391 149.174 59.1751C148.958 58.9593 148.811 58.6843 148.751 58.3849C148.692 58.0856 148.722 57.7753 148.839 57.4932C148.956 57.2112 149.154 56.9702 149.408 56.8006C149.661 56.631 149.96 56.5405 150.265 56.5405C150.674 56.5405 151.067 56.7031 151.356 56.9926C151.646 57.282 151.808 57.6745 151.808 58.0839Z" fill="#0C1A3B"/>
<path d="M172.736 59.6272H156.39C155.981 59.6272 155.588 59.4646 155.299 59.1751C155.009 58.8857 154.847 58.4932 154.847 58.0839C154.847 57.6745 155.009 57.282 155.299 56.9926C155.588 56.7031 155.981 56.5405 156.39 56.5405H172.708C173.117 56.5405 173.51 56.7031 173.799 56.9926C174.089 57.282 174.251 57.6745 174.251 58.0839C174.251 58.4885 174.093 58.8769 173.809 59.1656C173.526 59.4542 173.14 59.62 172.736 59.6272Z" fill="#0C1A3B"/>
<g opacity="0.7">
<path d="M196.558 60.9167H179.334C178.961 61.9923 178.263 62.9253 177.337 63.5865C176.41 64.2477 175.301 64.6043 174.162 64.607H149.017C147.878 64.6043 146.769 64.2477 145.842 63.5865C144.916 62.9253 144.217 61.9923 143.845 60.9167H143.797L124.021 80.6919V153.4L199.151 78.2637V63.5233C199.151 63.1819 199.085 62.8436 198.955 62.5279C198.826 62.2121 198.635 61.9251 198.394 61.683C198.153 61.441 197.867 61.2487 197.552 61.1173C197.237 60.9858 196.899 60.9176 196.558 60.9167Z" fill="white"/>
<path d="M124.021 172.942V193.931L199.157 118.795V97.8057L124.021 172.942Z" fill="white"/>
<path d="M124.021 205.393V212.746C124.017 213.09 124.081 213.432 124.209 213.751C124.338 214.07 124.529 214.361 124.77 214.606C125.012 214.851 125.3 215.046 125.618 215.178C125.936 215.311 126.277 215.38 126.621 215.38H186.776L199.123 203.033V130.325L124.021 205.393Z" fill="white"/>
</g>
<path d="M208.52 60.6423V62.947C207.523 60.8768 206.403 58.8681 205.166 56.9315C203.479 54.5239 199.747 54.0437 196.743 54.0437H126.347C124.232 54.0473 122.201 54.8679 120.677 56.3341C119.154 57.8002 118.256 59.7985 118.171 61.9113L114.672 153.825V60.6423C114.671 59.4257 114.91 58.2208 115.375 57.0966C115.84 55.9723 116.522 54.9507 117.382 54.0901C118.242 53.2295 119.263 52.5468 120.387 52.081C121.511 51.6152 122.716 51.3755 123.932 51.3755H199.247C200.464 51.3737 201.671 51.6121 202.796 52.0771C203.922 52.5421 204.944 53.2245 205.806 54.0852C206.667 54.946 207.35 55.9682 207.816 57.0934C208.282 58.2186 208.521 59.4245 208.52 60.6423Z" fill="#00A054"/>
<path d="M184.513 188.313H138.693C136.813 188.311 135.011 187.563 133.682 186.233C132.354 184.903 131.607 183.1 131.607 181.221C131.609 179.342 132.356 177.541 133.685 176.212C135.013 174.884 136.814 174.137 138.693 174.135H184.513C186.392 174.135 188.195 174.881 189.525 176.21C190.855 177.539 191.603 179.341 191.605 181.221C191.605 183.102 190.858 184.906 189.528 186.236C188.198 187.566 186.394 188.313 184.513 188.313Z" fill="#006930"/>
<path d="M189.445 197.95H133.755C133.191 197.95 132.65 197.726 132.251 197.328C131.852 196.929 131.628 196.388 131.628 195.824C131.628 195.545 131.683 195.268 131.79 195.01C131.897 194.752 132.054 194.518 132.251 194.32C132.449 194.123 132.683 193.966 132.941 193.859C133.199 193.753 133.476 193.698 133.755 193.698H189.465C189.745 193.698 190.021 193.753 190.279 193.859C190.537 193.966 190.772 194.123 190.969 194.32C191.166 194.518 191.323 194.752 191.43 195.01C191.537 195.268 191.592 195.545 191.592 195.824C191.592 196.105 191.536 196.383 191.428 196.642C191.32 196.902 191.161 197.137 190.962 197.335C190.762 197.533 190.525 197.689 190.265 197.794C190.005 197.9 189.726 197.953 189.445 197.95Z" fill="#006930"/>
<path d="M189.445 204.473H133.755C133.191 204.473 132.65 204.249 132.251 203.851C131.852 203.452 131.628 202.911 131.628 202.347C131.628 201.783 131.852 201.242 132.251 200.844C132.65 200.445 133.191 200.221 133.755 200.221H189.465C189.745 200.221 190.021 200.276 190.279 200.383C190.537 200.489 190.772 200.646 190.969 200.844C191.166 201.041 191.323 201.275 191.43 201.533C191.537 201.791 191.592 202.068 191.592 202.347C191.592 202.628 191.536 202.906 191.428 203.166C191.32 203.425 191.161 203.66 190.962 203.858C190.762 204.056 190.525 204.212 190.265 204.318C190.005 204.423 189.726 204.476 189.445 204.473Z" fill="#006930"/>
<path d="M186.653 152.548C200.494 138.707 200.494 116.267 186.653 102.426C172.812 88.5855 150.372 88.5855 136.531 102.426C122.69 116.267 122.69 138.708 136.531 152.548C150.372 166.389 172.812 166.389 186.653 152.548Z" fill="#FFC77C"/>
<g style="mix-blend-mode:multiply" opacity="0.3">
<path d="M195.323 127.485C195.328 134.974 192.841 142.251 188.254 148.17C183.667 154.089 177.24 158.312 169.987 160.175C162.734 162.038 155.067 161.434 148.196 158.459C141.324 155.484 135.637 150.306 132.033 143.742C138.435 147.261 145.806 148.608 153.038 147.579C160.27 146.549 166.973 143.2 172.139 138.035C177.304 132.869 180.653 126.166 181.683 118.934C182.712 111.702 181.365 104.331 177.846 97.9291C183.136 100.842 187.549 105.121 190.623 110.319C193.697 115.518 195.32 121.446 195.323 127.485Z" fill="#F1951E"/>
</g>
<path d="M179.945 145.84C190.081 135.704 190.081 119.27 179.945 109.134C169.809 98.9979 153.375 98.998 143.238 109.134C133.102 119.27 133.102 135.704 143.238 145.84C153.375 155.977 169.809 155.977 179.945 145.84Z" fill="#F1951E"/>
<path d="M156.142 140.222H151.795V115H156.177L168.012 132.873V115H172.359V140.222H168.012L156.142 122.349V140.222Z" fill="#FFDEAC"/>
<path d="M148 129.222H176V132.222H148V129.222Z" fill="#FFDEAC"/>
<path d="M148 123.222H176V126.222H148V123.222Z" fill="#FFDEAC"/>
<g style="mix-blend-mode:multiply" opacity="0.3">
<path d="M185.837 127.485C185.838 132.895 184.031 138.149 180.703 142.413C177.374 146.677 172.716 149.706 167.468 151.017C162.22 152.329 156.684 151.848 151.741 149.65C146.798 147.453 142.731 143.667 140.188 138.892C144.774 141.341 150.026 142.251 155.168 141.487C160.31 140.723 165.071 138.326 168.747 134.65C172.423 130.974 174.82 126.213 175.584 121.071C176.347 115.929 175.438 110.677 172.989 106.092C176.868 108.159 180.112 111.242 182.375 115.01C184.637 118.778 185.834 123.09 185.837 127.485Z" fill="#F1951E"/>
</g>
<path d="M184.28 76.3979C182.85 78.9213 180.62 80.8958 177.942 82.0088L180.219 85.7334C180.219 85.7334 185.274 84.1763 187.387 80.2871L184.28 76.3979Z" fill="#006930"/>
<path d="M157.906 78.2499C158.932 76.8179 160.407 75.77 162.097 75.273L160.958 72.8792C160.958 72.8792 157.803 73.4896 156.28 75.6983L157.906 78.2499Z" fill="#006930"/>
<path d="M131.786 161.809C134.685 161.793 137.507 162.744 139.805 164.512L141.897 160.684C141.897 160.684 138.035 157.069 133.611 157.179L131.786 161.809Z" fill="#006930"/>
<path d="M132.19 72.4608C133.789 75.3987 136.25 77.7758 139.242 79.272L135.558 83.9226C133.847 83.1239 132.32 81.9806 131.071 80.5643C129.822 79.1479 128.879 77.4891 128.301 75.6915L132.19 72.4608Z" fill="#E83E4D"/>
<path d="M194.891 97.0374C194.614 98.9705 193.638 100.735 192.147 101.997L194.383 104.123C194.383 104.123 197.353 101.496 197.916 98.1348L194.891 97.0374Z" fill="#3889C8"/>
<path d="M189.801 157.508C189.338 160.763 187.701 163.737 185.199 165.87L188.971 169.45C188.971 169.45 193.985 165.026 194.925 159.36L189.801 157.508Z" fill="#E83E4D"/>
<path d="M131.793 102.943C132.622 101.053 134.116 99.5324 135.991 98.6699L134.317 95.8645C134.317 95.8645 130.538 97.6891 129.015 100.954L131.793 102.943Z" fill="#3889C8"/>
<path d="M159.429 170.671C160.044 169.275 161.15 168.153 162.536 167.516L161.295 165.458C161.295 165.458 158.503 166.83 157.378 169.21L159.429 170.671Z" fill="#3889C8"/>
<path d="M107.216 114.192C107.216 105.275 101.729 97.8057 94.4171 95.9263V95.4667H90.8091C81.7413 95.4667 74.395 103.849 74.395 114.192C74.395 124.536 81.7413 132.918 90.8091 132.918H94.4171V132.458C101.743 130.579 107.216 123.116 107.216 114.192Z" fill="#F1951E"/>
<path d="M98.0865 130.236V130.065L97.7847 130.236H98.0865Z" fill="white" stroke="#221F20" stroke-width="0.480146" stroke-miterlimit="10"/>
<g style="mix-blend-mode:multiply" opacity="0.3">
<path d="M76.4458 121.408C77.821 125.116 80.4357 128.235 83.8469 130.236H97.7574L98.0592 130.065V121.408H76.4458Z" fill="#F1951E"/>
</g>
<g style="mix-blend-mode:multiply" opacity="0.3">
<path d="M94.6022 114.947H75.1357C75.2004 116.771 75.5119 118.577 76.0617 120.318H94.5816L94.6022 114.947Z" fill="#F1951E"/>
</g>
<g style="mix-blend-mode:multiply" opacity="0.3">
<path d="M93.7243 110.921H75.3827C75.2224 111.919 75.1353 112.928 75.1221 113.939H93.7243V110.921Z" fill="#F1951E"/>
</g>
<g style="mix-blend-mode:multiply" opacity="0.3">
<path d="M93.7241 108.184H76.0273C75.8695 108.677 75.7323 109.185 75.6157 109.699H93.7241V108.184Z" fill="#F1951E"/>
</g>
<path d="M94.417 132.918C103.479 132.918 110.824 124.534 110.824 114.192C110.824 103.85 103.479 95.4667 94.417 95.4667C85.3555 95.4667 78.0098 103.85 78.0098 114.192C78.0098 124.534 85.3555 132.918 94.417 132.918Z" fill="#FFC77C"/>
<g style="mix-blend-mode:multiply" opacity="0.3">
<path d="M110.042 114.192C110.042 124.022 103.032 132.026 94.4172 132.026C88.532 132.026 83.3944 128.295 80.6987 122.794C82.952 124.234 85.5698 125 88.2439 125.002C96.8591 125.002 103.869 117.005 103.869 107.168C103.878 104.197 103.217 101.261 101.935 98.5807C106.771 101.612 110.042 107.477 110.042 114.192Z" fill="#F1951E"/>
</g>
<path d="M106.434 114.192C106.434 121.737 101.057 127.911 94.4168 127.911C93.9418 127.913 93.4672 127.881 92.9969 127.815C87.0294 127.019 82.3994 121.223 82.3994 114.199C82.3994 107.175 87.0294 101.379 92.9969 100.584C93.4672 100.517 93.9418 100.485 94.4168 100.488C101.057 100.481 106.434 106.62 106.434 114.192Z" fill="#F1951E"/>
<path d="M103.574 114.192C103.574 121.216 98.951 127.005 92.9835 127.808C91.8599 127.659 90.7671 127.332 89.7459 126.841C87.343 125.65 85.3789 123.729 84.1351 121.353C82.9734 119.156 82.3726 116.705 82.386 114.22C82.386 107.196 87.0159 101.4 92.9835 100.604C98.9647 101.379 103.574 107.169 103.574 114.192Z" fill="#F3B652"/>
<path d="M97.8123 113.918C98.3587 114.349 98.7978 114.901 99.0949 115.53C99.4658 116.342 99.6419 117.23 99.6094 118.123C99.6157 118.938 99.4326 119.743 99.0744 120.475C98.7157 121.203 98.1716 121.823 97.4967 122.272C96.7564 122.767 95.9013 123.062 95.0137 123.13V124.584H93.2852V123.082C91.7481 122.891 90.2982 122.262 89.1079 121.271L90.4455 118.575C90.867 118.922 91.3274 119.219 91.8173 119.46C92.2857 119.7 92.7807 119.884 93.292 120.009V115.31C92.3486 114.885 91.5086 114.26 90.8296 113.479C90.1738 112.62 89.8477 111.554 89.9104 110.475C89.8665 109.232 90.2706 108.015 91.0491 107.045C91.8301 106.126 92.9308 105.538 94.1289 105.399V103.828H95.8848V105.426C96.6124 105.482 97.3248 105.663 97.9906 105.961C98.6268 106.257 99.2293 106.62 99.7877 107.045L98.6422 109.693C97.8041 109.138 96.8756 108.734 95.8985 108.499V112.862L96.0014 112.91C96.644 113.171 97.2521 113.509 97.8123 113.918ZM93.0108 110.214C93.0363 110.563 93.1488 110.901 93.3381 111.195C93.5274 111.49 93.7875 111.733 94.0946 111.901V108.568C93.7525 108.676 93.4581 108.899 93.2607 109.199C93.0634 109.498 92.9752 109.857 93.0108 110.214ZM96.0289 119.35C96.3089 119.005 96.4507 118.567 96.4267 118.123C96.4267 117.396 95.9466 116.744 94.9863 116.168V119.988C95.3927 119.892 95.7578 119.668 96.0289 119.35Z" fill="#FFDEAC"/>
<g style="mix-blend-mode:multiply" opacity="0.3">
<path d="M102.806 114.192C102.806 121.257 97.7645 127.005 91.5706 127.005C90.9632 127.006 90.357 126.951 89.7598 126.841C87.3569 125.65 85.3928 123.729 84.1489 121.353C85.0582 121.618 86.0005 121.752 86.9475 121.751C93.1208 121.751 98.176 116.003 98.176 108.938C98.1853 106.849 97.7333 104.783 96.8522 102.888C100.392 105.042 102.806 109.302 102.806 114.192Z" fill="#F1951E"/>
</g>
<path d="M65.0185 203.204H23.4858V211.065H65.0185V203.204Z" fill="#F3B652"/>
<g style="mix-blend-mode:multiply" opacity="0.3">
<path d="M62.6315 204.576H53.2412V209.7H62.6315V204.576Z" fill="#F1951E"/>
</g>
<g style="mix-blend-mode:multiply" opacity="0.3">
<path d="M50.7098 204.576H43.7134V209.7H50.7098V204.576Z" fill="#F1951E"/>
</g>
<g style="mix-blend-mode:multiply" opacity="0.3">
<path d="M41.8545 204.576H38.9873V209.7H41.8545V204.576Z" fill="#F1951E"/>
</g>
<path d="M65.0185 203.204V203.273L23.4858 206.284V203.204H65.0185Z" fill="#FFC77C"/>
<path d="M65.0185 211.065H23.4858V218.933H65.0185V211.065Z" fill="#F3B652"/>
<g style="mix-blend-mode:multiply" opacity="0.3">
<path d="M62.6315 212.437H53.2412V217.561H62.6315V212.437Z" fill="#F1951E"/>
</g>
<g style="mix-blend-mode:multiply" opacity="0.3">
<path d="M50.7098 212.437H43.7134V217.561H50.7098V212.437Z" fill="#F1951E"/>
</g>
<g style="mix-blend-mode:multiply" opacity="0.3">
<path d="M41.8545 212.437H38.9873V217.561H41.8545V212.437Z" fill="#F1951E"/>
</g>
<path d="M65.0185 211.065V211.134L23.4858 214.145V211.065H65.0185Z" fill="#FFC77C"/>
<path d="M65.0185 218.933H23.4858V226.793H65.0185V218.933Z" fill="#F3B652"/>
<g style="mix-blend-mode:multiply" opacity="0.3">
<path d="M62.6315 220.298H53.2412V225.422H62.6315V220.298Z" fill="#F1951E"/>
</g>
<g style="mix-blend-mode:multiply" opacity="0.3">
<path d="M50.7098 220.298H43.7134V225.422H50.7098V220.298Z" fill="#F1951E"/>
</g>
<g style="mix-blend-mode:multiply" opacity="0.3">
<path d="M41.8545 220.298H38.9873V225.422H41.8545V220.298Z" fill="#F1951E"/>
</g>
<path d="M65.0185 218.926V218.994L23.4858 222.006V218.926H65.0185Z" fill="#FFC77C"/>
<g style="mix-blend-mode:multiply" opacity="0.3">
<path d="M65.018 203.204V226.786H60.6419C58.395 224.378 56.4 221.747 54.688 218.933C54.6469 218.85 54.592 218.775 54.5509 218.693C53.0691 216.264 51.8 213.712 50.7577 211.065C49.7208 208.554 49.0531 205.907 48.7754 203.204H65.018Z" fill="#F1951E"/>
</g>
<path d="M71.9255 205.091C69.605 202.652 67.0373 200.462 64.2638 198.554L57.2331 191.194L52.4796 195.755C49.4547 198.657 53.2616 207.526 60.9782 215.572C68.6948 223.618 77.3992 227.781 80.4241 224.88L85.1707 220.325L78.14 212.993C76.3493 210.149 74.2665 207.501 71.9255 205.091Z" fill="#F1951E"/>
<g style="mix-blend-mode:multiply" opacity="0.3">
<path d="M75.3417 210.414C76.0962 211.422 76.789 212.471 77.3994 213.438L77.4475 213.521L83.0103 219.317L77.1937 224.9C74.5254 224.653 70.4991 222.726 66.1709 219.207L75.3417 210.414Z" fill="#F1951E"/>
</g>
<g style="mix-blend-mode:multiply" opacity="0.3">
<path d="M71.3358 205.66C72.1109 206.47 72.8517 207.299 73.5582 208.136L63.9758 217.307C63.187 216.58 62.3913 215.798 61.5957 214.975C60.9989 214.351 60.4227 213.727 59.8809 213.102L69.4838 203.87C70.1148 204.446 70.7184 205.05 71.3358 205.66Z" fill="#F1951E"/>
</g>
<g style="mix-blend-mode:multiply" opacity="0.3">
<path d="M67.906 202.402L58.5089 211.415C57.8229 210.558 57.1919 209.707 56.6157 208.87L65.4435 200.406C66.2484 201.023 67.0692 201.689 67.906 202.402Z" fill="#F1951E"/>
</g>
<g style="mix-blend-mode:multiply" opacity="0.3">
<path d="M62.5079 197.937L63.6945 199.178L55.4634 207.094C55.1479 206.579 54.853 206.065 54.5854 205.564L62.5079 197.937Z" fill="#F1951E"/>
</g>
<path d="M76.6791 200.509C84.3683 208.52 88.1957 217.437 85.1708 220.325C82.1459 223.213 73.4415 219.056 65.7249 211.01C58.0083 202.964 54.1877 194.116 57.2332 191.194C60.2787 188.272 68.9625 192.463 76.6791 200.509Z" fill="#FFC77C"/>
<path d="M74.8542 202.258C79.9987 207.622 82.5297 213.535 80.5131 215.469C80.1824 215.78 79.7626 215.979 79.3127 216.038C76.6994 216.47 71.8911 213.788 67.5492 209.261C63.2073 204.734 60.6899 199.823 61.2661 197.23C61.3492 196.782 61.567 196.371 61.8903 196.05C63.9001 194.116 69.7098 196.894 74.8542 202.258Z" fill="#F3B652"/>
<path d="M70.8831 205.091C71.2747 205.126 71.6551 205.24 72.0011 205.427C72.489 205.699 72.9292 206.049 73.3044 206.463C73.6586 206.824 73.9507 207.241 74.1686 207.697C74.3621 208.106 74.4584 208.555 74.4499 209.007C74.4381 209.43 74.2887 209.837 74.0246 210.167L74.6625 210.853L74.1 211.394L73.4141 210.708C72.7766 211.108 72.0192 211.27 71.2741 211.168L70.5195 209.522C70.7951 209.556 71.0739 209.556 71.3495 209.522C71.5871 209.492 71.8185 209.425 72.0354 209.323L69.9777 207.176C69.4455 207.269 68.8992 207.241 68.3795 207.094C67.7559 206.881 67.1997 206.507 66.7675 206.01C66.2158 205.481 65.8176 204.813 65.6152 204.076C65.5343 203.79 65.5163 203.489 65.5625 203.196C65.6086 202.902 65.7179 202.622 65.8827 202.375L65.1968 201.654L65.7592 201.112L66.4452 201.84C66.7166 201.641 67.0278 201.503 67.3574 201.435C67.7064 201.377 68.0607 201.358 68.4138 201.38L69.2026 202.944C68.729 202.946 68.2613 203.049 67.8307 203.246L69.7444 205.242H69.7993C70.1511 205.138 70.5164 205.087 70.8831 205.091ZM67.7141 204.878C67.8563 205.022 68.0265 205.135 68.214 205.21C68.4016 205.286 68.6026 205.322 68.8047 205.317L67.3437 203.794C67.2964 203.988 67.3061 204.192 67.3718 204.381C67.4376 204.569 67.5564 204.735 67.7141 204.858V204.878ZM72.7008 208.116C72.6294 207.855 72.4897 207.618 72.2961 207.43C72.1227 207.261 71.9138 207.134 71.6847 207.057C71.4556 206.98 71.2122 206.955 70.9722 206.984L72.6459 208.726C72.7444 208.531 72.7664 208.306 72.7076 208.095L72.7008 208.116Z" fill="#FFDEAC"/>
<path d="M74.8542 202.258C79.9987 207.622 82.5297 213.535 80.5131 215.469C80.1824 215.78 79.7626 215.979 79.3127 216.038C79.8478 213.452 77.3647 208.534 73.0228 204.007C68.6809 199.48 63.8726 196.798 61.2661 197.23C61.3492 196.782 61.567 196.371 61.8903 196.05C63.9001 194.116 69.7098 196.894 74.8542 202.258Z" fill="#F1951E"/>
<path d="M51.403 113.177C51.2172 113.521 50.9336 113.802 50.588 113.985C50.2424 114.167 49.8504 114.243 49.4616 114.203C49.0728 114.163 48.7047 114.008 48.4038 113.759C48.1029 113.509 47.8829 113.176 47.7714 112.801C47.66 112.427 47.6622 112.028 47.7778 111.654C47.8934 111.281 48.1171 110.95 48.4208 110.704C48.7244 110.458 49.0942 110.307 49.4834 110.271C49.8726 110.235 50.2638 110.316 50.6073 110.502C51.0672 110.752 51.4092 111.174 51.5584 111.675C51.7076 112.177 51.6517 112.717 51.403 113.177Z" fill="#F1951E"/>
<path d="M53.0145 121.58C52.8606 121.87 52.624 122.108 52.3348 122.263C52.0456 122.419 51.7168 122.485 51.3898 122.454C51.0629 122.423 50.7526 122.295 50.4982 122.088C50.2438 121.88 50.0568 121.601 49.9608 121.287C49.8647 120.973 49.864 120.638 49.9587 120.323C50.0534 120.009 50.2392 119.729 50.4927 119.521C50.7462 119.312 51.056 119.183 51.3827 119.15C51.7095 119.117 52.0387 119.182 52.3285 119.337C52.5214 119.438 52.6922 119.577 52.8311 119.745C52.9701 119.913 53.0745 120.107 53.1382 120.316C53.202 120.524 53.2239 120.743 53.2026 120.96C53.1814 121.177 53.1174 121.388 53.0145 121.58Z" fill="white"/>
<path d="M62.5832 119.632C62.4847 119.812 62.3349 119.96 62.1527 120.055C61.9705 120.151 61.7642 120.191 61.5595 120.169C61.3549 120.148 61.1612 120.066 61.0028 119.935C60.8444 119.804 60.7284 119.628 60.6693 119.431C60.6103 119.234 60.6109 119.024 60.6711 118.827C60.7312 118.631 60.8482 118.456 61.0074 118.326C61.1665 118.195 61.3607 118.115 61.5655 118.095C61.7702 118.074 61.9764 118.115 62.158 118.212C62.2796 118.277 62.3873 118.365 62.4746 118.471C62.562 118.578 62.6273 118.701 62.6669 118.833C62.7064 118.965 62.7194 119.104 62.705 119.241C62.6907 119.378 62.6493 119.511 62.5832 119.632Z" fill="#E83E4D"/>
<path d="M6.33779 174.766C6.33779 175.062 6.25009 175.351 6.08579 175.597C5.92148 175.843 5.68794 176.034 5.41471 176.148C5.14148 176.261 4.84082 176.29 4.55076 176.233C4.2607 176.175 3.99426 176.033 3.78514 175.824C3.57601 175.614 3.4336 175.348 3.3759 175.058C3.3182 174.768 3.34782 174.467 3.46099 174.194C3.57417 173.921 3.76583 173.687 4.01173 173.523C4.25763 173.359 4.54674 173.271 4.84248 173.271C5.23906 173.271 5.6194 173.428 5.89982 173.709C6.18025 173.989 6.33779 174.37 6.33779 174.766Z" fill="#F1951E"/>
<path d="M12.95 183.93C12.9514 184.267 12.8526 184.597 12.6662 184.878C12.4798 185.159 12.2142 185.378 11.9031 185.507C11.592 185.637 11.2494 185.671 10.9188 185.606C10.5881 185.54 10.2844 185.378 10.0461 185.14C9.80778 184.901 9.64562 184.598 9.58021 184.267C9.51479 183.937 9.54905 183.594 9.67865 183.283C9.80825 182.972 10.0273 182.706 10.3081 182.52C10.5889 182.333 10.9188 182.234 11.2558 182.236C11.7046 182.238 12.1345 182.417 12.4518 182.734C12.7691 183.051 12.9482 183.481 12.95 183.93Z" fill="#3889C8"/>
<path d="M5.3913 188.848C5.81938 188.848 6.1664 188.501 6.1664 188.073C6.1664 187.645 5.81938 187.298 5.3913 187.298C4.96323 187.298 4.61621 187.645 4.61621 188.073C4.61621 188.501 4.96323 188.848 5.3913 188.848Z" fill="#F1951E"/>
<path d="M72.1245 165.307C72.1245 165.904 71.9475 166.488 71.6159 166.984C71.2842 167.48 70.8129 167.867 70.2614 168.096C69.7099 168.324 69.1031 168.384 68.5176 168.267C67.9322 168.151 67.3944 167.863 66.9724 167.441C66.5503 167.019 66.2628 166.481 66.1464 165.896C66.0299 165.311 66.0897 164.704 66.3181 164.152C66.5465 163.601 66.9334 163.129 67.4297 162.798C67.926 162.466 68.5095 162.289 69.1064 162.289C69.5028 162.289 69.8952 162.367 70.2614 162.519C70.6276 162.671 70.9603 162.893 71.2405 163.173C71.5208 163.453 71.7431 163.786 71.8948 164.152C72.0464 164.518 72.1245 164.911 72.1245 165.307Z" fill="#E83E4D"/>
<path d="M62.2334 176.097C62.2348 176.255 62.1891 176.41 62.1022 176.541C62.0153 176.673 61.8911 176.776 61.7454 176.837C61.5997 176.899 61.4392 176.915 61.2842 176.884C61.1292 176.854 60.9868 176.778 60.8751 176.666C60.7635 176.555 60.6875 176.412 60.657 176.257C60.6266 176.102 60.6429 175.942 60.704 175.796C60.765 175.65 60.8681 175.526 61 175.439C61.1319 175.352 61.2866 175.307 61.4446 175.308C61.6538 175.308 61.8544 175.391 62.0024 175.539C62.1503 175.687 62.2334 175.888 62.2334 176.097Z" fill="#F1951E"/>
<path d="M67.4465 154.909C68.1966 154.909 68.8046 154.301 68.8046 153.551C68.8046 152.8 68.1966 152.192 67.4465 152.192C66.6964 152.192 66.0884 152.8 66.0884 153.551C66.0884 154.301 66.6964 154.909 67.4465 154.909Z" fill="#F1951E"/>
<path d="M94.9453 68.3727C94.7586 68.7141 94.475 68.9925 94.1302 69.1727C93.7855 69.353 93.395 69.4271 93.0082 69.3856C92.6213 69.3441 92.2555 69.1889 91.9568 68.9396C91.6581 68.6903 91.4399 68.3581 91.3299 67.985C91.2199 67.6118 91.2229 67.2144 91.3385 66.8429C91.4542 66.4715 91.6773 66.1426 91.9798 65.8979C92.2822 65.6531 92.6504 65.5035 93.0378 65.4679C93.4252 65.4322 93.8145 65.5122 94.1565 65.6976C94.3843 65.8212 94.5854 65.9884 94.7484 66.1898C94.9114 66.3913 95.033 66.6229 95.1063 66.8714C95.1796 67.1199 95.2031 67.3805 95.1755 67.6381C95.1478 67.8958 95.0696 68.1454 94.9453 68.3727Z" fill="#F1951E"/>
<path d="M96.557 76.8232C96.4022 77.1124 96.1652 77.3493 95.8759 77.5039C95.5866 77.6585 95.258 77.724 94.9315 77.6919C94.6051 77.6599 94.2954 77.5319 94.0417 77.324C93.7879 77.1162 93.6014 76.8378 93.5057 76.524C93.4101 76.2102 93.4095 75.8752 93.5042 75.5611C93.5988 75.247 93.7844 74.968 94.0374 74.7593C94.2905 74.5506 94.5997 74.4216 94.9261 74.3885C95.2524 74.3554 95.5813 74.4197 95.8711 74.5734C96.2597 74.7815 96.55 75.135 96.6786 75.5567C96.8071 75.9783 96.7634 76.4337 96.557 76.8232Z" fill="#006930"/>
<path d="M106.126 74.8409C106.06 74.9616 105.972 75.0683 105.866 75.1548C105.759 75.2413 105.636 75.306 105.505 75.3452C105.373 75.3844 105.235 75.3972 105.099 75.3831C104.962 75.369 104.83 75.3281 104.709 75.2628C104.589 75.1975 104.482 75.109 104.395 75.0025C104.309 74.896 104.244 74.7734 104.205 74.6419C104.166 74.5104 104.153 74.3724 104.167 74.2359C104.181 74.0994 104.222 73.967 104.288 73.8463C104.419 73.6026 104.643 73.4212 104.908 73.3421C105.174 73.263 105.46 73.2926 105.704 73.4245C105.948 73.5564 106.129 73.7797 106.208 74.0453C106.287 74.311 106.258 74.5972 106.126 74.8409Z" fill="#E83E4D"/>
<path d="M212.574 58.0907C212.876 57.8397 213.246 57.6845 213.637 57.6448C214.028 57.6052 214.422 57.683 214.768 57.8682C215.115 58.0535 215.398 58.3378 215.582 58.6848C215.766 59.0318 215.842 59.4259 215.801 59.8165C215.76 60.2072 215.604 60.5767 215.352 60.878C215.099 61.1792 214.763 61.3985 214.386 61.5077C214.009 61.617 213.607 61.6113 213.233 61.4913C212.859 61.3714 212.53 61.1427 212.286 60.8344C211.965 60.4306 211.815 59.9168 211.869 59.4037C211.923 58.8905 212.176 58.4191 212.574 58.0907Z" fill="#F1951E"/>
<path d="M209.769 45.4765C210.023 45.2689 210.334 45.1415 210.661 45.1105C210.988 45.0794 211.317 45.1461 211.606 45.302C211.895 45.4579 212.131 45.6961 212.285 45.9865C212.438 46.2768 212.502 46.6062 212.469 46.9329C212.435 47.2597 212.305 47.5691 212.096 47.8221C211.886 48.075 211.606 48.2601 211.291 48.3538C210.977 48.4476 210.641 48.4459 210.327 48.3488C210.013 48.2518 209.735 48.0638 209.529 47.8087C209.252 47.4674 209.121 47.0302 209.166 46.593C209.211 46.1558 209.428 45.7543 209.769 45.4765Z" fill="#006930"/>
<path d="M199.302 43.213C199.462 43.0817 199.659 43.0011 199.865 42.9813C200.072 42.9616 200.28 43.0036 200.463 43.1021C200.646 43.2006 200.795 43.3511 200.892 43.5346C200.99 43.718 201.03 43.9263 201.009 44.1329C200.988 44.3394 200.906 44.5351 200.774 44.6951C200.641 44.8551 200.464 44.9722 200.265 45.0316C200.066 45.091 199.854 45.0901 199.656 45.0289C199.457 44.9677 199.282 44.8489 199.151 44.6878C198.977 44.4714 198.896 44.1954 198.924 43.9195C198.952 43.6436 199.088 43.3898 199.302 43.213Z" fill="#E83E4D"/>
<path d="M62.4802 18.7188C62.8635 18.6516 63.2581 18.6995 63.6142 18.8565C63.9703 19.0134 64.2718 19.2724 64.4808 19.6006C64.6898 19.9289 64.7968 20.3117 64.7883 20.7007C64.7798 21.0898 64.6562 21.4676 64.4331 21.7864C64.21 22.1052 63.8975 22.3508 63.5349 22.4921C63.1723 22.6334 62.776 22.664 62.396 22.5802C62.016 22.4963 61.6694 22.3018 61.3999 22.021C61.1305 21.7403 60.9503 21.386 60.882 21.0029C60.8366 20.7479 60.842 20.4865 60.8978 20.2337C60.9536 19.9808 61.0587 19.7414 61.2072 19.5292C61.3557 19.317 61.5445 19.1362 61.763 18.9972C61.9814 18.8581 62.2252 18.7635 62.4802 18.7188Z" fill="#F1951E"/>
<path d="M68.064 12.2162C68.3859 12.1655 68.7157 12.2111 69.0118 12.3472C69.3079 12.4834 69.5572 12.7041 69.7283 12.9815C69.8993 13.2589 69.9845 13.5807 69.9732 13.9065C69.9619 14.2322 69.8546 14.5473 69.6647 14.8122C69.4748 15.0771 69.2108 15.28 68.906 15.3953C68.6011 15.5106 68.269 15.5332 67.9513 15.4603C67.6337 15.3874 67.3446 15.2222 67.1206 14.9855C66.8965 14.7488 66.7475 14.4511 66.6921 14.1299C66.6539 13.9139 66.6593 13.6924 66.7079 13.4785C66.7566 13.2646 66.8474 13.0626 66.9752 12.8843C67.1031 12.706 67.2652 12.5551 67.4522 12.4403C67.6391 12.3256 67.8471 12.2494 68.064 12.2162Z" fill="#006930"/>
<path d="M60.5807 5.93993C60.7852 5.90231 60.9962 5.92628 61.1871 6.00878C61.3779 6.09129 61.5399 6.22862 61.6526 6.40335C61.7653 6.57808 61.8235 6.78234 61.8199 6.99022C61.8163 7.1981 61.751 7.40022 61.6324 7.57095C61.5137 7.74168 61.3471 7.87333 61.1535 7.94918C60.9599 8.02504 60.7482 8.04169 60.5451 7.99703C60.3421 7.95236 60.1569 7.84839 60.013 7.6983C59.8691 7.54821 59.7731 7.35877 59.737 7.15401C59.6908 6.8815 59.7533 6.60174 59.9111 6.37477C60.0688 6.1478 60.3092 5.99168 60.5807 5.93993Z" fill="#E83E4D"/>
<path d="M50.6823 39.166C50.638 39.4587 50.5079 39.7317 50.3084 39.9504C50.1088 40.1691 49.8489 40.3236 49.5614 40.3944C49.274 40.4652 48.972 40.4491 48.6937 40.3481C48.4155 40.2471 48.1734 40.0658 47.9983 39.8271C47.8231 39.5885 47.7228 39.3032 47.7099 39.0075C47.697 38.7117 47.7722 38.4188 47.926 38.1658C48.0797 37.9129 48.3051 37.7112 48.5735 37.5865C48.842 37.4617 49.1414 37.4194 49.4339 37.465C49.8247 37.5258 50.1754 37.739 50.4093 38.0578C50.6433 38.3766 50.7414 38.7751 50.6823 39.166Z" fill="#F1951E"/>
<path d="M54.1327 50.6759C55.0684 50.6759 55.8269 49.9174 55.8269 48.9817C55.8269 48.046 55.0684 47.2875 54.1327 47.2875C53.197 47.2875 52.4385 48.046 52.4385 48.9817C52.4385 49.9174 53.197 50.6759 54.1327 50.6759Z" fill="#3889C8"/>
<path d="M48.4737 52.2946C48.4416 52.4974 48.3305 52.6791 48.1646 52.8C47.9987 52.9208 47.7917 52.971 47.5889 52.9394C47.4243 52.8748 47.2868 52.7558 47.1991 52.6022C47.1114 52.4486 47.0789 52.2697 47.107 52.0951C47.135 51.9205 47.2219 51.7608 47.3532 51.6423C47.4845 51.5239 47.6524 51.454 47.8289 51.4441C48.0249 51.4763 48.2011 51.5824 48.321 51.7407C48.441 51.899 48.4957 52.0973 48.4737 52.2946Z" fill="#F1951E"/>
<path d="M97.1055 199.706C97.3864 200.231 97.5057 200.828 97.4484 201.42C97.3911 202.013 97.1597 202.575 96.7835 203.037C96.4073 203.498 95.9029 203.838 95.3339 204.014C94.765 204.189 94.1568 204.193 93.586 204.023C93.0151 203.854 92.5071 203.52 92.1259 203.062C91.7447 202.605 91.5073 202.045 91.4436 201.453C91.3799 200.861 91.4927 200.263 91.7679 199.735C92.0431 199.207 92.4683 198.772 92.99 198.485C93.3399 198.293 93.7244 198.172 94.1214 198.129C94.5184 198.086 94.9199 198.123 95.3027 198.236C95.6855 198.35 96.042 198.538 96.3514 198.791C96.6609 199.043 96.9172 199.354 97.1055 199.706Z" fill="#E83E4D"/>
<path d="M98.4913 215.88C98.5648 216.018 98.5959 216.174 98.5807 216.329C98.5655 216.484 98.5047 216.631 98.4059 216.752C98.3071 216.873 98.1748 216.961 98.0257 217.007C97.8766 217.052 97.7174 217.052 97.5681 217.007C97.4188 216.963 97.2862 216.874 97.1871 216.754C97.0879 216.634 97.0266 216.487 97.0109 216.332C96.9951 216.177 97.0257 216.02 97.0988 215.883C97.1718 215.745 97.284 215.632 97.4212 215.558C97.5126 215.509 97.6128 215.478 97.7161 215.467C97.8194 215.457 97.9238 215.467 98.0232 215.497C98.1226 215.527 98.2151 215.576 98.2955 215.642C98.3758 215.708 98.4423 215.789 98.4913 215.88Z" fill="#F1951E"/>
<path d="M86.8304 198.232C86.9619 198.47 87.0195 198.742 86.9958 199.013C86.9722 199.284 86.8684 199.543 86.6977 199.755C86.527 199.967 86.297 200.123 86.0371 200.204C85.7772 200.285 85.499 200.287 85.2381 200.209C84.9772 200.132 84.7452 199.978 84.5718 199.768C84.3983 199.558 84.2913 199.302 84.2641 199.031C84.237 198.76 84.2911 198.487 84.4195 198.247C84.548 198.007 84.7449 197.811 84.9853 197.683C85.3033 197.514 85.675 197.477 86.0202 197.579C86.3654 197.682 86.6564 197.916 86.8304 198.232Z" fill="#F1951E"/>
<g style="mix-blend-mode:multiply" opacity="0.3">
<path d="M161.13 238.125C161.13 240.635 135.819 242.672 104.589 242.672C73.3589 242.672 48.0483 240.615 48.0483 238.125C48.0483 235.635 73.3589 233.584 104.589 233.584C135.819 233.584 161.13 235.621 161.13 238.125Z" fill="#326C91"/>
</g>
<g style="mix-blend-mode:multiply" opacity="0.3">
<path d="M104.589 240.69C128.887 240.69 148.584 239.542 148.584 238.125C148.584 236.708 128.887 235.559 104.589 235.559C80.2915 235.559 60.5942 236.708 60.5942 238.125C60.5942 239.542 80.2915 240.69 104.589 240.69Z" fill="#326C91"/>
</g>
<path d="M119.803 63.1802C122.403 64.7885 124.348 67.268 125.29 70.1766C126.737 74.9301 126.737 103.396 126.737 103.396L115.015 105.728C115.015 105.728 112.491 88.9229 111.805 79.8961C111.119 70.8694 114.802 62.6658 119.803 63.1802Z" fill="#C18705"/>
<path d="M137.061 93.6078C137.061 93.6078 132.719 102.861 127.835 107.868C126.12 109.624 124.344 110.852 122.663 110.975C116.181 111.462 115.015 105.728 115.015 105.728C115.015 105.728 115.701 102.086 115.838 101.811C115.975 101.537 127.444 86.3164 127.444 86.3164C128.123 86.0935 128.829 85.9621 129.543 85.9255C135.634 85.6374 137.061 93.6078 137.061 93.6078Z" fill="#EDAA00"/>
<g style="mix-blend-mode:multiply" opacity="0.3">
<path d="M127.835 107.868C126.12 109.624 124.344 110.852 122.663 110.975C116.181 111.462 115.015 105.728 115.015 105.728C115.015 105.728 115.701 102.086 115.838 101.811C115.975 101.537 127.444 86.3164 127.444 86.3164C128.123 86.0935 128.829 85.962 129.543 85.9254L134.344 90.1713C132.842 93.9301 129.756 101.475 126.943 105.152C125.908 106.517 126.504 107.546 127.835 107.868Z" fill="#F1951E"/>
</g>
<path d="M137.068 93.6078C136.137 93.784 135.186 93.8325 134.242 93.7519C129.749 93.3472 128.199 89.6363 127.684 87.6403C127.57 87.2056 127.488 86.7631 127.438 86.3165C127.684 86.241 127.931 86.1724 128.165 86.1244C131.855 85.2739 134.091 87.2219 135.401 89.3414C136.19 90.6608 136.754 92.1028 137.068 93.6078Z" fill="#EDAA00"/>
<path d="M136.327 85.85C135.943 87.4414 135.586 88.6486 135.586 88.6486L135.394 89.3345L134.242 93.7382C129.749 93.3335 128.199 89.6226 127.684 87.6266L128.164 86.1107L128.384 85.4248C128.384 85.4248 125.558 84.2587 124.899 82.1872C124.241 80.1157 121.833 77.0222 123.528 76.6381C123.824 76.5763 124.13 76.5763 124.426 76.6381C125.333 76.91 126.137 77.4505 126.731 78.1883C126.731 78.1883 126.868 72.3374 129.077 72.5431C129.782 72.6564 130.46 72.9031 131.073 73.2702C133.446 74.546 136.45 77.1731 137.068 78.7576C137.093 78.8051 137.112 78.8559 137.123 78.9085C137.514 80.2529 136.889 83.4905 136.327 85.85Z" fill="#93415D"/>
<path d="M136.327 85.8501C135.943 87.4414 135.586 88.6486 135.586 88.6486L135.394 89.3345L134.242 93.7382C129.749 93.3335 128.199 89.6226 127.684 87.6266L128.164 86.1107L128.384 85.4248C128.384 85.4248 125.558 84.2587 124.899 82.1872C124.241 80.1157 121.833 77.0222 123.528 76.6381C123.824 76.5764 124.13 76.5764 124.426 76.6381C125.38 79.0457 125.846 81.6248 127.616 83.5865C129.385 85.5483 133.323 87.1808 136.327 85.8501Z" fill="#55164A"/>
<path d="M137.116 78.881C137.116 78.881 136.43 82.4752 135.497 83.0788C135.471 83.0953 135.443 83.1091 135.414 83.12C134.447 83.559 130.613 81.8647 129.756 79.7658C129.07 78.0099 129.015 75.321 130.201 73.9218C130.433 73.63 130.729 73.3953 131.066 73.2358C133.439 74.5117 136.443 77.1387 137.061 78.7232C137.087 78.7728 137.105 78.826 137.116 78.881Z" fill="#93415D"/>
<path opacity="0.7" d="M137.116 78.881C137.116 78.881 136.43 82.4753 135.497 83.0789C135.867 81.3915 136.265 79.32 136.087 78.9633C135.792 78.346 131.601 74.4843 130.202 73.9424C130.433 73.6506 130.729 73.416 131.066 73.2565C133.439 74.5323 136.444 77.1594 137.061 78.7439C137.085 78.787 137.103 78.8331 137.116 78.881Z" fill="white"/>
<path d="M131.066 73.284C131.066 73.284 130.551 78.2089 130.277 79.8894C130.167 80.5753 129.907 80.9457 129.591 81.0555C129.118 81.2132 128.507 80.8703 127.986 80.3078C127.088 79.3407 127.431 73.0713 128.384 72.7215C128.487 72.6369 128.597 72.5611 128.713 72.4952C129.584 72.0219 130.366 72.2825 131.066 73.284Z" fill="#93415D"/>
<path opacity="0.7" d="M131.066 73.2839C131.066 73.2839 130.551 78.2088 130.277 79.8893C130.167 80.5752 129.906 80.9456 129.591 81.0554C129.666 79.8893 129.886 76.9399 130.078 75.225C130.27 73.5102 129.762 72.5705 128.706 72.4814C129.584 72.0218 130.366 72.2824 131.066 73.2839Z" fill="white"/>
<path d="M134.31 224.941L126.731 225.099L125.112 219.667L120.338 203.712L131.546 202.052L132.424 209.275L134.31 224.941Z" fill="#93415D"/>
<g style="mix-blend-mode:multiply" opacity="0.3">
<path d="M132.424 209.275C129.344 210.242 126.251 211.038 126.251 211.038L125.139 219.667L120.338 203.712L131.553 202.052L132.424 209.275Z" fill="#326C91"/>
</g>
<path d="M150.71 236.348H123.836C123.778 235.254 123.778 234.157 123.836 233.063C123.981 229.527 124.54 226.021 125.503 222.616C125.72 223.118 126.077 223.546 126.53 223.851C126.984 224.156 127.515 224.325 128.061 224.338C128.606 224.425 129.163 224.395 129.696 224.249C130.228 224.104 130.723 223.846 131.148 223.494C132.52 222.122 133.933 220.126 136.299 223.439C136.584 223.82 136.913 224.166 137.28 224.468C137.635 224.755 138.006 225.021 138.391 225.264C138.817 225.531 139.269 225.792 139.763 226.046C140.257 226.3 140.579 226.457 141.012 226.656C141.444 226.855 141.992 227.095 142.486 227.308C142.98 227.521 143.364 227.671 143.803 227.836C146.595 228.947 149.236 229.832 150.031 230.491C150.354 230.834 150.605 231.239 150.77 231.68C150.934 232.122 151.01 232.592 150.992 233.063C151.023 234.165 150.928 235.267 150.71 236.348Z" fill="#01918B"/>
<path d="M150.704 236.341H123.83C123.768 235.23 123.768 234.133 123.83 233.07H150.985C151.022 234.168 150.928 235.266 150.704 236.341Z" fill="#006930"/>
<g style="mix-blend-mode:multiply" opacity="0.3">
<path d="M146.787 236.348H123.836C123.778 235.254 123.778 234.157 123.836 233.063C123.981 229.527 124.54 226.021 125.503 222.616C125.72 223.118 126.077 223.546 126.53 223.851C126.984 224.156 127.515 224.325 128.061 224.338C127.897 226.396 127.766 227.857 128.253 229.386C128.953 231.561 145.182 229.222 146.787 236.348Z" fill="#326C91"/>
</g>
<path d="M138.357 225.257L136.3 227.939L135.188 227.191L137.246 224.448C137.599 224.741 137.97 225.012 138.357 225.257Z" fill="#006930"/>
<path d="M140.977 226.656L138.885 229.359L137.781 228.611L139.729 226.046C140.127 226.251 140.545 226.457 140.977 226.656Z" fill="#006930"/>
<path d="M143.762 227.843L141.492 230.779L140.388 230.031L142.445 227.287L143.762 227.843Z" fill="#006930"/>
<path d="M138.995 204.227C138.465 204.508 137.92 204.76 137.363 204.981C136.487 205.325 135.588 205.609 134.674 205.832C126.168 207.944 115.358 205.832 115.358 205.832C113.698 195.186 111.929 163.99 111.929 163.99L104.329 140.82L106.119 118.493L123.624 121.518L124.666 127.136L138.995 204.227Z" fill="#006930"/>
<path opacity="0.7" d="M138.995 204.226C138.465 204.508 137.92 204.76 137.362 204.981L124.666 127.136L138.995 204.226Z" fill="white"/>
<g style="mix-blend-mode:multiply" opacity="0.3">
<path d="M134.674 205.832C126.168 207.944 115.358 205.832 115.358 205.832C113.698 195.186 111.929 163.99 111.929 163.99L111.243 161.933L104.946 142.631L104.356 140.82L106.146 118.493L123.651 121.518L124.131 124.104L124.694 127.136L111.723 128.398C111.723 128.398 122.979 145.834 122.437 150.19C121.895 154.545 112.992 145.107 112.992 145.107C112.992 145.107 123.521 169.114 123.521 170.541C123.521 171.968 120.777 185.069 120.983 191.427C121.058 194.864 128.164 200.975 134.674 205.832Z" fill="#326C91"/>
</g>
<g style="mix-blend-mode:multiply" opacity="0.3">
<path d="M109.356 127.06C109.487 128.556 117.731 143.886 115.962 142.836C114.192 141.787 110.104 137.863 110.104 139.839C110.104 141.499 110.968 156.987 111.243 161.905L104.946 142.631L106.146 139.304V118.493L123.651 121.518L124.131 124.104C117.176 125.126 109.274 126.169 109.356 127.06Z" fill="#326C91"/>
</g>
<path d="M81.2402 205.674L75.6568 224.352L74.8268 224.338L69.0376 224.214L70.965 208.28L71.452 204.227L81.2402 205.674Z" fill="#93415D"/>
<g style="mix-blend-mode:multiply" opacity="0.3">
<path d="M81.2405 205.674L75.657 224.351H74.8271L76.2744 209.892C74.4526 209.561 72.6724 209.032 70.9653 208.315L71.4523 204.261L81.2405 205.674Z" fill="#326C91"/>
</g>
<path d="M77.653 223.837L77.5433 229.18L77.4678 232.83C77.4678 232.83 71.4728 240.944 67.7963 243.372C66.3961 244.189 64.8008 244.611 63.18 244.593C59.4966 244.696 55.5183 243.29 55.2371 240.841C55.2059 240.515 55.2291 240.186 55.3056 239.867C56.1356 236.396 62.8508 231.876 67.9403 222.143C69.4431 220.932 71.3529 220.343 73.2768 220.497C73.8809 220.536 74.472 220.69 75.0191 220.949C76.2186 221.56 77.1548 222.587 77.653 223.837Z" fill="#01918B"/>
<path d="M72.3783 227.994C71.5098 227.403 70.5256 227.003 69.4909 226.82C68.4562 226.638 67.3946 226.678 66.3765 226.937L67.0624 225.744C68.0811 225.487 69.1428 225.448 70.1774 225.632C71.212 225.815 72.1959 226.216 73.0642 226.807L72.3783 227.994Z" fill="#006930"/>
<path d="M70.6498 230.854C69.8368 230.191 68.8925 229.709 67.8792 229.438C66.8659 229.167 65.8067 229.114 64.7715 229.283L65.5397 228.158C66.576 227.989 67.6363 228.042 68.6507 228.313C69.6652 228.584 70.6107 229.066 71.4249 229.729L70.6498 230.854Z" fill="#006930"/>
<path d="M68.5921 233.536C67.7953 232.857 66.8636 232.356 65.8586 232.063C64.8536 231.771 63.7981 231.696 62.7617 231.842L63.5505 230.731C64.5898 230.579 65.6493 230.65 66.6591 230.939C67.6688 231.227 68.6059 231.727 69.4083 232.404L68.5921 233.536Z" fill="#006930"/>
<path d="M77.543 229.18L77.4676 232.83C77.4676 232.83 71.4726 240.944 67.8029 243.372C64.1332 245.8 55.6484 244.456 55.2368 240.841C55.2021 240.515 55.2253 240.185 55.3054 239.867C58.1979 241.672 61.6398 242.385 65.0112 241.877C69.9636 240.985 73.7224 234.832 77.543 229.18Z" fill="#006930"/>
<g style="mix-blend-mode:multiply" opacity="0.3">
<path d="M77.6531 223.837L77.5434 229.18L77.4679 232.83C77.4679 232.83 71.473 240.944 67.7964 243.372C66.3962 244.189 64.801 244.611 63.1802 244.593C63.1802 242.967 63.4202 241.095 64.2639 240.258C65.8964 238.626 72.5773 233.111 73.3936 230.113C73.9766 227.973 74.5596 223.679 75.0192 220.949C76.2187 221.56 77.155 222.587 77.6531 223.837Z" fill="#326C91"/>
</g>
<path d="M106.119 118.493V139.304L97.7094 162.625L91.3715 205.777C87.0796 207.519 82.3965 208.069 77.8177 207.368C74.6987 206.943 71.6525 206.094 68.7635 204.844C67.9678 204.501 67.522 204.261 67.522 204.261L77.0357 158.77L81.6588 131.135L82.4134 126.635L83.6823 119.179L106.119 118.493Z" fill="#006930"/>
<path opacity="0.7" d="M81.6588 131.1C80.4859 141.183 78.0029 162.55 77.7285 165.451C77.4336 168.559 71.0888 195.138 68.7635 204.81C67.9678 204.467 67.522 204.227 67.522 204.227L77.0357 158.736L81.6588 131.1Z" fill="white"/>
<g style="mix-blend-mode:multiply" opacity="0.3">
<path d="M106.119 118.493V139.304L104.946 142.631L101.276 152.796L97.7371 162.598L91.3717 205.777C87.0798 207.519 82.3967 208.069 77.8179 207.368C84.4988 194.582 89.897 177.112 89.897 177.112C89.897 177.112 84.2655 180.384 85.5414 174.931C86.8172 169.478 98.615 139.599 97.888 139.599C97.1609 139.599 85.9941 142.967 86.0832 141.423C86.1724 139.88 102.34 128.158 101.791 128.075C101.434 128.014 89.9861 127.389 82.4136 126.635L83.0034 123.109L83.6551 119.213L106.119 118.493Z" fill="#326C91"/>
</g>
<g style="mix-blend-mode:multiply" opacity="0.3">
<path d="M106.119 118.493V139.304L104.946 142.631L101.276 152.796C102.593 145.937 104.089 138.001 103.938 137.96C103.663 137.891 99.4312 138.296 99.7741 136.8C100.117 135.305 105.57 126.717 104.816 126.175C104.061 125.633 88.6485 124.248 83.0308 123.075L83.6824 119.179L106.119 118.493Z" fill="#326C91"/>
</g>
<path d="M119.577 60.6218C119.263 60.9929 118.896 61.3144 118.486 61.5752C116.899 62.5056 115.076 62.9559 113.239 62.8716C106.517 62.8716 107.065 52.2741 108.581 46.4095C109.5 42.9456 111.785 43.1651 113.486 43.9264C113.712 44.0225 113.931 44.1391 114.172 44.242C114.664 44.5448 115.13 44.889 115.564 45.2708C115.043 50.182 117.162 53.3373 119.494 55.9712C120.083 56.598 120.417 57.4211 120.432 58.2806C120.447 59.1401 120.142 59.9746 119.577 60.6218Z" fill="#262626"/>
<g style="mix-blend-mode:multiply" opacity="0.3">
<path d="M118.486 61.5752C116.899 62.5056 115.076 62.9559 113.239 62.8716C106.517 62.8716 107.065 52.2741 108.581 46.4095C109.5 42.9456 111.785 43.1651 113.486 43.9264C113.712 44.0225 113.931 44.1391 114.172 44.242C111.935 51.0257 118.822 59.7232 115.447 56.8081C112.141 54.0026 111.119 59.49 118.486 61.5752Z" fill="#326C91"/>
</g>
<path opacity="0.7" d="M119.577 60.6218C120.187 58.8178 119.021 57.0207 116.915 54.3181C115.05 51.938 113.602 48.9542 113.486 43.9539C114.225 44.2928 114.916 44.7262 115.544 45.2434C115.022 50.1546 117.142 53.3098 119.474 55.9438C120.073 56.5695 120.416 57.3969 120.435 58.2628C120.454 59.1287 120.148 59.9703 119.577 60.6218Z" fill="white"/>
<path d="M126.244 122.629C96.4677 126.903 79.793 121.799 79.793 121.799C79.793 121.799 80.2525 119.618 80.9179 116.422C82.6738 108.033 85.8565 92.6338 85.8565 91.3374C85.8565 89.5403 84.7522 62.6659 84.7522 62.6659L85.0951 62.515C85.8291 62.1994 87.6605 61.4312 90.0338 60.5395C94.1018 58.9643 98.3027 57.7569 102.586 56.9316C103.846 56.7903 105.121 56.888 106.345 57.2196C106.976 57.3705 107.621 57.5557 108.286 57.7684C113.705 59.5243 119.803 63.1872 119.803 63.1872C119.803 63.1872 123.795 72.9616 124.042 77.9688C124.076 79.2047 123.895 80.4372 123.507 81.611C122.906 83.3664 122.165 85.0707 121.291 86.7075C120.194 88.9298 119.234 90.9396 119.295 92.5104C119.357 94.0811 120.667 99.8292 122.149 105.934C124.056 114.028 126.244 122.629 126.244 122.629Z" fill="#EDAA00"/>
<g style="mix-blend-mode:multiply" opacity="0.3">
<path d="M119.782 95.549C120.31 98.1692 121.188 102.003 122.135 105.961L115.413 104.589L107.182 107.127C107.182 107.127 104.555 114.48 103.19 115.118C101.564 115.564 86.563 116.182 80.9521 116.401C82.0771 111.023 83.7919 102.765 84.8688 97.1952C85.4792 94.0674 85.8908 91.7833 85.8908 91.3237C85.8908 89.5266 84.7865 62.6521 84.7865 62.6521L85.1294 62.5012C86.6727 66.3355 93.4222 82.098 101.009 84.6154C107.552 86.776 117.944 85.5894 123.541 81.5904C122.252 85.754 119.158 89.8215 119.316 92.524C119.416 93.5402 119.571 94.55 119.782 95.549Z" fill="#F1951E"/>
</g>
<path opacity="0.7" d="M124.042 77.9619C124.076 79.1978 123.895 80.4303 123.507 81.6042C122.906 83.3595 122.165 85.0638 121.291 86.7006C121.977 84.9172 123.349 80.9388 123.253 78.3598C123.109 74.9301 119.227 64.463 118.774 63.8799C118.321 63.2969 106.38 57.3842 106.38 57.3842L106.345 57.2128C112.128 58.5846 119.803 63.1803 119.803 63.1803C119.803 63.1803 123.795 72.9547 124.042 77.9619Z" fill="white"/>
<g style="mix-blend-mode:multiply" opacity="0.3">
<path d="M122.135 105.961L115.413 104.589L107.182 107.127C107.182 107.127 104.555 114.48 103.19 115.118C101.564 115.564 86.563 116.181 80.9521 116.401C82.0771 111.023 83.7919 102.765 84.8688 97.1951C95.0136 97.7095 110.934 96.3994 119.817 95.5352C120.31 98.1691 121.188 102.003 122.135 105.961Z" fill="#F1951E"/>
</g>
<path d="M103.464 53.9821C99.8222 53.9341 98.5533 56.5132 98.6081 59.5106C98.7753 61.7395 99.318 63.924 100.213 65.972C100.213 65.972 103.931 64.4219 104.452 64.4767C104.974 64.5316 109.501 67.2204 109.501 67.2204C109.501 67.2204 111.997 64.7922 112.148 64.7922C112.299 64.7922 116.806 66.2395 116.806 66.2395C116.806 66.2395 111.531 54.085 103.464 53.9821Z" fill="white"/>
<g style="mix-blend-mode:multiply" opacity="0.3">
<path d="M108.286 57.7615C107.689 61.0471 105.961 65.2038 101.111 65.6908C95.3016 66.2807 90.1366 63.5644 90.0337 60.5395C94.1017 58.9643 98.3026 57.7569 102.586 56.9316C103.846 56.7903 105.121 56.888 106.345 57.2196C107.003 57.3637 107.621 57.5489 108.286 57.7615Z" fill="#F1951E"/>
</g>
<path d="M105.79 22.6354C105.79 23.5941 105.409 24.5135 104.731 25.1914C104.053 25.8693 103.134 26.2502 102.175 26.2502C101.216 26.2502 100.297 25.8693 99.6189 25.1914C98.941 24.5135 98.5602 23.5941 98.5602 22.6354C98.5565 22.1557 98.6482 21.6801 98.8299 21.2362C99.0115 20.7923 99.2796 20.3889 99.6184 20.0494C99.9573 19.7099 100.36 19.4411 100.804 19.2586C101.247 19.0761 101.723 18.9835 102.202 18.9863C103.022 18.986 103.817 19.2642 104.458 19.7752C105.098 20.2861 105.546 20.9996 105.728 21.7985C105.782 22.074 105.803 22.355 105.79 22.6354Z" fill="#757575"/>
<path d="M105.789 22.6354C105.789 23.5941 105.409 24.5136 104.731 25.1915C104.053 25.8694 103.133 26.2502 102.175 26.2502C101.216 26.2502 100.296 25.8694 99.6186 25.1915C98.9407 24.5136 98.5598 23.5941 98.5598 22.6354C98.5537 22.1151 98.6617 21.5999 98.8762 21.1258C99.0907 20.6518 99.4065 20.2305 99.8013 19.8917C99.4515 23.6437 103.759 24.0073 105.7 21.8123C105.763 22.0821 105.793 22.3585 105.789 22.6354Z" fill="#262626"/>
<path d="M109.322 57.4596C109.219 58.317 110.324 63.9347 109.501 67.2134L101.125 56.0466L103.478 45.8607L104.013 43.5354L111.462 47.1571C111.462 47.1571 110.571 51.2726 109.94 54.3387C109.617 55.8957 109.363 57.1715 109.322 57.4596Z" fill="#93415D"/>
<path d="M111.462 47.1571C111.462 47.1571 110.57 51.2726 109.939 54.3387C106.709 52.5827 104.226 49.9419 103.478 45.8607L104.013 43.5354L111.462 47.1571Z" fill="#55164A"/>
<path d="M117.148 44.7495C117.084 46.1303 116.481 47.4307 115.468 48.3711C114.289 49.3026 112.801 49.7514 111.304 49.6264C108.65 49.5441 105.817 48.2065 104.671 46.4711C102.264 42.8838 101.845 28.6372 108.876 26.9635C109.439 26.8263 109.96 26.7303 110.454 26.6548C112.752 26.3256 114.377 26.6548 115.495 27.1899C116.097 27.4444 116.619 27.8565 117.007 28.3828C117.394 28.9091 117.633 29.5301 117.697 30.1805C117.773 35.0431 117.59 39.9063 117.148 44.7495Z" fill="#93415D"/>
<path d="M111.304 49.6265C108.65 49.5441 105.817 48.2066 104.671 46.4712C102.264 42.8838 101.845 28.6372 108.876 26.9636C109.439 26.8264 109.96 26.7304 110.454 26.6549C106.722 34.008 106.036 41.2102 107.106 45.5315C107.443 46.8965 109.061 48.3026 111.304 49.6265Z" fill="#55164A"/>
<path opacity="0.7" d="M115.468 48.3712C117.08 42.0402 116.291 32.9586 115.468 27.1899C116.075 27.4406 116.603 27.851 116.995 28.3776C117.388 28.9041 117.63 29.5272 117.697 30.1806C117.772 35.0363 117.589 39.8927 117.148 44.729C117.09 46.117 116.486 47.4258 115.468 48.3712Z" fill="white"/>
<path d="M117.979 33.1712H115.619C115.905 31.7895 115.762 30.3532 115.207 29.0556C115.084 28.8019 115.002 28.6715 115.002 28.6715C115.002 28.6715 115.002 28.8156 115.002 29.0625C115.002 30.1531 114.666 33.178 112.381 33.2946C109.597 33.425 106.558 32.8762 105.975 33.8434C105.392 34.8105 104.672 39.0976 104.672 39.0976C102.003 45.7098 105.742 51.2384 107.909 56.2045C108.314 57.0246 108.476 57.9432 108.376 58.8521C107.902 62.0142 103.279 63.4752 97.2226 62.7687C89.6774 61.8908 89.7803 57.1305 92.1056 52.8434L92.8944 51.3961C95.3681 47.1058 96.6493 42.232 96.6053 37.2799C96.6533 33.8502 97.2912 30.4206 99.006 27.7935C99.6094 26.8616 100.374 26.0441 101.263 25.3791C103.32 23.8358 106.174 23.047 110.084 23.4722C116.209 24.1582 118.479 27.3751 119.309 29.9336C119.421 30.2658 119.51 30.6049 119.577 30.9488C119.577 31.0585 119.625 31.1614 119.639 31.2575C119.674 31.4955 119.658 31.7385 119.591 31.9697C119.523 32.2008 119.407 32.4147 119.249 32.5966C119.092 32.7784 118.896 32.924 118.677 33.0232C118.458 33.1223 118.219 33.1728 117.979 33.1712Z" fill="#262626"/>
<g style="mix-blend-mode:multiply" opacity="0.3">
<path d="M115.008 29.0419C115.008 30.1326 114.672 33.1575 112.388 33.2741C109.603 33.4044 106.565 32.8557 105.982 33.8228C105.398 34.79 104.671 39.0976 104.671 39.0976C102.003 45.7099 105.741 51.2384 107.909 56.2045C108.313 57.0246 108.475 57.9432 108.375 58.8521C106.722 56.8944 105.196 54.8324 103.807 52.6788C101.441 49.1806 100.378 57.8987 100.378 57.8987C100.378 57.8987 99.7876 51.9037 98.6078 51.3207C97.4281 50.7377 94.019 57.1236 94.019 57.1236C94.019 57.1236 94.3894 54.3799 94.4717 52.0889C94.5129 51.1561 93.7858 51.1012 92.8735 51.403C95.3472 47.1127 96.6285 42.2389 96.5844 37.2867C96.6324 33.8571 97.2703 30.4275 98.9851 27.8004C97.3595 33.5553 98.6559 35.908 98.6559 35.908C98.6559 35.908 99.1086 31.8748 100.288 29.9131L103.238 30.0091C103.238 30.0091 103.108 31.8748 103.19 34.1864L104.946 29.4946C104.946 29.4946 110.214 29.9542 113.801 29.2203C114.2 29.1404 114.603 29.0809 115.008 29.0419Z" fill="#326C91"/>
</g>
<g style="mix-blend-mode:multiply" opacity="0.3">
<path d="M117.979 33.1711H115.619C115.905 31.7894 115.762 30.3532 115.208 29.0556C116.751 28.9664 117.334 29.4877 119.323 29.9267C119.467 30.3612 119.577 30.806 119.652 31.2574C119.688 31.4966 119.672 31.7408 119.604 31.973C119.536 32.2051 119.418 32.4197 119.259 32.6018C119.099 32.7839 118.902 32.9291 118.681 33.0275C118.46 33.1258 118.221 33.1748 117.979 33.1711Z" fill="#326C91"/>
</g>
<path opacity="0.7" d="M119.577 30.9213C119.529 30.8253 119.481 30.7224 119.44 30.6195C116.23 23.2801 106.146 24.3433 101.263 25.3516C103.32 23.8083 106.174 23.0195 110.084 23.4448C116.209 24.1307 118.479 27.3477 119.309 29.9062C119.421 30.2383 119.51 30.5774 119.577 30.9213Z" fill="white"/>
<path d="M104.822 38.7545C104.822 38.7545 104.431 35.9559 101.743 36.2989C99.0538 36.6419 99.3556 43.2542 104.006 42.7054L104.822 38.7545Z" fill="#93415D"/>
<path d="M136.224 82.9349L135.298 84.0666L127.622 93.4775L120.235 91.9204L125.955 84.7182L128.871 81.0554L136.224 82.9349Z" fill="#006D6C"/>
<g style="mix-blend-mode:multiply" opacity="0.3">
<path d="M135.298 84.0667L127.622 93.4775L120.235 91.9136L125.955 84.7114C125.654 86.2753 123.815 88.6006 127.197 88.2988C131.011 87.9695 132.492 85.7746 135.298 84.0667Z" fill="#326C91"/>
</g>
<path d="M128.507 79.9236L128.871 81.0554L136.224 82.9348L135.854 81.803L128.507 79.9236Z" fill="#259B99"/>
<path d="M119.865 90.7817L120.228 91.9204L128.871 81.0554L128.507 79.9236L119.865 90.7817Z" fill="#EDAA00"/>
<path d="M130.97 90.6995L130.544 91.4815L130.359 91.8107C129.922 92.2105 129.405 92.5142 128.843 92.7024L128.336 92.9562L124.529 98.4436C124.091 99.072 123.485 99.5643 122.78 99.864C122.075 100.164 121.3 100.259 120.544 100.138L115.866 99.3833C115.866 99.3833 102.367 103.794 102.387 103.609C102.408 103.423 105.007 93.2168 105.007 93.2168L108.917 93.0042L113.787 92.7436L119.103 88.628C119.419 88.3771 119.795 88.2138 120.194 88.1547L122.21 87.8804L120.338 91.5912L130.064 89.6295C130.204 89.6043 130.348 89.6163 130.482 89.6643C130.615 89.7124 130.734 89.7948 130.826 89.9032C130.917 90.0116 130.979 90.1423 131.004 90.2821C131.03 90.4219 131.018 90.5658 130.97 90.6995Z" fill="#93415D"/>
<path d="M130.544 91.4814L130.359 91.8107C129.922 92.2105 129.405 92.5142 128.843 92.7024L128.336 92.9562L124.529 98.4436C124.091 99.072 123.485 99.5643 122.78 99.864C122.075 100.164 121.3 100.259 120.544 100.138L115.866 99.3833C115.866 99.3833 102.367 103.794 102.387 103.609C102.408 103.423 105.007 93.2168 105.007 93.2168L108.917 93.0042L107.689 97.4764L115.996 95.8919C115.996 95.8919 120.722 97.1609 121.634 97.1609C122.546 97.1609 126.484 92.1605 126.484 92.1605L130.544 91.4814Z" fill="#55164A"/>
<path d="M107.463 91.6048L106.942 93.5597L105.303 99.6987L102.525 110.097C102.525 110.097 100.68 110.228 97.9496 110.392C92.4622 110.715 83.3806 111.147 78.4351 110.763C71.0271 110.18 66.4657 109.185 65.6632 104.047C65.5123 103.073 65.8141 101.036 66.4657 98.3612C66.9665 96.3034 67.6798 93.8272 68.5235 91.1795C72.4401 79.1347 79.4983 63.2762 84.5672 62.604C85.3523 62.4625 86.1619 62.6191 86.8376 63.043C92.5377 66.9528 84.6358 92.2976 84.6358 92.2976L103.087 91.7146L107.463 91.6048Z" fill="#EDAA00"/>
<path opacity="0.7" d="M86.8787 63.1048C79.3336 62.5904 72.2068 82.2146 68.5303 91.2276C72.4469 79.1828 79.505 63.3243 84.574 62.6521C85.3591 62.5106 86.1687 62.6672 86.8444 63.0911C86.8569 63.0925 86.8687 63.0972 86.8787 63.1048Z" fill="white"/>
<path d="M107.47 91.6049L102.525 110.09C102.525 110.09 100.68 110.228 97.9565 110.392L103.128 91.742L107.47 91.6049Z" fill="white"/>
<g style="mix-blend-mode:multiply" opacity="0.3">
<path d="M105.303 99.6988L102.525 110.097C102.525 110.097 100.68 110.228 97.9496 110.392C92.4622 110.715 83.3806 111.147 78.4351 110.763C71.0271 110.18 66.4657 109.185 65.6632 104.048C65.5123 103.074 65.8141 101.036 66.4657 98.3613C70.5127 100.735 79.6355 95.3707 80.4037 95.7342C81.4257 96.2075 76.2882 101.311 75.8492 103.218C75.4102 105.124 84.7662 98.6562 86.5358 99.205C87.7979 99.5891 97.8398 99.7674 105.303 99.6988Z" fill="#F1951E"/>
</g>
<path opacity="0.7" d="M107.463 91.6049L106.942 93.5598L81.5625 93.6833C81.5625 93.6833 88.5726 77.4063 88.0993 68.3453C88.0306 66.5122 87.6017 64.7106 86.8372 63.0431C92.6059 66.8843 84.6697 92.3251 84.6697 92.3251L103.121 91.7421L107.463 91.6049Z" fill="white"/>
<path d="M147.432 5.48732C139.455 1.46095 130.325 3.01114 125.366 8.71802L124.954 8.50538L123.336 11.7361C119.275 19.8368 123.473 30.16 132.719 34.7968C141.965 39.4336 152.755 36.6282 156.815 28.5275L158.448 25.2968L158.036 25.091C159.628 17.7036 155.409 9.46567 147.432 5.48732Z" fill="#F1951E"/>
<path d="M157.673 20.8451L157.515 20.7628C157.515 20.8794 157.515 20.996 157.515 21.1126L157.673 20.8451Z" fill="white" stroke="#221F20" stroke-width="0.480146" stroke-miterlimit="10"/>
<g style="mix-blend-mode:multiply" opacity="0.3">
<path d="M140.093 36.2029C144.023 36.6316 147.981 35.6943 151.301 33.5484L157.536 21.1126C157.536 20.996 157.536 20.8794 157.536 20.7628L149.799 16.8873L140.093 36.2029Z" fill="#F1951E"/>
</g>
<g style="mix-blend-mode:multiply" opacity="0.3">
<path d="M142.452 17.0793L133.754 34.4743C135.413 35.2413 137.169 35.7745 138.974 36.0588L147.281 19.4869L142.452 17.0793Z" fill="#F1951E"/>
</g>
<g style="mix-blend-mode:multiply" opacity="0.3">
<path d="M138.46 16.0574L130.229 32.4509C131.051 33.0412 131.916 33.5708 132.815 34.0354L141.163 17.4086L138.46 16.0574Z" fill="#F1951E"/>
</g>
<g style="mix-blend-mode:multiply" opacity="0.3">
<path d="M136.018 14.8296L128.082 30.6538C128.452 31.0105 128.843 31.3397 129.248 31.6964L137.369 15.5087L136.018 14.8296Z" fill="#F1951E"/>
</g>
<path d="M158.424 25.2864C162.486 17.1862 158.284 6.86183 149.039 2.22631C139.794 -2.40922 129.007 0.399486 124.945 8.49972C120.884 16.6 125.086 26.9243 134.331 31.5599C143.575 36.1954 154.362 33.3867 158.424 25.2864Z" fill="#FFC77C"/>
<g style="mix-blend-mode:multiply" opacity="0.3">
<path d="M148.701 2.94248C157.488 7.3461 161.493 17.196 157.618 24.892C154.984 30.153 149.339 33.0682 143.213 32.9859C145.502 31.614 147.356 29.6239 148.564 27.2447C152.425 19.5418 148.413 9.69196 139.647 5.2952C136.996 3.94883 134.073 3.224 131.1 3.1757C135.984 0.226228 142.672 -0.0687184 148.701 2.94248Z" fill="#F1951E"/>
</g>
<path d="M147.082 6.17326C153.852 9.60287 156.932 17.148 153.941 23.0675C153.735 23.4891 153.506 23.899 153.255 24.2953C149.826 29.2683 142.61 30.8116 136.327 27.6632C130.044 24.5148 126.895 17.7585 128.885 12.0722C129.039 11.6217 129.222 11.1818 129.433 10.7552C132.383 4.80141 140.312 2.74365 147.082 6.17326Z" fill="#F1951E"/>
<path d="M145.806 8.70432C152.089 11.8527 155.19 18.5816 153.235 24.2816C152.594 25.2239 151.807 26.0576 150.903 26.7509C148.751 28.3649 146.143 29.2537 143.454 29.2889C140.97 29.3409 138.511 28.7827 136.293 27.6632C130.03 24.4943 126.896 17.7585 128.885 12.0722C132.28 7.09241 139.523 5.55594 145.806 8.70432Z" fill="#F3B652"/>
<path d="M143.848 23.6329L142.44 25.0482L134.229 16.8797L135.648 15.4532L145.299 17.3888L139.481 11.6005L140.889 10.1852L149.1 18.3537L147.692 19.769L138.029 17.8446L143.848 23.6329Z" fill="#FFDEAC"/>
<path d="M137.63 22.7211L146.698 13.606L147.675 14.5776L138.607 23.6927L137.63 22.7211Z" fill="#FFDEAC"/>
<path d="M135.677 20.778L144.745 11.6629L145.721 12.6345L136.653 21.7496L135.677 20.778Z" fill="#FFDEAC"/>
<g style="mix-blend-mode:multiply" opacity="0.3">
<path d="M145.457 9.41078C151.767 12.5729 154.655 19.6585 151.877 25.187C151.602 25.7376 151.276 26.2612 150.903 26.7509C148.751 28.3649 146.143 29.2536 143.454 29.2888C144.101 28.5985 144.644 27.8175 145.066 26.9704C147.844 21.435 144.956 14.3563 138.645 11.1942C136.786 10.2567 134.745 9.73696 132.664 9.67143C136.197 7.46276 141.08 7.21583 145.457 9.41078Z" fill="#F1951E"/>
</g>
<path d="M52.9802 71.1575C51.7803 68.0114 50.2538 64.9997 48.4256 62.172L44.7628 52.6925L38.5895 55.0727C34.6798 56.5817 34.7689 66.2326 38.7953 76.6312C42.8217 87.0298 49.2419 94.2251 53.1517 92.7161L59.2907 90.3428L55.621 80.8633C55.0788 77.5454 54.1938 74.2928 52.9802 71.1575Z" fill="#F1951E"/>
<g style="mix-blend-mode:multiply" opacity="0.3">
<path d="M54.0711 77.4062C54.3798 78.6341 54.6267 79.8344 54.8119 80.9936V81.0897L57.7065 88.5799L50.1613 91.4882C47.7949 90.2399 44.8317 86.9063 42.1909 81.9951L54.0711 77.4062Z" fill="#F1951E"/>
</g>
<g style="mix-blend-mode:multiply" opacity="0.3">
<path d="M52.1779 71.4662C52.5825 72.5089 52.9461 73.5652 53.2753 74.6078L40.9287 79.4092C40.476 78.4352 40.0439 77.4063 39.6255 76.3432C39.3168 75.5338 39.0287 74.7312 38.7681 73.9493L51.2038 69.1478C51.5468 69.8886 51.8692 70.65 52.1779 71.4662Z" fill="#F1951E"/>
</g>
<g style="mix-blend-mode:multiply" opacity="0.3">
<path d="M50.2709 67.138L38.1232 71.8366C37.8145 70.7734 37.5676 69.7788 37.3618 68.7568L48.7618 64.3463C49.2831 65.2312 49.7907 66.1709 50.2709 67.138Z" fill="#F1951E"/>
</g>
<g style="mix-blend-mode:multiply" opacity="0.3">
<path d="M47.0334 60.9442L47.6508 62.5493L36.9847 66.6648C36.8886 66.0612 36.8132 65.4713 36.7583 64.9088L47.0334 60.9442Z" fill="#F1951E"/>
</g>
<path d="M59.1191 68.7843C63.1386 79.176 63.2347 88.8269 59.3249 90.3428C55.4152 91.8587 48.9881 84.6497 44.9686 74.2511C40.949 63.8525 40.853 54.2084 44.7628 52.6925C48.6725 51.1766 55.0996 58.3857 59.1191 68.7843Z" fill="#FFC77C"/>
<path d="M56.7599 69.6897C59.4419 76.6244 59.5036 83.0583 56.8971 84.0941C56.4701 84.2494 56.0059 84.2709 55.5664 84.1558C52.9873 83.5453 49.5852 79.2172 47.3353 73.3731C45.0855 67.529 44.6739 62.0279 46.1693 59.8467C46.4141 59.463 46.7708 59.1637 47.1913 58.9893C49.7978 57.9604 54.0779 62.7619 56.7599 69.6897Z" fill="#F3B652"/>
<path d="M51.8445 76.785L51.0374 77.173L46.7045 68.1604L47.5181 67.7693L52.7856 73.0995L49.7152 66.713L50.5224 66.325L54.8552 75.3376L54.0481 75.7256L48.7742 70.3985L51.8445 76.785Z" fill="#FFDEAC"/>
<path d="M48.4432 73.5811L53.6415 71.082L54.1569 72.154L48.9586 74.6531L48.4432 73.5811Z" fill="#FFDEAC"/>
<path d="M47.4125 71.4372L52.6108 68.9381L53.1261 70.0101L47.9278 72.5092L47.4125 71.4372Z" fill="#FFDEAC"/>
<path d="M56.7596 69.6897C59.4416 76.6244 59.5033 83.0583 56.8968 84.0941C56.4698 84.2494 56.0056 84.2709 55.5661 84.1558C57.0614 81.9746 56.6636 76.4803 54.4 70.6363C52.1365 64.7922 48.7343 60.4572 46.1689 59.8467C46.4138 59.463 46.7705 59.1637 47.191 58.9893C49.7975 57.9604 54.0776 62.7619 56.7596 69.6897Z" fill="#F1951E"/>
<path d="M147.333 185.133C144.966 185.133 143.433 183.489 143.433 180.945C143.433 178.423 145.022 176.745 147.399 176.745C149.321 176.745 150.755 177.867 151.032 179.612H149.532C149.255 178.667 148.444 178.112 147.366 178.112C145.866 178.112 144.922 179.201 144.922 180.934C144.922 182.656 145.877 183.767 147.366 183.767C148.466 183.767 149.31 183.189 149.577 182.289H151.055C150.743 184 149.255 185.133 147.333 185.133Z" fill="white"/>
<path d="M152.683 185H151.205L154.138 176.879H155.593L158.526 185H157.027L156.371 183.122H153.338L152.683 185ZM154.682 179.301L153.76 181.923H155.96L155.027 179.301C154.96 179.089 154.882 178.845 154.86 178.678C154.827 178.834 154.76 179.078 154.682 179.301Z" fill="white"/>
<path d="M160.967 185H159.545V176.879H162.645C164.489 176.879 165.566 177.812 165.566 179.412C165.566 180.5 165.055 181.278 164.1 181.667L165.644 185H164.089L162.711 181.967H160.967V185ZM160.967 178.145V180.712H162.645C163.544 180.712 164.078 180.234 164.078 179.412C164.078 178.601 163.544 178.145 162.645 178.145H160.967Z" fill="white"/>
<path d="M166.91 182.034V176.879H168.333V181.945C168.333 183.111 168.966 183.756 170.121 183.756C171.277 183.756 171.921 183.1 171.921 181.945V176.879H173.343V182.034C173.343 183.933 172.099 185.133 170.121 185.133C168.155 185.133 166.91 183.945 166.91 182.034Z" fill="white"/>
<path d="M174.626 179.145C174.626 177.723 175.803 176.734 177.514 176.734C179.159 176.734 180.203 177.645 180.247 179.112H178.825C178.792 178.412 178.292 178.001 177.492 178.001C176.614 178.001 176.048 178.423 176.048 179.101C176.048 179.678 176.359 180 177.037 180.156L178.314 180.434C179.703 180.734 180.381 181.445 180.381 182.656C180.381 184.167 179.203 185.144 177.414 185.144C175.681 185.144 174.548 184.222 174.515 182.767H175.937C175.948 183.456 176.503 183.867 177.414 183.867C178.359 183.867 178.959 183.456 178.959 182.778C178.959 182.234 178.681 181.911 178.014 181.767L176.726 181.478C175.348 181.178 174.626 180.389 174.626 179.145Z" fill="white"/>
</svg>
