<svg width="10" height="16" viewBox="0 0 10 16" fill="none" xmlns="http://www.w3.org/2000/svg">
<g clip-path="url(#clip0_1779_4676)">
<path d="M5.00144 15.9999C2.90193 15.9999 0.649986 15.5638 0.606845 14.7599V14.6573C0.606845 13.1465 0.569456 7.99279 0.0891573 4.96553C0.0575282 4.91155 0.0388327 4.85108 0.0345125 4.7888C0.0345125 4.76885 0.0345125 4.71469 0.0345125 4.65483C0.0345125 4.59496 0 4.48949 0 4.45814C0 4.2301 0.161058 4.02486 0.517688 3.84813C0.211166 3.43554 0.0486156 2.9352 0.0546448 2.42286C0.0713215 2.24196 0.132473 2.06786 0.232748 1.9158C0.333024 1.76374 0.469368 1.63835 0.629853 1.5506C0.555007 1.46307 0.490367 1.36745 0.437158 1.26555C0.36041 1.13788 0.313586 0.994747 0.300145 0.846731C0.286704 0.698714 0.306991 0.549596 0.359505 0.410393C0.401872 0.335169 0.460889 0.270439 0.532122 0.221068C0.603355 0.171696 0.684951 0.138968 0.770779 0.125341L1.25108 -8.21974e-05C1.28649 -0.00290229 1.32208 -0.00290229 1.35749 -8.21971e-05C1.52868 0.00400052 1.69322 0.0664136 1.82341 0.17665C1.97974 0.303335 2.10552 0.46306 2.19154 0.644136C2.23727 0.724462 2.27393 0.809542 2.30083 0.897833L2.36698 1.14013C2.87343 1.15227 3.37098 1.27476 3.82429 1.49891C4.2776 1.72307 4.67557 2.04338 4.98993 2.43712C5.2251 2.74068 5.51111 3.00197 5.83549 3.20961C7.84872 3.28942 9.42192 3.64574 9.86195 4.12178C9.90866 4.16676 9.94533 4.22095 9.96961 4.28085C9.99388 4.34075 10.0052 4.40503 10.0029 4.46954C9.99963 4.53068 9.99291 4.59159 9.98274 4.65197C9.98274 4.71184 9.98274 4.76885 9.96836 4.79165C9.96342 4.85253 9.94579 4.91174 9.9166 4.96553C9.43342 8.00419 9.39603 13.1579 9.39603 14.6573V14.7599C9.35001 15.5638 7.09807 15.9999 5.00144 15.9999ZM0.997987 1.10307C1.09634 1.09968 1.19348 1.08042 1.28559 1.04606L1.62209 0.926338C1.67629 0.90818 1.72836 0.884288 1.77739 0.855075C1.77739 0.855075 1.77739 0.835122 1.77739 0.82657C1.7435 0.737457 1.69082 0.656531 1.62288 0.58919C1.55494 0.52185 1.47329 0.469641 1.38338 0.436048L0.897325 0.538667C0.883208 0.545885 0.871293 0.55671 0.862813 0.570023C0.844571 0.64968 0.842811 0.732175 0.857641 0.812525C0.872471 0.892875 0.903582 0.969411 0.949094 1.03751C0.959832 1.06029 0.972333 1.08221 0.986483 1.10307H0.997987Z" fill="#3F3B39"/>
<path d="M9.7987 4.79175H0.204224C0.779432 8.29219 0.74492 14.6945 0.747796 14.7515C0.779432 15.37 2.68337 15.8632 5.00146 15.8632C7.31955 15.8632 9.22062 15.37 9.25513 14.7515C9.25801 14.6945 9.20336 8.29219 9.7987 4.79175Z" fill="#CAC5C1"/>
<path d="M4.45497 4.79179V15.7521C4.63329 15.7521 4.81448 15.7521 5.00142 15.7521C5.37408 15.7986 5.75188 15.7852 6.1202 15.7121L6.23524 4.74048L4.45497 4.79179Z" fill="#9F9DA8"/>
<path d="M4.85475 4.84591L2.78975 4.79175V15.5981C3.41673 15.6779 4.1156 15.7406 4.85475 15.7834V4.84591Z" fill="#F4F4F4"/>
<path d="M1.09004 4.79175H0.204224C0.785184 8.26654 0.74492 14.6061 0.747796 14.6631C0.747796 14.8113 0.880094 14.9482 1.09004 15.0821V4.79175Z" fill="#9F9DA8"/>
<path d="M1.40062 4.79175V15.2389C1.74924 15.3752 2.11046 15.4773 2.47914 15.5439V4.79175H1.40062Z" fill="#E0DCD9"/>
<path d="M8.34052 4.79175V15.3387C8.89559 15.1534 9.24072 14.9225 9.2551 14.6688C9.2551 14.6118 9.21483 8.26654 9.79867 4.79745L8.34052 4.79175Z" fill="#9F9DA8"/>
<path d="M8.40958 4.63794L7.56978 4.79187V15.5469C7.96667 15.4357 8.23702 15.3673 8.50162 15.2761L8.40958 4.63794Z" fill="#E0DCD9"/>
<path d="M7.58697 4.75195L6.12019 4.79186V15.7236C6.50271 15.6951 7.31375 15.5782 7.6445 15.5241L7.58697 4.75195Z" fill="#DFDDE0"/>
<path d="M9.77857 4.77186C9.74406 5.37332 7.60428 5.85506 4.99571 5.85506C2.38714 5.85506 0.250245 5.37332 0.218608 4.77186C0.186972 4.1704 2.32675 3.66016 5.00147 3.66016C7.67619 3.66016 9.81596 4.16185 9.77857 4.77186Z" fill="#ADADAD"/>
<path d="M9.86198 4.44978C9.89649 3.82837 7.71932 3.30957 5.00146 3.30957C2.2836 3.30957 0.112193 3.81981 0.138077 4.44978C0.138077 4.50964 0.169713 4.73483 0.172589 4.77189C0.207102 5.37905 2.36701 5.86364 5.00146 5.86364C7.63592 5.86364 9.79583 5.37905 9.82746 4.77189C9.83034 4.72343 9.8591 4.50964 9.86198 4.44978Z" fill="#92919B"/>
<path d="M9.72679 4.35568C9.75843 3.80553 7.64453 3.35229 5.00145 3.35229C2.35837 3.35229 0.2416 3.80553 0.287617 4.35568C0.287617 4.40984 0.319253 4.59797 0.322129 4.64073C0.353766 5.18233 2.45615 5.61276 5.01583 5.61276C7.57551 5.61276 9.67502 5.18233 9.70666 4.64073C9.69515 4.59797 9.72391 4.40984 9.72679 4.35568Z" fill="#DFDDE0"/>
<path d="M9.59163 4.38128C9.56287 4.90578 7.50938 5.32481 4.98996 5.32481C2.47055 5.32481 0.425685 4.90578 0.388297 4.38128C0.350908 3.85678 2.43891 3.42065 5.00147 3.42065C7.56402 3.42065 9.61752 3.85108 9.59163 4.38128Z" fill="#88888A"/>
<path d="M5.00148 3.78833C2.75241 3.78833 0.897367 4.12469 0.506226 4.56082C0.934756 4.99695 2.7898 5.32191 5.00148 5.32191C7.21316 5.32191 9.06533 4.9998 9.49098 4.56082C9.10559 4.12469 7.24767 3.78833 5.00148 3.78833Z" fill="#7B7B7C"/>
<path d="M4.88929 2.51143C3.30459 0.524612 0.230099 1.22869 0.192711 2.43161C0.166826 3.33523 0.882961 5.3363 5.00145 5.3363C7.21025 5.3363 9.02791 5.05125 9.49671 4.56381C8.45558 3.59463 6.38195 4.40703 4.88929 2.51143Z" fill="#EAEAEA"/>
<path d="M8.49004 4.561C8.49004 4.49259 8.46415 4.37857 7.75089 4.27595C6.78742 4.11917 5.59099 3.92248 4.62751 2.70816C4.34239 2.35271 3.97913 2.0665 3.56543 1.87137C3.15173 1.67623 2.69853 1.57733 2.2404 1.5822C1.33444 1.5822 0.529151 1.98413 0.514771 2.43736C0.515855 2.70341 0.57061 2.96656 0.675814 3.21132C0.781017 3.45609 0.934546 3.67753 1.12737 3.86262C1.86651 4.61801 3.20675 5.01709 5.0014 5.01709H5.78943C7.05202 5.01709 7.85731 4.99998 8.37787 4.73203C8.49004 4.69213 8.49866 4.61516 8.49004 4.561ZM8.32898 4.64082C7.73939 4.92587 6.73277 4.90022 5.0014 4.90022C3.27002 4.90022 1.92403 4.52395 1.20214 3.78851C1.0216 3.61283 0.877851 3.40354 0.779141 3.17265C0.68043 2.94176 0.628705 2.69382 0.626936 2.44306C0.626936 2.08675 1.33157 1.68767 2.24615 1.68767C2.68769 1.68367 3.12435 1.77938 3.52301 1.96756C3.92167 2.15573 4.27185 2.43143 4.54698 2.77372C5.53347 4.02225 6.75578 4.21894 7.73651 4.37857C8.05288 4.42988 8.55906 4.5382 8.34048 4.65222L8.32898 4.64082Z" fill="#CAC5C1"/>
<path d="M5.00144 8.12985C3.04286 8.12985 1.34599 7.89041 0.537827 7.53979C0.888704 8.03579 2.76388 8.48332 5.00144 8.48332C7.23901 8.48332 9.11131 8.03579 9.46219 7.53979C8.65689 7.89041 6.95715 8.12985 5.00144 8.12985Z" fill="#88888A"/>
<path d="M5.00142 8.10124C3.49798 8.11971 1.9985 7.94436 0.54068 7.57959C0.882929 7.9188 2.75811 8.28082 5.00142 8.28082C7.24473 8.28082 9.11704 7.9188 9.46216 7.57959C8.00427 7.94394 6.50484 8.11929 5.00142 8.10124Z" fill="#DFDDE0"/>
<path d="M5.00147 8.61732C3.05439 8.61732 1.36615 8.37787 0.563736 8.03296C0.911737 8.52325 2.77541 8.96508 5.00147 8.96508C7.22753 8.96508 9.08833 8.52325 9.43633 8.03296C8.62816 8.37787 6.94567 8.61732 5.00147 8.61732Z" fill="#88888A"/>
<path d="M5.00146 8.58577C3.5098 8.60309 2.02212 8.42967 0.575226 8.06982C0.914599 8.40619 2.77827 8.7625 5.01008 8.7625C7.24189 8.7625 9.10269 8.40619 9.44494 8.06982C7.99245 8.43114 6.49888 8.60456 5.00146 8.58577Z" fill="#DFDDE0"/>
<path d="M5.0014 9.09598C3.06583 9.09598 1.38622 8.86224 0.589554 8.52588C0.934679 9.01332 2.78973 9.44945 5.0014 9.44945C7.21308 9.44945 9.06525 9.01332 9.41325 8.52588C8.62809 8.86224 6.9341 9.09598 5.0014 9.09598Z" fill="#88888A"/>
<path d="M5.0014 9.0677C3.51458 9.08339 2.03186 8.90999 0.589554 8.55176C0.928927 8.88242 2.78397 9.23588 5.0014 9.23588C7.21883 9.23588 9.071 8.88812 9.41038 8.55176C7.96909 8.91024 6.48729 9.08364 5.0014 9.0677Z" fill="#DFDDE0"/>
<path d="M5.00145 9.56937C3.07738 9.56937 1.4064 9.33848 0.61261 8.99927C0.957735 9.48101 2.80128 9.91144 5.00145 9.91144C7.20162 9.91144 9.04229 9.48101 9.38741 8.99927C8.59363 9.33848 6.92552 9.56937 5.00145 9.56937Z" fill="#88888A"/>
<path d="M5.00143 9.54092C3.52373 9.55845 2.04982 9.3889 0.615463 9.03638C0.95196 9.36704 2.7955 9.7148 5.00143 9.7148C7.20735 9.7148 9.04802 9.36704 9.38739 9.03638C7.953 9.38872 6.47911 9.55827 5.00143 9.54092Z" fill="#DFDDE0"/>
<path d="M5.00148 10.0396C3.08603 10.0396 1.42655 9.81155 0.638519 9.46948C0.980768 9.94552 2.81281 10.3702 5.00148 10.3702C7.19014 10.3702 9.02794 9.94552 9.36443 9.46948C8.5764 9.81155 6.90254 10.0396 5.00148 10.0396Z" fill="#88888A"/>
<path d="M5.00148 10.011C3.53173 10.0281 2.06574 9.86049 0.638519 9.51221C0.975016 9.83717 2.80705 10.1821 5.00148 10.1821C7.1959 10.1821 9.02794 9.83717 9.36156 9.51221C7.93532 9.86052 6.47027 10.0281 5.00148 10.011Z" fill="#DFDDE0"/>
<path d="M5.00145 10.5042C3.09751 10.5042 1.44666 10.2761 0.661499 9.93408C1.00375 10.4158 2.82428 10.832 5.00145 10.832C7.17861 10.832 8.99915 10.4101 9.33852 9.93978C8.55624 10.2761 6.90251 10.5042 5.00145 10.5042Z" fill="#88888A"/>
<path d="M5.00142 10.4756C3.54033 10.4906 2.08316 10.323 0.664352 9.97681C0.997973 10.2989 2.81851 10.6381 5.00142 10.6381C7.18434 10.6381 9.002 10.3046 9.3385 9.97681C7.91969 10.323 6.46252 10.4906 5.00142 10.4756Z" fill="#DFDDE0"/>
<path d="M5.00146 10.9632C3.10902 10.9632 1.46392 10.738 0.687393 10.4102C1.02677 10.8748 2.83867 11.2938 5.00146 11.2938C7.16424 11.2938 8.97615 10.8748 9.31552 10.4102C8.53611 10.738 6.90252 10.9632 5.00146 10.9632Z" fill="#88888A"/>
<path d="M5.00146 10.9347C3.54854 10.9515 2.09923 10.7877 0.687393 10.4473C1.02101 10.7637 2.83292 11.1029 5.00146 11.1029C7.16999 11.1029 8.9819 10.7637 9.31552 10.4473C7.9037 10.7878 6.45438 10.9515 5.00146 10.9347Z" fill="#DFDDE0"/>
<path d="M5.00143 11.4165C3.11762 11.4165 1.48403 11.1942 0.710373 10.8721C1.04687 11.331 2.84727 11.7443 5.00143 11.7443C7.15558 11.7443 8.95311 11.331 9.29248 10.8721C8.51595 11.1942 6.88236 11.4165 5.00143 11.4165Z" fill="#88888A"/>
<path d="M5.00143 11.4021C3.55625 11.4193 2.11461 11.2565 0.710373 10.9175C1.04112 11.2339 2.8444 11.5674 5.00143 11.5674C7.15846 11.5674 8.95886 11.2339 9.28961 10.9175C7.88631 11.2562 6.44565 11.419 5.00143 11.4021Z" fill="#DFDDE0"/>
<path d="M5.00148 11.8668C3.12917 11.8668 1.50421 11.6473 0.733429 11.3252C1.06705 11.7813 2.85882 12.1804 5.00148 12.1804C7.14413 12.1804 8.93303 11.7727 9.26952 11.3252C8.49874 11.6473 6.87378 11.8668 5.00148 11.8668Z" fill="#88888A"/>
<path d="M5.00148 11.8383C3.56439 11.8556 2.13071 11.6957 0.733429 11.3623C1.06417 11.6873 2.85595 12.0037 5.00148 12.0037C7.147 12.0037 8.93878 11.6873 9.26665 11.3623C7.87035 11.6957 6.43762 11.8556 5.00148 11.8383Z" fill="#DFDDE0"/>
<path d="M5.00143 12.3115C3.13776 12.3115 1.52142 12.092 0.756393 11.7756C1.09001 12.226 2.87028 12.6308 5.00143 12.6308C7.13258 12.6308 8.91285 12.226 9.2436 11.7756C8.47857 12.092 6.86223 12.3115 5.00143 12.3115Z" fill="#88888A"/>
<path d="M5.00143 12.2831C3.57227 12.3002 2.14645 12.1423 0.756393 11.8127C1.08426 12.1178 2.86741 12.4456 5.00143 12.4456C7.13546 12.4456 8.91573 12.1178 9.2436 11.8127C7.85449 12.1421 6.42964 12.3001 5.00143 12.2831Z" fill="#DFDDE0"/>
<path d="M5.0014 12.7505C3.14923 12.7505 1.55015 12.5339 0.779373 12.2231C1.11012 12.6678 2.88176 13.0783 5.0014 13.0783C7.12105 13.0783 8.88981 12.6792 9.22343 12.2231C8.45841 12.5424 6.85358 12.7505 5.0014 12.7505Z" fill="#88888A"/>
<path d="M5.0014 12.7248C3.58006 12.7409 2.16209 12.5839 0.779373 12.2573C1.10437 12.5595 2.87888 12.8844 5.0014 12.8844C7.12392 12.8844 8.89557 12.5595 9.22056 12.2573C7.83882 12.584 6.4218 12.741 5.0014 12.7248Z" fill="#DFDDE0"/>
<path d="M5.00145 13.1866C3.15791 13.1866 1.5502 12.9728 0.802429 12.6621C1.1303 13.1011 2.89331 13.4973 5.00145 13.4973C7.10959 13.4973 8.86973 13.1125 9.20335 12.6621C8.4412 12.9728 6.84212 13.1866 5.00145 13.1866Z" fill="#88888A"/>
<path d="M5.00145 13.1581C3.58803 13.1741 2.17792 13.019 0.802429 12.6963C1.12742 12.9984 2.89044 13.3177 5.00145 13.3177C7.11247 13.3177 8.87548 12.9984 9.20335 12.6963C7.82693 13.0193 6.41584 13.1744 5.00145 13.1581Z" fill="#DFDDE0"/>
<path d="M7.66756 4.50681C7.66756 4.45265 7.64455 4.36144 7.05784 4.25882C6.26405 4.12199 5.27757 3.95096 4.48378 2.96183C4.24586 2.67099 3.94567 2.43622 3.60494 2.27451C3.26421 2.11281 2.89147 2.02821 2.51369 2.02686C1.7688 2.02686 1.10443 2.32901 1.09293 2.69673C1.09732 2.91047 1.1443 3.12124 1.23117 3.31692C1.31804 3.5126 1.44308 3.68933 1.59911 3.83694C2.20883 4.4555 3.32473 4.79187 4.79152 4.81467H5.4415C6.48263 4.83177 7.14412 4.81467 7.57265 4.62939C7.66756 4.60088 7.67331 4.54102 7.66756 4.50681ZM7.53239 4.56952C7.04633 4.79187 6.21803 4.75766 4.79152 4.73771C3.365 4.71775 2.25485 4.38709 1.66238 3.78848C1.51261 3.64828 1.39288 3.4796 1.31036 3.2925C1.22783 3.10541 1.18421 2.90376 1.18208 2.69958C1.18208 2.41453 1.75729 2.10097 2.51369 2.11237C2.87776 2.11313 3.23708 2.19439 3.56546 2.35022C3.89383 2.50605 4.183 2.73252 4.41188 3.01314C5.22867 4.02792 6.23529 4.20181 7.04346 4.34148C7.29367 4.38709 7.7222 4.48116 7.53239 4.56097V4.56952Z" fill="#CAC5C1"/>
<path d="M2.67182 2.51997L2.157 0.93508C2.13458 0.855541 2.10473 0.778244 2.06785 0.704188C1.98845 0.539871 1.87122 0.396339 1.7256 0.28516C1.66496 0.231866 1.59365 0.191872 1.51633 0.167802C1.43901 0.143731 1.35743 0.136126 1.27694 0.145485L0.785132 0.236701C0.36523 0.313666 0.339345 0.775451 0.549296 1.18593C0.59811 1.28771 0.658932 1.3834 0.730487 1.47098L1.95281 3.06442C1.97976 3.09382 2.01262 3.1173 2.04927 3.13337C2.08592 3.14944 2.12556 3.15775 2.16563 3.15775C2.20571 3.15775 2.24534 3.14944 2.282 3.13337C2.31865 3.1173 2.3515 3.09382 2.37846 3.06442L2.52226 2.94755C2.58587 2.89795 2.63377 2.83129 2.66028 2.75549C2.6868 2.6797 2.6908 2.59795 2.67182 2.51997ZM0.894421 1.21728C0.869259 1.17863 0.846218 1.13867 0.825396 1.09756C0.64133 0.735543 0.704603 0.439089 0.862785 0.404882L1.34884 0.302263C1.48976 0.28516 1.7256 0.456192 1.88666 0.761198C1.90391 0.795404 1.91829 0.829611 1.93267 0.863817C1.94705 0.898023 1.85214 0.98924 1.6652 1.0548L1.3287 1.17452C1.10437 1.25434 0.91743 1.25434 0.894421 1.21728ZM2.12249 2.56558C2.09663 2.5816 2.06581 2.58782 2.03569 2.58311C2.00557 2.5784 1.97818 2.56306 1.95856 2.53993L1.34021 1.77599C1.32969 1.76504 1.32096 1.75254 1.31432 1.73893C1.25393 1.61921 1.33733 1.47953 1.50127 1.41397L1.74573 1.3142C1.80113 1.28285 1.86651 1.27365 1.92852 1.28848C1.99053 1.30332 2.04449 1.34107 2.07935 1.39401C2.08053 1.40634 2.08053 1.41875 2.07935 1.43107L2.31519 2.28623C2.32319 2.31607 2.32229 2.34758 2.31259 2.37692C2.30289 2.40627 2.28481 2.43219 2.26054 2.45156L2.12249 2.56558ZM2.34395 2.90764C2.30723 2.88751 2.276 2.85882 2.25295 2.82406C2.2299 2.7893 2.21573 2.7495 2.21165 2.70811C2.21165 2.62259 2.24904 2.57413 2.31519 2.59979C2.35185 2.61927 2.3831 2.64741 2.40618 2.68172C2.42925 2.71602 2.44344 2.75544 2.44748 2.79647C2.45611 2.87914 2.4101 2.93045 2.34395 2.90479V2.90764Z" fill="#9F9DA8"/>
</g>
<defs>
<clipPath id="clip0_1779_4676">
<rect width="10" height="16" fill="white"/>
</clipPath>
</defs>
</svg>
