<svg width="17" height="16" viewBox="0 0 17 16" fill="none" xmlns="http://www.w3.org/2000/svg">
<g clip-path="url(#clip0_1779_4725)">
<path d="M16.7592 9.83957C16.6999 9.86858 16.6356 9.88367 16.5705 9.88383C15.6323 9.88383 14.4916 6.93343 14.2974 5.66476L14.2619 5.43168C14.0567 4.05975 13.7476 1.98857 11.4883 0.191776L11.2558 0L11.2858 0.321593C11.3003 0.643119 11.2027 0.958849 11.0123 1.20671L10.7716 0.719897C10.7014 0.554991 10.5916 0.413328 10.4536 0.309579C10.3155 0.205829 10.1543 0.143767 9.98656 0.129817C9.89132 0.128226 9.79724 0.152581 9.71303 0.200627L7.1856 1.64632C7.15568 1.61709 7.11655 1.60126 7.07619 1.60207C6.99034 1.61339 6.90802 1.64568 6.83548 1.69648L6.23644 2.03872C6.19277 2.0642 6.14385 2.07739 6.09421 2.07708H6.06412C6.08082 2.0073 6.08249 1.93433 6.069 1.86375C6.05551 1.79316 6.02722 1.72685 5.98629 1.66989C5.94536 1.61293 5.89289 1.56683 5.83289 1.53513C5.77289 1.50343 5.70696 1.48696 5.64014 1.487C5.5679 1.48639 5.49658 1.50461 5.43226 1.54011C5.34255 1.59223 5.27279 1.67688 5.23532 1.77909C5.20712 1.77601 5.17872 1.77601 5.15052 1.77909C5.07814 1.78017 5.00698 1.79936 4.94264 1.83515C4.8899 1.86547 4.84366 1.9074 4.80691 1.95823C4.77016 2.00905 4.74371 2.06764 4.72928 2.13019C4.71145 2.18938 4.70516 2.25192 4.71081 2.31386C4.71646 2.37581 4.73392 2.43582 4.76211 2.49013C4.81408 2.59651 4.90236 2.67692 5.00829 2.71436C4.98317 2.77099 4.94197 2.8175 4.89067 2.84713L4.2889 3.18938C4.15487 3.26609 4.08375 3.3192 4.06187 3.40181C4.05664 3.42507 4.05664 3.44935 4.06187 3.47262L1.61649 4.8357C1.27184 5.03338 1.18431 5.58805 1.42228 6.07192L1.74505 6.7269C0.333628 7.41435 -0.0301695 7.67103 -8.09956e-05 7.91296C0.0245369 8.09294 0.232421 8.12539 0.303539 8.13424C1.88729 8.35552 2.72977 11.0374 3.34248 12.9965C3.52771 13.683 3.77318 14.3488 4.07554 14.9851L4.1959 15.1916L4.30257 14.9792C4.40134 14.7926 4.51775 14.6176 4.64996 14.4569V15.6637C4.64996 15.9174 4.98914 15.9587 5.13138 15.9882H9.81971C10.1206 15.9616 10.3941 15.8967 10.3941 15.6725V14.7048L12.659 15.5604L12.6836 15.5102L12.7684 15.5427L12.7356 15.4011L13.4659 13.8905C15.2903 13.6751 16.4747 12.371 16.9534 9.99889L17.0109 9.72156L16.7592 9.83957ZM5.43226 2.5993C5.48683 2.55039 5.52916 2.4875 5.55535 2.41637C5.58354 2.41943 5.61195 2.41943 5.64014 2.41637C5.68566 2.41575 5.73084 2.4078 5.77418 2.39277L5.82068 2.41637L5.42405 2.65536L5.43226 2.5993Z" fill="#3F3B39"/>
<path d="M0.322801 7.99256C-1.59192 7.72113 11.7236 3.38109 11.4173 0.321533C13.7587 2.18913 13.9638 4.38423 14.1526 5.70306C14.3413 7.02188 15.6789 10.5329 16.8004 9.98408C16.5952 10.9725 15.884 14.3743 11.9123 13.7163C7.94066 13.0584 5.29834 12.728 4.17686 14.923C3.37542 13.4833 2.66423 8.32301 0.322801 7.99256Z" fill="#E67E22"/>
<path d="M5.15888 2.67892C5.12231 2.78892 5.04921 2.88038 4.95373 2.9356L4.35196 3.2808C4.16049 3.38996 4.17963 3.41357 4.19604 3.44602C4.21246 3.47848 4.21793 3.50798 4.4094 3.39882L5.01117 3.05362C5.07737 3.01508 5.1357 2.96257 5.18269 2.89921C5.22968 2.83585 5.26437 2.76294 5.2847 2.68482C5.34214 2.46059 5.23273 2.28652 5.20264 2.30422C5.17255 2.32192 5.21905 2.49599 5.15888 2.67892Z" fill="#B76935"/>
<path d="M5.98215 2.20683C6.08639 2.23441 6.19639 2.21971 6.29124 2.16553L6.89301 1.82033C7.08449 1.71117 7.09269 1.74067 7.10637 1.77312C7.12004 1.80558 7.14193 1.82918 6.95045 1.93835L6.34868 2.28354C6.28251 2.32178 6.20975 2.34492 6.13493 2.35152C6.0601 2.35812 5.98482 2.34803 5.91377 2.3219C5.70862 2.25109 5.64024 2.05636 5.66486 2.02686C5.68947 1.99735 5.80983 2.15668 5.98215 2.20683Z" fill="#CE844D"/>
<path d="M12.8752 5.44343C13.0776 5.85354 13.0174 6.32855 12.7384 6.47607L4.7349 11.061C4.46137 11.2203 4.06748 11.0167 3.86507 10.6066L1.61937 6.04826C1.41696 5.63816 1.47987 5.16314 1.75888 5.01562L9.76241 0.430708C10.0359 0.271387 10.4298 0.474964 10.6322 0.885069L12.8752 5.44343Z" fill="#0B826B"/>
<path d="M9.7651 0.327492L1.67676 4.96257C1.40323 5.12189 1.33485 5.591 1.53726 6.00701L3.80484 10.6214C3.86799 10.7857 3.97908 10.9232 4.12124 11.0132C4.2634 11.1031 4.42889 11.1407 4.59261 11.12C4.43924 11.1237 4.2883 11.0783 4.15881 10.9896C4.02933 10.9008 3.9271 10.7727 3.86502 10.6214L1.61932 6.04831C1.41691 5.63821 1.47982 5.16319 1.75882 5.01567L9.76236 0.430756C10.0359 0.271435 10.4298 0.475012 10.6322 0.885117L12.8752 5.44348C12.958 5.58344 13.0003 5.74679 12.9969 5.91278C12.9935 6.07877 12.9445 6.23993 12.856 6.37581C12.9637 6.24135 13.0278 6.07272 13.0387 5.89544C13.0495 5.71815 13.0065 5.54188 12.9162 5.39332L10.6459 0.787754C10.4407 0.374699 10.0468 0.168171 9.7651 0.327492Z" fill="#B76935"/>
<path d="M9.76243 0.430708L1.75889 5.01562C1.48535 5.17495 1.41697 5.63816 1.61939 6.04826L3.02534 8.9013L3.05816 8.96916L7.45655 8.98686C8.27143 8.81694 9.02033 8.38735 9.60651 7.75359L12.0683 3.80006L12.0355 3.7499L10.6323 0.885069C10.4298 0.474964 10.0414 0.271387 9.76243 0.430708Z" fill="#1ABC9C"/>
<path d="M9.03925 5.83011L6.3577 7.36609C6.17491 7.47079 6.10542 7.71549 6.20249 7.91265L6.47703 8.47029C6.57409 8.66745 6.80096 8.7424 6.98375 8.6377L9.6653 7.10173C9.84809 6.99703 9.91758 6.75232 9.82051 6.55516L9.54598 5.99753C9.44891 5.80037 9.22204 5.72541 9.03925 5.83011Z" fill="#CE844D"/>
<path d="M5.91108 1.79688C5.9399 1.85517 5.95201 1.92138 5.94588 1.98712C5.93976 2.05285 5.91566 2.11514 5.87666 2.16607C5.83765 2.21701 5.78549 2.2543 5.72681 2.2732C5.66812 2.29211 5.60555 2.29179 5.54704 2.27227C5.48852 2.25276 5.4367 2.21493 5.39815 2.16359C5.3596 2.11225 5.33606 2.04972 5.33052 1.98392C5.32498 1.91813 5.33768 1.85205 5.36702 1.79405C5.39636 1.73606 5.44101 1.68878 5.49531 1.65821C5.56756 1.61753 5.65179 1.60927 5.72965 1.63524C5.80752 1.66121 5.87273 1.7193 5.91108 1.79688Z" fill="#B76935"/>
<path d="M5.42419 2.06538C5.45271 2.12365 5.46459 2.18973 5.45831 2.25527C5.45204 2.32082 5.4279 2.38289 5.38894 2.43365C5.34998 2.48441 5.29796 2.52157 5.23943 2.54045C5.1809 2.55934 5.11849 2.55909 5.06009 2.53974C5.0017 2.52039 4.94992 2.48281 4.91132 2.43174C4.87271 2.38067 4.849 2.31841 4.84317 2.25281C4.83735 2.18722 4.84968 2.12123 4.87861 2.06319C4.90753 2.00515 4.95175 1.95766 5.00568 1.92671C5.07834 1.88589 5.16298 1.87755 5.24129 1.9035C5.3196 1.92945 5.3853 1.9876 5.42419 2.06538Z" fill="#CE844D"/>
<path d="M14.0677 6.32862L9.0922 4.44922L6.66324 9.46489L11.6388 11.3472L14.0677 6.32862Z" fill="#233849"/>
<path d="M12.5688 15.3214L7.59325 13.439L6.66324 9.46484L11.6388 11.3472L12.5688 15.3214Z" fill="#48647A"/>
<path d="M15.0115 10.3677L10.0359 8.48536L9.09225 4.44922L14.0678 6.32862L15.0115 10.3677Z" fill="#48647A"/>
<path d="M15.0115 10.3677L10.036 8.48535L7.60699 13.504L12.5825 15.3863L15.0115 10.3677Z" fill="#34495E"/>
<path d="M10.252 12.3001C10.0437 12.1211 9.84463 11.9301 9.65568 11.7277C8.40073 10.3183 7.3229 8.7371 6.44989 7.02477C6.07515 6.29307 5.67579 5.56432 5.30106 4.81787C4.98585 5.37071 4.80259 5.99919 4.76767 6.64712V15.6724C4.76767 15.7668 4.9017 15.8229 5.1342 15.8553H9.80612C10.0797 15.8229 10.252 15.7668 10.252 15.6724V12.3001Z" fill="#0B826B"/>
<path d="M9.65574 11.7279C8.40078 10.3185 7.32296 8.73733 6.44994 7.02499C6.10256 6.34345 5.73056 5.66486 5.3777 4.95972C5.13958 5.4311 5.00395 5.95472 4.98108 6.49097V15.2802C5.16708 15.3894 6.07521 15.3894 6.58398 15.3894H7.1748C8.05831 15.3894 9.81986 15.3894 10.0387 15.2773V12.1115C9.90739 11.9905 9.77883 11.8607 9.65574 11.7279Z" fill="#1ABC9C"/>
<path d="M9.65568 11.7278C8.40072 10.3184 7.3229 8.73721 6.44989 7.02488L6.35962 6.85376H4.76767V13.8137H10.2383V12.3002C10.0347 12.1208 9.8402 11.9298 9.65568 11.7278Z" fill="#34495E"/>
<g style="mix-blend-mode:overlay" opacity="0.6">
<path d="M6.19825 6.541L5.5828 5.36084C5.4607 5.77371 5.40067 6.20501 5.405 6.63836V15.7698L6.17636 15.7934V7.11338C6.17636 6.90685 6.18457 6.71802 6.19825 6.541Z" fill="white"/>
<path d="M9.65565 11.7279C9.54807 11.6099 9.44686 11.4889 9.35203 11.365V15.767H9.25903V15.7906L10.0331 15.767V12.0967C9.90183 11.9846 9.77601 11.8607 9.65565 11.7279Z" fill="white"/>
</g>
</g>
<defs>
<clipPath id="clip0_1779_4725">
<rect width="17" height="16" fill="white"/>
</clipPath>
</defs>
</svg>
