<svg width="267" height="217" viewBox="0 0 267 217" fill="none" xmlns="http://www.w3.org/2000/svg">
<g style="mix-blend-mode:multiply" opacity="0.3">
<path d="M193.723 202.345C178.196 202.297 161.41 202.273 143.895 202.273C64.4218 202.273 0 202.809 0 203.478C0 204.147 64.4218 204.683 143.895 204.683C161.41 204.683 178.196 204.683 193.723 204.611V202.345Z" fill="#326C91"/>
</g>
<path d="M92.831 189.813H66.332C65.1075 189.813 64.1147 190.806 64.1147 192.03V193.049C64.1147 194.273 65.1075 195.266 66.332 195.266H92.831C94.0556 195.266 95.0483 194.273 95.0483 193.049V192.03C95.0483 190.806 94.0556 189.813 92.831 189.813Z" fill="#281C1F"/>
<path d="M168.573 204.072C172.142 203.884 174.699 197.352 174.284 189.483C173.869 181.614 170.639 175.388 167.07 175.576C163.501 175.764 160.944 182.296 161.36 190.165C161.775 198.034 165.004 204.26 168.573 204.072Z" fill="#38282B"/>
<path d="M174.847 184.36H166.134L168.092 204.087H176.805L174.847 184.36Z" fill="#38282B"/>
<path d="M117.281 189.837C116.956 181.962 113.787 175.581 110.208 175.581C106.629 175.581 104.008 181.962 104.327 189.837C104.646 197.712 107.828 204.087 111.401 204.087C114.974 204.087 117.613 197.706 117.281 189.837Z" fill="#38282B"/>
<path d="M117.836 184.36H109.123L111.081 204.087H119.794L117.836 184.36Z" fill="#38282B"/>
<path d="M35.0851 189.837C34.7718 181.962 31.6025 175.575 28.0235 175.575C24.4445 175.575 21.8115 181.962 22.1429 189.825C22.4743 197.688 25.6436 204.081 29.2165 204.081C32.7895 204.081 35.4285 197.706 35.0851 189.837Z" fill="#38282B"/>
<path d="M35.6518 184.36H26.9453L28.8975 204.087H37.61L35.6518 184.36Z" fill="#38282B"/>
<path d="M6.82715 134.718L26.0055 168.158L34.019 168.134L35.6699 85.2992L19.5645 101.579L6.82715 134.718Z" fill="#007233"/>
<path d="M98.4104 189.837C98.079 181.962 94.9158 175.575 91.3428 175.575C87.7698 175.575 85.1308 181.956 85.4622 189.825C85.7936 197.694 88.9568 204.081 92.5358 204.081C96.1148 204.081 98.7418 197.706 98.4104 189.837Z" fill="#38282B"/>
<path d="M98.9644 184.36H90.252L92.2162 204.087H100.929L98.9644 184.36Z" fill="#38282B"/>
<path d="M171.147 81.678L145.793 74.4478L148.221 88.5709L177.233 91.1256L177.082 88.9866C176.961 87.3069 176.327 85.7048 175.266 84.3975C174.204 83.0901 172.766 82.1408 171.147 81.678Z" fill="#C9BBA9"/>
<path d="M171.147 81.6781L150.631 75.8457C153.313 78.2016 158.838 80.9189 165.538 82.9374C168.904 83.9717 172.353 84.7155 175.847 85.1607C174.761 83.462 173.088 82.2223 171.147 81.6781Z" fill="#DBCCBD"/>
<path d="M11.3276 135.61L24.8001 159.096L30.4276 159.084L31.5845 100.905L20.2751 112.34L11.3276 135.61Z" fill="#006837"/>
<path d="M74.7135 191.735H52.2333C51.0986 191.735 50.1787 192.655 50.1787 193.79V195.133C50.1787 196.268 51.0986 197.188 52.2333 197.188H74.7135C75.8482 197.188 76.7681 196.268 76.7681 195.133V193.79C76.7681 192.655 75.8482 191.735 74.7135 191.735Z" fill="#281C1F"/>
<path d="M125.47 189.837C125.47 181.962 122.873 175.581 119.649 175.581C116.426 175.581 113.835 181.962 113.835 189.837C113.835 197.712 116.432 204.087 119.649 204.087C122.867 204.087 125.47 197.706 125.47 189.837Z" fill="#281C1F"/>
<path d="M43.3217 189.837C43.3217 181.962 40.7249 175.581 37.5074 175.581C34.2899 175.581 31.687 181.962 31.687 189.837C31.687 197.712 34.2839 204.087 37.5014 204.087C40.7188 204.087 43.3217 197.706 43.3217 189.837Z" fill="#281C1F"/>
<path d="M186.572 178.913H147.233C146.96 178.911 146.69 178.962 146.437 179.065C146.184 179.167 145.954 179.318 145.76 179.51C145.566 179.701 145.411 179.929 145.305 180.18C145.199 180.432 145.144 180.701 145.142 180.974V191.138C145.141 191.412 145.195 191.682 145.299 191.935C145.403 192.187 145.556 192.417 145.749 192.61C145.942 192.803 146.172 192.956 146.424 193.061C146.677 193.165 146.948 193.218 147.221 193.217H186.572C186.845 193.218 187.115 193.165 187.368 193.061C187.62 192.958 187.85 192.805 188.043 192.613C188.237 192.42 188.391 192.191 188.496 191.94C188.601 191.688 188.656 191.417 188.656 191.145V180.986C188.656 180.713 188.601 180.443 188.496 180.191C188.391 179.939 188.237 179.71 188.043 179.518C187.85 179.325 187.62 179.173 187.368 179.069C187.115 178.965 186.845 178.912 186.572 178.913Z" fill="#38282B"/>
<path d="M130.465 192.964H18.2987L15.9248 182.745L132.242 185.047L130.465 192.964Z" fill="#38282B"/>
<path d="M157.253 182.745H124.186C123.128 182.745 122.27 183.603 122.27 184.661V195.145C122.27 196.203 123.128 197.061 124.186 197.061H157.253C158.311 197.061 159.169 196.203 159.169 195.145V184.661C159.169 183.603 158.311 182.745 157.253 182.745Z" fill="#54383C"/>
<path d="M162.495 173.967L120.228 176.774V190.066H155.162V187.258H162.495V173.967Z" fill="#38282B"/>
<path d="M136.845 195.139V184.661C136.845 184.41 136.893 184.161 136.989 183.929C137.085 183.696 137.225 183.485 137.403 183.307C137.58 183.129 137.791 182.988 138.023 182.891C138.255 182.795 138.504 182.745 138.755 182.745H123.168C122.917 182.744 122.668 182.792 122.436 182.887C122.203 182.982 121.992 183.122 121.814 183.299C121.636 183.476 121.495 183.686 121.398 183.918C121.302 184.15 121.252 184.398 121.252 184.649V195.139C121.25 195.391 121.297 195.64 121.391 195.873C121.485 196.106 121.624 196.318 121.801 196.497C121.977 196.676 122.187 196.819 122.419 196.917C122.65 197.015 122.899 197.066 123.15 197.067H138.761C138.51 197.068 138.261 197.019 138.029 196.924C137.796 196.828 137.585 196.688 137.407 196.51C137.229 196.333 137.088 196.122 136.991 195.89C136.895 195.658 136.845 195.409 136.845 195.157V195.139Z" fill="#38282B"/>
<path d="M36.0735 190.452H56.505C56.9456 190.453 57.3676 190.629 57.6792 190.94C57.9907 191.252 58.1664 191.674 58.168 192.115V193.922C58.1664 194.362 57.9905 194.784 57.6788 195.094C57.3671 195.405 56.945 195.579 56.505 195.579H36.0735C35.634 195.579 35.2126 195.405 34.9018 195.094C34.5911 194.783 34.4165 194.362 34.4165 193.922V192.115C34.4149 191.675 34.5878 191.252 34.8972 190.939C35.2066 190.626 35.6274 190.449 36.0674 190.446L36.0735 190.452Z" fill="#E5CFB1"/>
<path d="M135.821 82.3589L126.789 71.4532H37.8691L11.0688 179.287L14.2622 187.427H135.821V82.3589Z" fill="#39B54A"/>
<path d="M37.8688 71.4532L32.1328 94.542H135.821V82.3589L126.789 71.4532H37.8688Z" fill="#248E2B"/>
<path d="M102.02 105.237H28.6745L16.2866 158.325H89.6318L102.02 105.237Z" fill="#248E2B"/>
<path d="M89.4989 121.836H29.8732L19.793 165.007H79.4247L89.4989 121.836Z" fill="#007233"/>
<path d="M94.054 115.094H29.9094L19.082 161.518H83.2206L94.054 115.094Z" fill="#2B1E21"/>
<path d="M40.9658 149.817L38.2363 161.518H83.2207L85.9502 149.817H40.9658Z" fill="#38282B"/>
<path d="M64.5607 150.848C64.2431 150.682 63.896 150.581 63.5393 150.55C63.1826 150.519 62.8233 150.559 62.4819 150.667C62.1405 150.775 61.8238 150.949 61.5498 151.18C61.2759 151.41 61.0501 151.693 60.8853 152.011V152.065C60.4395 153.023 60.566 153.408 63.0544 155.005L63.7594 155.517C63.7594 155.517 66.2779 151.746 64.5607 150.848Z" fill="#FF4848"/>
<path d="M55.4325 152.902C55.5048 151.42 54.83 151.541 54.83 151.541C53.5792 151.3 52.2908 151.337 51.0559 151.649C49.821 151.961 48.6699 152.542 47.6841 153.348L48.0998 153.806C50.3713 152.722 54.5348 155.614 54.5348 155.614C55.047 154.795 55.3549 153.865 55.4325 152.902Z" fill="#EDAA00"/>
<path d="M63.4759 154.553C63.4759 154.553 71.14 155.156 75.683 161.518H55.2515C57.4085 158.289 59.9451 155.656 63.4759 154.553Z" fill="#E00000"/>
<path d="M63.4761 154.553C60.7587 155.397 58.6559 157.15 56.8062 159.373C58.6559 159.771 61.3733 159.645 64.2774 158.903C66.2749 158.422 68.1841 157.629 69.9351 156.554C67.9226 155.497 65.7333 154.819 63.4761 154.553Z" fill="#FF4848"/>
<path d="M49.1477 152.83C49.1477 152.83 36.4526 150.522 30.2466 161.519H56.4082L49.1477 152.83Z" fill="#EDAA00"/>
<path d="M31.2354 159.964C33.9455 160.284 36.6857 160.252 39.3875 159.867C44.5089 159.175 48.8772 157.457 51.3295 155.457L49.1363 152.83C49.1363 152.83 37.7065 150.751 31.2354 159.964Z" fill="#FFD066"/>
<path d="M189.169 155.68L179.408 87.2574L153.885 83.9375V184.872H189.169V155.68Z" fill="#EDE1D3"/>
<path d="M165.628 154.21C161.25 155.68 157.243 158.083 153.885 161.253V184.89H189.193V155.602C182.565 152.125 174.003 151.372 165.628 154.21Z" fill="#E5D8C7"/>
<path d="M36.8745 75.454C47.4877 77.0043 58.2032 77.7476 68.9288 77.6773C90.3003 77.6773 108.605 75.0985 116.281 71.4532H37.8687L36.8745 75.454Z" fill="#39B54A"/>
<path d="M157.084 82.7445L148.052 71.4532H108.382L80.9189 187.813H157.084V82.7445Z" fill="#009245"/>
<path d="M157.084 187.807V113.509C141.611 116.124 124.849 125.18 110.985 139.779C96.9222 154.577 88.6918 172.051 87.0288 187.813L157.084 187.807Z" fill="#006837"/>
<path d="M157.084 183.342H107.828V184.619H157.084V183.342Z" fill="#39B54A"/>
<path d="M145.01 71.4532H130.977V170.695H147.908V71.4532H145.01ZM132.483 169.195V72.9535H133.875V169.195H132.483ZM135.381 169.195V72.9535H143.51V169.195H135.381ZM146.408 169.195H145.01V72.9535H146.414L146.408 169.195Z" fill="#54383C"/>
<path d="M115.474 71.4532H112.576V170.695H131.35V71.4532H115.474ZM114.076 169.195V72.9535H115.474V169.195H114.076ZM116.974 169.195V72.9535H126.126V169.195H116.974ZM129.025 72.9535V169.195H127.627V72.9535H129.025Z" fill="#54383C"/>
<path d="M147.154 71.4532H134.628V169.195H147.154V71.4532Z" fill="#01381C"/>
<path d="M129.766 71.4532H116.221V169.195H129.766V71.4532Z" fill="#01381C"/>
<path d="M144.256 71.4532H131.73V169.195H144.256V71.4532Z" fill="#39B54A"/>
<path d="M126.874 71.4532H113.329V169.195H126.874V71.4532Z" fill="#39B54A"/>
<path d="M185.577 188.963C185.24 179.805 181.848 172.611 177.744 172.611C173.641 172.611 170.225 179.805 169.912 188.957L185.577 188.963Z" fill="#38282B"/>
<path d="M177.341 204.087C180.555 204.087 183.161 197.707 183.161 189.837C183.161 181.967 180.555 175.587 177.341 175.587C174.126 175.587 171.521 181.967 171.521 189.837C171.521 197.707 174.126 204.087 177.341 204.087Z" fill="#54383C"/>
<path d="M109.461 188.963C109.123 179.805 105.755 172.617 101.628 172.617C97.5004 172.617 94.1082 179.805 93.7949 188.963H109.461Z" fill="#38282B"/>
<path d="M100.905 204.087C104.119 204.087 106.725 197.707 106.725 189.837C106.725 181.967 104.119 175.587 100.905 175.587C97.6903 175.587 95.0845 181.967 95.0845 189.837C95.0845 197.707 97.6903 204.087 100.905 204.087Z" fill="#54383C"/>
<path d="M86.6312 176.865H7.00774C6.21576 176.865 5.57373 177.507 5.57373 178.299V188.301C5.57373 189.093 6.21576 189.735 7.00774 189.735H86.6312C87.4232 189.735 88.0652 189.093 88.0652 188.301V178.299C88.0652 177.507 87.4232 176.865 86.6312 176.865Z" fill="#248E2B"/>
<path d="M80.5816 179.034H6.69417C6.00202 179.034 5.44092 179.595 5.44092 180.287V188.475C5.44092 189.167 6.00202 189.729 6.69417 189.729H80.5816C81.2738 189.729 81.8349 189.167 81.8349 188.475V180.287C81.8349 179.595 81.2738 179.034 80.5816 179.034Z" fill="#39B54A"/>
<path d="M75.4482 134.676L94.5362 168.17H102.544L104.424 85.3414L93.8553 80.9972L75.7917 105.966L75.4482 134.676Z" fill="#007233"/>
<path d="M100.881 84.052H30.9881C25.0232 84.052 10.3638 115.986 10.3638 137.731H82.4798L100.881 84.052Z" fill="#007233"/>
<path d="M78.8945 134.676L97.9825 168.17H105.996L107.87 85.3414L97.3076 80.9972L79.238 105.966L78.8945 134.676Z" fill="#248E2B"/>
<path d="M97.3075 80.9972H27.4147C21.4498 80.9972 6.79639 112.931 6.79639 134.676H78.9305L97.3075 80.9972Z" fill="#39B54A"/>
<path d="M39.5498 82.371C32.5665 84.6365 25.9086 87.0647 19.7207 89.5652C15.1054 97.7595 10.1948 110.653 7.99561 122.74C19.8834 121.011 34.2174 117.607 49.407 112.672C66.5127 107.111 81.6481 100.621 92.7285 94.3853L97.3197 80.9852H43.9C42.462 81.4391 41.0119 81.9011 39.5498 82.371Z" fill="#48CC4E"/>
<path d="M103.785 160.416C103.785 157.596 102.887 155.306 101.778 155.306C100.67 155.306 99.772 157.596 99.772 160.416C99.772 163.236 100.676 165.525 101.784 165.525C102.893 165.525 103.785 163.236 103.785 160.416Z" fill="#8CC63F"/>
<path d="M99.2297 85.504C99.2297 84.1363 98.7959 83.0337 98.2596 83.0337C97.7234 83.0337 97.2896 84.1484 97.2896 85.504C97.2896 86.8597 97.7234 87.9684 98.2596 87.9684C98.7959 87.9684 99.2297 86.8657 99.2297 85.504Z" fill="#8CC63F"/>
<path d="M107.02 88.824C107.02 87.4683 106.587 86.3657 106.056 86.3657C105.526 86.3657 105.092 87.4804 105.092 88.824C105.092 90.1676 105.526 91.2883 106.056 91.2883C106.587 91.2883 107.02 90.1857 107.02 88.824Z" fill="#8CC63F"/>
<path d="M83.4496 134.158C83.4496 133.176 83.1363 132.38 82.7507 132.38C82.3651 132.38 82.0518 133.176 82.0518 134.158C82.0518 135.14 82.3651 135.965 82.7507 135.965C83.1363 135.965 83.4496 135.146 83.4496 134.158Z" fill="#8CC63F"/>
<path d="M104.972 189.837C104.972 185.258 103.453 181.546 101.586 181.546C99.7177 181.546 98.2114 185.252 98.2114 189.837C98.2114 194.422 99.7238 198.122 101.592 198.122C103.459 198.122 104.972 194.416 104.972 189.837Z" fill="#38282B"/>
<path d="M103.357 189.837C103.357 186.499 102.297 183.812 100.989 183.812C99.6817 183.812 98.6152 186.511 98.6152 189.837C98.6152 193.163 99.6757 195.862 100.989 195.862C102.303 195.862 103.357 193.169 103.357 189.837Z" fill="#E5CFB1"/>
<path d="M177.426 198.128C179.292 198.128 180.806 194.416 180.806 189.837C180.806 185.258 179.292 181.546 177.426 181.546C175.559 181.546 174.045 185.258 174.045 189.837C174.045 194.416 175.559 198.128 177.426 198.128Z" fill="#38282B"/>
<path d="M179.197 189.837C179.197 186.499 178.136 183.812 176.829 183.812C175.522 183.812 174.455 186.511 174.455 189.837C174.455 193.163 175.516 195.862 176.829 195.862C178.143 195.862 179.197 193.169 179.197 189.837Z" fill="#E5CFB1"/>
<path d="M192.82 172.599H188.759C187.621 172.599 186.698 173.521 186.698 174.66V192.054C186.698 193.192 187.621 194.115 188.759 194.115H192.82C193.958 194.115 194.881 193.192 194.881 192.054V174.66C194.881 173.521 193.958 172.599 192.82 172.599Z" fill="#C9BBA9"/>
<path d="M177.064 91.9872L161.049 89.2578V148.402H185.415L177.064 91.9872Z" fill="#447499"/>
<path d="M176.076 94.9637L164.242 93.0115V146.226H183.113L176.076 94.9637Z" fill="#5891B7"/>
<path d="M178.552 109.629L176.606 93.7767L175.021 93.8611V147.636H178.552V109.629Z" fill="#447499"/>
<path d="M141.894 193.573C141.894 192.428 141.292 191.5 140.581 191.5C139.87 191.5 139.273 192.428 139.273 193.573C139.273 194.717 139.876 195.651 140.581 195.651C141.286 195.651 141.894 194.724 141.894 193.573Z" fill="#7F5059"/>
<path d="M185.999 148.896H160.542V88.6432L177.51 91.5835L185.999 148.896ZM161.543 147.895H184.83L176.636 92.421L161.573 89.8543L161.543 147.895Z" fill="#54383C"/>
<path d="M177.576 90.1978H175.871V149.51H177.576V90.1978Z" fill="#EDE1D3"/>
<path d="M191.127 130.519L182.517 127.602V129.308L191.127 132.224V130.519Z" fill="#54383C"/>
<path d="M192.916 147.624H185.246V148.902H192.916V147.624Z" fill="#54383C"/>
<path d="M194.555 131.645L185.505 128.705L187.717 148.902H195.218L194.555 131.645Z" fill="#54383C"/>
<path d="M193.302 132.808L187.126 130.844L188.765 147.54H193.862L193.302 132.808Z" fill="#5891B7"/>
<path d="M192.808 172.611H188.735C188.601 172.61 188.467 172.624 188.337 172.653V182.866C188.337 183.412 188.554 183.936 188.94 184.323C189.327 184.709 189.851 184.926 190.398 184.926H194.471C194.604 184.924 194.737 184.91 194.868 184.884V174.641C194.859 174.101 194.638 173.585 194.252 173.205C193.867 172.826 193.349 172.612 192.808 172.611Z" fill="#DBCCBD"/>
<path d="M168.002 179.064H160.542V148.486H161.543V178.064H167.375L169.183 174.147C169.934 172.498 171.143 171.099 172.666 170.117C174.189 169.134 175.962 168.609 177.775 168.604H181.534L184.517 148.323L185.511 148.474L182.396 169.598H177.745C176.121 169.596 174.532 170.062 173.167 170.941C171.803 171.819 170.72 173.073 170.05 174.551L168.002 179.064Z" fill="#54383C"/>
<path d="M187.397 168.682H183.625V171.496H187.397V168.682Z" fill="#C9BBA9"/>
<path d="M187.68 169.182H184.3V170.996H187.68V169.182Z" fill="#CE4545"/>
<path d="M94.4099 171.581H89.4692V175.587H94.4099V171.581Z" fill="#39B54A"/>
<path d="M94.5304 172.261H90.5718V174.901H94.5304V172.261Z" fill="#C42F20"/>
<path d="M75.2615 131.615H12.0508V130.916C12.0508 122.541 14.6657 111.196 19.0461 100.567C22.3359 92.5717 27.0657 84.052 30.494 84.052H91.5839L75.2615 131.615ZM13.4908 130.211H74.2613L89.5956 85.4679H30.5121C26.2402 85.4679 13.8041 111.611 13.4908 130.211Z" fill="#006837"/>
<path d="M85.2329 128.398L97.9944 150.794H103.351L104.604 95.3976L97.5425 92.4934L85.2329 128.398Z" fill="#39B54A"/>
<path d="M97.5427 92.4934L97.145 93.6442L101.411 95.3976L100.158 150.794H103.351L104.604 95.3976L97.5427 92.4934Z" fill="#006837"/>
<path d="M102.213 160.416C102.213 159 101.755 157.855 101.206 157.855C100.658 157.855 100.2 159 100.2 160.416C100.2 161.832 100.652 162.977 101.206 162.977C101.761 162.977 102.213 161.832 102.213 160.416Z" fill="#38282B"/>
<path d="M106.424 88.824C106.424 88.1251 106.201 87.5587 105.93 87.5587C105.658 87.5587 105.436 88.1251 105.436 88.824C105.436 89.5229 105.652 90.0953 105.93 90.0953C106.207 90.0953 106.424 89.529 106.424 88.824Z" fill="#38282B"/>
<path d="M98.5248 85.5041C98.5248 84.763 98.2898 84.1786 98.0006 84.1786C97.7114 84.1786 97.4824 84.7811 97.4824 85.5041C97.4824 86.2272 97.7174 86.8297 98.0006 86.8297C98.2838 86.8297 98.5248 86.2392 98.5248 85.5041Z" fill="#38282B"/>
<path d="M188.554 145.389L193.663 142.328L193.302 132.808L193.169 132.76L187.729 136.978L188.554 145.389Z" fill="#67AACE"/>
<path d="M243.859 15.7862V96.0604C243.859 98.9368 242.717 101.695 240.683 103.729C238.649 105.763 235.89 106.906 233.014 106.906L120.511 106.906C117.634 106.906 114.876 105.763 112.842 103.729C110.808 101.695 109.665 98.9368 109.665 96.0604V15.7862C109.665 12.9098 110.808 10.1513 112.842 8.11735C114.876 6.08344 117.634 4.9408 120.511 4.9408L233.008 4.9408C234.433 4.94001 235.844 5.21995 237.16 5.76462C238.477 6.3093 239.673 7.10805 240.681 8.11522C241.688 9.12239 242.488 10.3182 243.033 11.6345C243.579 12.9507 243.859 14.3615 243.859 15.7862Z" fill="#F7F7F7"/>
<path d="M243.853 26.728V13.6352C243.852 11.3308 242.936 9.12122 241.307 7.49122C239.678 5.86122 237.469 4.94399 235.165 4.9408H118.354C116.048 4.94239 113.838 5.85892 112.207 7.48909C110.577 9.11927 109.661 11.3298 109.659 13.6352V26.728H243.853Z" fill="#006837"/>
<path d="M130.747 9.11016C130.747 8.54411 130.58 7.99077 130.265 7.52012C129.951 7.04947 129.504 6.68264 128.981 6.46603C128.458 6.24941 127.882 6.19273 127.327 6.30316C126.772 6.41359 126.262 6.68617 125.862 7.08643C125.461 7.48668 125.189 7.99664 125.078 8.55181C124.968 9.10698 125.025 9.68243 125.241 10.2054C125.458 10.7284 125.825 11.1753 126.295 11.4898C126.766 11.8043 127.319 11.9721 127.885 11.9721C128.644 11.9721 129.372 11.6706 129.909 11.1339C130.446 10.5972 130.747 9.8692 130.747 9.11016Z" fill="#012312"/>
<path d="M142.973 9.11016C142.973 8.54411 142.805 7.99077 142.491 7.52012C142.176 7.04947 141.729 6.68264 141.206 6.46603C140.683 6.24941 140.108 6.19273 139.553 6.30316C138.997 6.41359 138.488 6.68617 138.087 7.08643C137.687 7.48668 137.414 7.99664 137.304 8.55181C137.194 9.10698 137.25 9.68243 137.467 10.2054C137.683 10.7284 138.05 11.1753 138.521 11.4898C138.992 11.8043 139.545 11.9721 140.111 11.9721C140.87 11.9721 141.598 11.6706 142.135 11.1339C142.671 10.5972 142.973 9.8692 142.973 9.11016Z" fill="#012312"/>
<path d="M155.186 9.11016C155.186 8.54411 155.018 7.99077 154.704 7.52012C154.389 7.04947 153.942 6.68264 153.419 6.46603C152.896 6.24941 152.321 6.19273 151.766 6.30316C151.21 6.41359 150.7 6.68617 150.3 7.08643C149.9 7.48668 149.627 7.99664 149.517 8.55181C149.406 9.10698 149.463 9.68243 149.68 10.2054C149.896 10.7284 150.263 11.1753 150.734 11.4898C151.205 11.8043 151.758 11.9721 152.324 11.9721C153.083 11.9721 153.811 11.6706 154.348 11.1339C154.884 10.5972 155.186 9.8692 155.186 9.11016Z" fill="#012312"/>
<path d="M167.405 9.11016C167.405 8.54411 167.237 7.99077 166.923 7.52012C166.608 7.04947 166.161 6.68264 165.638 6.46603C165.115 6.24941 164.54 6.19273 163.985 6.30316C163.43 6.41359 162.92 6.68617 162.519 7.08643C162.119 7.48668 161.847 7.99664 161.736 8.55181C161.626 9.10698 161.682 9.68243 161.899 10.2054C162.116 10.7284 162.482 11.1753 162.953 11.4898C163.424 11.8043 163.977 11.9721 164.543 11.9721C165.302 11.9721 166.03 11.6706 166.567 11.1339C167.104 10.5972 167.405 9.8692 167.405 9.11016Z" fill="#012312"/>
<path d="M179.618 9.11016C179.618 8.54411 179.45 7.99077 179.136 7.52012C178.821 7.04947 178.374 6.68264 177.851 6.46603C177.328 6.24941 176.753 6.19273 176.198 6.30316C175.643 6.41359 175.133 6.68617 174.732 7.08643C174.332 7.48668 174.059 7.99664 173.949 8.55181C173.839 9.10698 173.895 9.68243 174.112 10.2054C174.329 10.7284 174.695 11.1753 175.166 11.4898C175.637 11.8043 176.19 11.9721 176.756 11.9721C177.132 11.9729 177.505 11.8995 177.852 11.7559C178.2 11.6124 178.516 11.4016 178.782 11.1357C179.047 10.8697 179.258 10.5539 179.402 10.2063C179.545 9.85874 179.619 9.48622 179.618 9.11016Z" fill="#012312"/>
<path d="M191.837 9.11016C191.837 8.54411 191.669 7.99077 191.355 7.52012C191.04 7.04947 190.593 6.68264 190.07 6.46603C189.548 6.24941 188.972 6.19273 188.417 6.30316C187.862 6.41359 187.352 6.68617 186.952 7.08643C186.551 7.48668 186.279 7.99664 186.168 8.55181C186.058 9.10698 186.115 9.68243 186.331 10.2054C186.548 10.7284 186.915 11.1753 187.385 11.4898C187.856 11.8043 188.409 11.9721 188.975 11.9721C189.734 11.9721 190.462 11.6706 190.999 11.1339C191.536 10.5972 191.837 9.8692 191.837 9.11016Z" fill="#012312"/>
<path d="M204.051 9.11016C204.051 8.54411 203.883 7.99077 203.568 7.52012C203.254 7.04947 202.807 6.68264 202.284 6.46603C201.761 6.24941 201.185 6.19273 200.63 6.30316C200.075 6.41359 199.565 6.68617 199.165 7.08643C198.765 7.48668 198.492 7.99664 198.382 8.55181C198.271 9.10698 198.328 9.68243 198.545 10.2054C198.761 10.7284 199.128 11.1753 199.599 11.4898C200.069 11.8043 200.623 11.9721 201.189 11.9721C201.565 11.9729 201.937 11.8995 202.285 11.7559C202.632 11.6124 202.948 11.4016 203.214 11.1357C203.48 10.8697 203.691 10.5539 203.834 10.2063C203.978 9.85874 204.051 9.48622 204.051 9.11016Z" fill="#012312"/>
<path d="M216.27 9.11016C216.27 8.54411 216.102 7.99077 215.788 7.52012C215.473 7.04947 215.026 6.68264 214.503 6.46603C213.98 6.24941 213.405 6.19273 212.85 6.30316C212.294 6.41359 211.784 6.68617 211.384 7.08643C210.984 7.48668 210.711 7.99664 210.601 8.55181C210.49 9.10698 210.547 9.68243 210.764 10.2054C210.98 10.7284 211.347 11.1753 211.818 11.4898C212.289 11.8043 212.842 11.9721 213.408 11.9721C214.167 11.9721 214.895 11.6706 215.432 11.1339C215.968 10.5972 216.27 9.8692 216.27 9.11016Z" fill="#012312"/>
<path d="M228.483 9.11016C228.483 8.54411 228.315 7.99077 228 7.52012C227.686 7.04947 227.239 6.68264 226.716 6.46603C226.193 6.24941 225.618 6.19273 225.062 6.30316C224.507 6.41359 223.997 6.68617 223.597 7.08643C223.197 7.48668 222.924 7.99664 222.814 8.55181C222.703 9.10698 222.76 9.68243 222.977 10.2054C223.193 10.7284 223.56 11.1753 224.031 11.4898C224.501 11.8043 225.055 11.9721 225.621 11.9721C225.997 11.9729 226.369 11.8995 226.717 11.7559C227.065 11.6124 227.38 11.4016 227.646 11.1357C227.912 10.8697 228.123 10.5539 228.267 10.2063C228.41 9.85874 228.484 9.48622 228.483 9.11016Z" fill="#012312"/>
<path d="M128.717 0H127.066C126.527 0 126.09 0.437009 126.09 0.976088V8.13407C126.09 8.67315 126.527 9.11015 127.066 9.11015H128.717C129.256 9.11015 129.693 8.67315 129.693 8.13407V0.976088C129.693 0.437009 129.256 0 128.717 0Z" fill="#5E5E5E"/>
<path d="M140.111 9.11015C139.631 9.11015 139.172 8.91971 138.833 8.58073C138.494 8.24174 138.303 7.78198 138.303 7.30258V1.80757C138.303 1.32817 138.494 0.86841 138.833 0.529425C139.172 0.19044 139.631 0 140.111 0C140.59 0 141.05 0.19044 141.389 0.529425C141.728 0.86841 141.918 1.32817 141.918 1.80757V7.31463C141.915 7.79194 141.723 8.24861 141.385 8.585C141.046 8.92138 140.588 9.11016 140.111 9.11015Z" fill="#5E5E5E"/>
<path d="M152.324 9.11015C151.845 9.11015 151.385 8.91971 151.046 8.58073C150.707 8.24174 150.517 7.78198 150.517 7.30258V1.80757C150.517 1.32817 150.707 0.86841 151.046 0.529425C151.385 0.19044 151.845 0 152.324 0C152.804 0 153.263 0.19044 153.602 0.529425C153.941 0.86841 154.132 1.32817 154.132 1.80757V7.31463C154.129 7.79194 153.937 8.24861 153.598 8.585C153.259 8.92138 152.801 9.11016 152.324 9.11015Z" fill="#5E5E5E"/>
<path d="M164.543 9.11015C164.064 9.11015 163.604 8.91971 163.265 8.58073C162.926 8.24174 162.736 7.78198 162.736 7.30258V1.80757C162.736 1.32817 162.926 0.86841 163.265 0.529425C163.604 0.19044 164.064 0 164.543 0C165.023 0 165.483 0.19044 165.822 0.529425C166.161 0.86841 166.351 1.32817 166.351 1.80757V7.31463C166.348 7.79194 166.156 8.24861 165.817 8.585C165.479 8.92138 165.021 9.11016 164.543 9.11015Z" fill="#5E5E5E"/>
<path d="M176.756 9.11015C176.277 9.11015 175.817 8.91971 175.478 8.58073C175.139 8.24174 174.949 7.78198 174.949 7.30258V1.80757C174.949 1.32817 175.139 0.86841 175.478 0.529425C175.817 0.19044 176.277 0 176.756 0C177.236 0 177.695 0.19044 178.034 0.529425C178.373 0.86841 178.564 1.32817 178.564 1.80757V7.31463C178.561 7.79194 178.369 8.24861 178.03 8.585C177.692 8.92138 177.234 9.11016 176.756 9.11015Z" fill="#5E5E5E"/>
<path d="M189.801 0H188.15C187.611 0 187.174 0.437009 187.174 0.976088V8.13407C187.174 8.67315 187.611 9.11015 188.15 9.11015H189.801C190.34 9.11015 190.777 8.67315 190.777 8.13407V0.976088C190.777 0.437009 190.34 0 189.801 0Z" fill="#5E5E5E"/>
<path d="M201.188 9.11015C200.709 9.11015 200.249 8.91971 199.91 8.58073C199.571 8.24174 199.381 7.78198 199.381 7.30258V1.80757C199.381 1.32817 199.571 0.86841 199.91 0.529425C200.249 0.19044 200.709 0 201.188 0C201.668 0 202.128 0.19044 202.467 0.529425C202.806 0.86841 202.996 1.32817 202.996 1.80757V7.31463C202.993 7.79194 202.801 8.24861 202.462 8.585C202.124 8.92138 201.666 9.11016 201.188 9.11015Z" fill="#5E5E5E"/>
<path d="M213.408 9.11015C212.928 9.11015 212.468 8.91971 212.13 8.58073C211.791 8.24174 211.6 7.78198 211.6 7.30258V1.80757C211.6 1.32817 211.791 0.86841 212.13 0.529425C212.468 0.19044 212.928 0 213.408 0C213.887 0 214.347 0.19044 214.686 0.529425C215.025 0.86841 215.215 1.32817 215.215 1.80757V7.31463C215.212 7.79194 215.02 8.24861 214.682 8.585C214.343 8.92138 213.885 9.11016 213.408 9.11015Z" fill="#5E5E5E"/>
<path d="M225.621 9.11015C225.142 9.11015 224.682 8.91971 224.343 8.58073C224.004 8.24174 223.813 7.78198 223.813 7.30258V1.80757C223.813 1.32817 224.004 0.86841 224.343 0.529425C224.682 0.19044 225.142 0 225.621 0C226.1 0 226.56 0.19044 226.899 0.529425C227.238 0.86841 227.429 1.32817 227.429 1.80757V7.31463C227.425 7.79194 227.234 8.24861 226.895 8.585C226.556 8.92138 226.098 9.11016 225.621 9.11015Z" fill="#5E5E5E"/>
<path opacity="0.21" d="M129.271 51.9556H116.817V64.4097H129.271V51.9556Z" fill="#006837"/>
<path opacity="0.21" d="M129.271 68.2358H116.817V80.69H129.271V68.2358Z" fill="#006837"/>
<path opacity="0.21" d="M129.271 84.516H116.817V96.9701H129.271V84.516Z" fill="#006837"/>
<path opacity="0.21" d="M147.179 51.9556H134.725V64.4097H147.179V51.9556Z" fill="#006837"/>
<path opacity="0.21" d="M147.179 68.2358H134.725V80.69H147.179V68.2358Z" fill="#006837"/>
<path opacity="0.21" d="M147.179 84.516H134.725V96.9701H147.179V84.516Z" fill="#006837"/>
<path d="M165.08 35.6754H152.625V48.1296H165.08V35.6754Z" fill="#006930"/>
<path opacity="0.21" d="M165.08 51.9556H152.625V64.4097H165.08V51.9556Z" fill="#006837"/>
<path opacity="0.21" d="M165.08 68.2358H152.625V80.69H165.08V68.2358Z" fill="#006837"/>
<path opacity="0.21" d="M165.08 84.516H152.625V96.9701H165.08V84.516Z" fill="#006837"/>
<path opacity="0.21" d="M182.986 35.6754H170.532V48.1296H182.986V35.6754Z" fill="#006837"/>
<path opacity="0.21" d="M182.986 51.9556H170.532V64.4097H182.986V51.9556Z" fill="#006837"/>
<path opacity="0.21" d="M182.986 68.2358H170.532V80.69H182.986V68.2358Z" fill="#006837"/>
<path opacity="0.21" d="M182.986 84.516H170.532V96.9701H182.986V84.516Z" fill="#006837"/>
<path opacity="0.21" d="M200.887 35.6754H188.433V48.1296H200.887V35.6754Z" fill="#006837"/>
<path opacity="0.21" d="M200.887 51.9556H188.433V64.4097H200.887V51.9556Z" fill="#006837"/>
<path opacity="0.21" d="M200.887 68.2358H188.433V80.69H200.887V68.2358Z" fill="#006837"/>
<path opacity="0.21" d="M200.887 84.516H188.433V96.9701H200.887V84.516Z" fill="#006837"/>
<path opacity="0.21" d="M218.794 35.6754H206.34V48.1296H218.794V35.6754Z" fill="#006837"/>
<path opacity="0.21" d="M218.794 51.9556H206.34V64.4097H218.794V51.9556Z" fill="#006837"/>
<path opacity="0.21" d="M218.794 68.2358H206.34V80.69H218.794V68.2358Z" fill="#006837"/>
<path opacity="0.21" d="M218.794 84.516H206.34V96.9701H218.794V84.516Z" fill="#006837"/>
<path d="M236.695 35.6754H224.241V48.1296H236.695V35.6754Z" fill="#006837"/>
<path d="M236.695 51.9556H224.241V64.4097H236.695V51.9556Z" fill="#006837"/>
<path d="M236.695 68.2358H224.241V80.69H236.695V68.2358Z" fill="#006837"/>
<path d="M236.695 84.516H224.241V96.9701H236.695V84.516Z" fill="#006837"/>
<path d="M160.078 49.9191C158.113 49.9203 156.191 49.3386 154.557 48.2476C152.922 47.1565 151.648 45.6052 150.895 43.7898C150.142 41.9744 149.944 39.9765 150.327 38.0488C150.71 36.1211 151.655 34.3502 153.045 32.9601C154.434 31.5699 156.204 30.6231 158.132 30.2392C160.059 29.8554 162.057 30.0518 163.873 30.8036C165.689 31.5554 167.241 32.8289 168.333 34.4629C169.425 36.0969 170.008 38.0181 170.008 39.9835C170.005 42.6165 168.958 45.1409 167.096 47.0034C165.235 48.8658 162.711 49.9143 160.078 49.9191ZM160.078 30.6383C158.226 30.6383 156.416 31.1875 154.876 32.2163C153.337 33.2452 152.137 34.7075 151.428 36.4184C150.719 38.1293 150.534 40.0119 150.895 41.8282C151.256 43.6445 152.148 45.3129 153.458 46.6223C154.767 47.9318 156.435 48.8236 158.252 49.1848C160.068 49.5461 161.951 49.3607 163.662 48.652C165.372 47.9433 166.835 46.7432 167.864 45.2035C168.892 43.6637 169.442 41.8534 169.442 40.0015C169.443 37.5161 168.458 35.1318 166.702 33.3726C164.946 31.6134 162.564 30.6234 160.078 30.6203V30.6383Z" fill="#EDAA00"/>
<path d="M160.079 47.1354C158.662 47.1366 157.278 46.7177 156.1 45.9316C154.921 45.1455 154.003 44.0277 153.461 42.7195C152.918 41.4113 152.776 39.9715 153.052 38.5825C153.328 37.1934 154.01 35.9174 155.011 34.916C156.012 33.9146 157.288 33.2327 158.678 32.9567C160.067 32.6807 161.506 32.823 162.815 33.3655C164.123 33.908 165.241 34.8264 166.027 36.0044C166.813 37.1825 167.232 38.5672 167.231 39.9835C167.227 41.8793 166.473 43.6966 165.132 45.0371C163.792 46.3777 161.974 47.1322 160.079 47.1354ZM160.079 33.3979C158.776 33.3979 157.503 33.7841 156.42 34.5078C155.337 35.2314 154.493 36.2599 153.994 37.4633C153.496 38.6666 153.365 39.9908 153.62 41.2682C153.874 42.5457 154.501 43.7192 155.422 44.6402C156.343 45.5612 157.516 46.1884 158.794 46.4425C160.071 46.6966 161.395 46.5662 162.599 46.0677C163.802 45.5693 164.831 44.7252 165.554 43.6422C166.278 42.5592 166.664 41.286 166.664 39.9835C166.661 38.2378 165.966 36.5646 164.732 35.3303C163.497 34.0959 161.824 33.4011 160.079 33.3979Z" fill="#EDAA00"/>
<path d="M160.078 44.8097C159.125 44.8097 158.193 44.527 157.401 43.9973C156.608 43.4677 155.99 42.7149 155.625 41.8341C155.26 40.9533 155.165 39.9842 155.351 39.0491C155.537 38.1141 155.996 37.2552 156.67 36.5811C157.344 35.907 158.203 35.4479 159.138 35.2619C160.073 35.0759 161.042 35.1714 161.923 35.5362C162.804 35.9011 163.557 36.5189 164.086 37.3115C164.616 38.1042 164.899 39.0362 164.899 39.9895C164.899 41.2679 164.391 42.4939 163.487 43.3979C162.583 44.3019 161.357 44.8097 160.078 44.8097ZM160.078 35.7236C159.236 35.7236 158.412 35.9735 157.712 36.4415C157.011 36.9096 156.465 37.5749 156.143 38.3533C155.82 39.1317 155.736 39.9882 155.901 40.8145C156.065 41.6409 156.471 42.3999 157.066 42.9956C157.662 43.5914 158.421 43.9971 159.247 44.1615C160.074 44.3258 160.93 44.2415 161.709 43.9191C162.487 43.5966 163.152 43.0506 163.62 42.3501C164.089 41.6496 164.338 40.826 164.338 39.9835C164.337 38.8542 163.887 37.7716 163.089 36.9731C162.29 36.1745 161.208 35.7252 160.078 35.7236Z" fill="#EDAA00"/>
<path d="M266.689 105.538V158.753C266.686 159.644 266.33 160.498 265.698 161.127C265.067 161.756 264.212 162.109 263.321 162.109H215.667C214.777 162.109 213.922 161.756 213.292 161.126C212.662 160.497 212.307 159.644 212.305 158.753V105.538C212.305 105.097 212.392 104.66 212.561 104.252C212.73 103.845 212.978 103.475 213.29 103.163C213.603 102.851 213.973 102.604 214.381 102.436C214.789 102.267 215.226 102.181 215.667 102.182H263.303C263.746 102.179 264.185 102.263 264.595 102.43C265.006 102.598 265.379 102.844 265.694 103.156C266.008 103.468 266.258 103.839 266.429 104.248C266.6 104.656 266.688 105.095 266.689 105.538Z" fill="#EDEDED"/>
<path d="M223.572 118.751L223.976 117.854C224.403 118.124 224.898 118.271 225.404 118.275C225.91 118.275 226.109 118.137 226.109 117.926C226.109 117.239 223.645 117.739 223.645 116.118C223.645 115.341 224.277 114.714 225.561 114.714C226.113 114.699 226.661 114.826 227.151 115.082L226.772 115.992C226.404 115.782 225.99 115.668 225.567 115.66C225.054 115.66 224.868 115.829 224.868 116.046C224.868 116.709 227.32 116.215 227.32 117.811C227.32 118.565 226.717 119.203 225.41 119.203C224.767 119.231 224.129 119.074 223.572 118.751Z" fill="#006930"/>
<path d="M228.567 117.215V114.805H229.772V117.167C229.772 117.908 230.08 118.203 230.592 118.203C231.104 118.203 231.405 117.908 231.405 117.167V114.805H232.61V117.215C232.61 117.753 232.396 118.27 232.016 118.651C231.635 119.031 231.118 119.245 230.58 119.245C230.041 119.245 229.525 119.031 229.144 118.651C228.763 118.27 228.549 117.753 228.549 117.215H228.567Z" fill="#006930"/>
<path d="M238.298 114.817V119.143H237.292L235.382 116.835V119.143H234.177V114.817H235.189L237.093 117.125V114.817H238.298Z" fill="#006930"/>
<path d="M239.895 114.817H241.937C243.371 114.817 244.347 115.654 244.347 116.98C244.347 118.306 243.365 119.143 241.937 119.143H239.895V114.817ZM241.889 118.167C242.062 118.197 242.24 118.189 242.41 118.144C242.579 118.098 242.737 118.016 242.872 117.903C243.007 117.79 243.115 117.648 243.189 117.489C243.263 117.33 243.302 117.156 243.302 116.98C243.302 116.804 243.263 116.63 243.189 116.471C243.115 116.312 243.007 116.17 242.872 116.057C242.737 115.944 242.579 115.862 242.41 115.816C242.24 115.771 242.062 115.763 241.889 115.793H241.118V118.167H241.889Z" fill="#006930"/>
<path d="M248.559 118.306H246.751L246.408 119.143H245.161L247.071 114.817H248.276L250.192 119.143H248.914L248.559 118.306ZM248.197 117.402L247.643 116.016L247.089 117.402H248.197Z" fill="#006930"/>
<path d="M253.289 117.595V119.143H252.084V117.576L250.433 114.817H251.729L252.753 116.534L253.777 114.817H254.982L253.289 117.595Z" fill="#006930"/>
<path d="M227.814 120.222V124.289H227.399V120.595H226.435V120.222H227.814Z" fill="#006930"/>
<path d="M232.243 123.222H231.429V124.289H231.008V123.222H228.712V122.915L230.869 120.216H231.333L229.254 122.843H231.02V121.903H231.429V122.843H232.243V123.222Z" fill="#006930"/>
<path d="M232.659 121.523C232.645 121.476 232.643 121.427 232.652 121.38C232.661 121.332 232.68 121.287 232.71 121.248C232.739 121.21 232.777 121.178 232.82 121.157C232.863 121.135 232.911 121.124 232.96 121.124C233.008 121.124 233.056 121.135 233.1 121.157C233.143 121.178 233.181 121.21 233.21 121.248C233.239 121.287 233.259 121.332 233.268 121.38C233.277 121.427 233.274 121.476 233.261 121.523C233.274 121.57 233.277 121.619 233.268 121.666C233.259 121.714 233.239 121.759 233.21 121.798C233.181 121.836 233.143 121.868 233.1 121.89C233.056 121.911 233.008 121.922 232.96 121.922C232.911 121.922 232.863 121.911 232.82 121.89C232.777 121.868 232.739 121.836 232.71 121.798C232.68 121.759 232.661 121.714 232.652 121.666C232.643 121.619 232.645 121.57 232.659 121.523ZM232.659 123.999C232.645 123.953 232.643 123.904 232.652 123.856C232.661 123.808 232.68 123.763 232.71 123.725C232.739 123.686 232.777 123.655 232.82 123.633C232.863 123.611 232.911 123.6 232.96 123.6C233.008 123.6 233.056 123.611 233.1 123.633C233.143 123.655 233.181 123.686 233.21 123.725C233.239 123.763 233.259 123.808 233.268 123.856C233.277 123.904 233.274 123.953 233.261 123.999C233.274 124.046 233.277 124.095 233.268 124.143C233.259 124.19 233.239 124.235 233.21 124.274C233.181 124.313 233.143 124.344 233.1 124.366C233.056 124.388 233.008 124.399 232.96 124.399C232.911 124.399 232.863 124.388 232.82 124.366C232.777 124.344 232.739 124.313 232.71 124.274C232.68 124.235 232.661 124.19 232.652 124.143C232.643 124.095 232.645 124.046 232.659 123.999Z" fill="#006930"/>
<path d="M236.575 123.12C236.575 123.801 236.081 124.325 235.098 124.325C234.562 124.342 234.038 124.154 233.634 123.801L233.839 123.469C234.183 123.782 234.634 123.95 235.098 123.939C235.773 123.939 236.147 123.626 236.147 123.12C236.147 122.614 235.803 122.312 235.05 122.312H234.761V122.005L235.888 120.595H233.779V120.222H236.394V120.505L235.243 121.957C236.141 122.011 236.575 122.469 236.575 123.12Z" fill="#006930"/>
<path d="M237.159 122.258C237.159 120.963 237.84 120.185 238.78 120.185C239.72 120.185 240.407 120.963 240.407 122.258C240.407 123.554 239.726 124.325 238.78 124.325C237.834 124.325 237.159 123.554 237.159 122.258ZM239.979 122.258C239.979 121.168 239.491 120.571 238.774 120.571C238.057 120.571 237.569 121.174 237.569 122.258C237.569 123.343 238.057 123.939 238.774 123.939C239.491 123.939 239.979 123.343 239.979 122.258Z" fill="#006930"/>
<path d="M246.07 121.619C246.07 122.481 245.468 123.005 244.408 123.005H243.317V124.289H242.889V120.222H244.408C245.444 120.222 246.07 120.746 246.07 121.619ZM245.643 121.619C245.643 120.969 245.209 120.595 244.395 120.595H243.317V122.626H244.395C245.227 122.626 245.643 122.258 245.643 121.619Z" fill="#006930"/>
<path d="M251.253 120.222V124.289H250.837V121.035L249.24 123.77H249.035L247.439 121.053V124.289H247.029V120.222H247.384L249.15 123.234L250.897 120.222H251.253Z" fill="#006930"/>
<path d="M253.482 155.108H225.513C224.32 155.108 223.176 154.634 222.332 153.791C221.488 152.949 221.013 151.805 221.012 150.613C221.013 149.42 221.488 148.276 222.332 147.432C223.175 146.588 224.319 146.114 225.513 146.112H253.482C254.674 146.114 255.818 146.588 256.66 147.432C257.503 148.276 257.977 149.42 257.977 150.613C257.977 151.805 257.503 152.948 256.66 153.791C255.817 154.634 254.674 155.108 253.482 155.108Z" fill="#006930"/>
<path d="M228.959 151.004C228.959 151.444 228.634 151.697 227.989 151.697H226.784V149.113H227.905C228.477 149.113 228.809 149.354 228.809 149.775C228.817 149.905 228.783 150.033 228.712 150.141C228.642 150.25 228.538 150.333 228.417 150.378C228.57 150.393 228.712 150.467 228.813 150.583C228.914 150.7 228.966 150.85 228.959 151.004ZM227.073 149.335V150.275H227.893C228.309 150.275 228.55 150.119 228.55 149.805C228.55 149.492 228.309 149.335 227.893 149.335H227.073ZM228.688 150.986C228.688 150.649 228.441 150.498 227.983 150.498H227.091V151.474H228.001C228.459 151.474 228.706 151.324 228.706 150.986H228.688Z" fill="white"/>
<path d="M229.808 150.408C229.799 150.137 229.87 149.869 230.014 149.639C230.158 149.409 230.367 149.227 230.615 149.116C230.863 149.006 231.138 148.972 231.405 149.019C231.672 149.066 231.919 149.191 232.115 149.38C232.31 149.568 232.445 149.81 232.501 150.076C232.558 150.341 232.534 150.617 232.432 150.869C232.331 151.121 232.156 151.336 231.931 151.488C231.707 151.64 231.442 151.721 231.17 151.721C230.993 151.73 230.817 151.702 230.651 151.639C230.485 151.577 230.334 151.481 230.206 151.358C230.079 151.235 229.978 151.087 229.909 150.924C229.841 150.761 229.807 150.585 229.808 150.408ZM232.255 150.408C232.26 150.191 232.199 149.978 232.082 149.795C231.965 149.612 231.796 149.469 231.597 149.383C231.398 149.297 231.178 149.272 230.964 149.312C230.751 149.352 230.554 149.454 230.4 149.606C230.245 149.758 230.139 149.953 230.096 150.166C230.052 150.378 230.074 150.599 230.156 150.8C230.239 151 230.38 151.172 230.56 151.292C230.741 151.412 230.953 151.476 231.17 151.474C231.312 151.479 231.454 151.455 231.587 151.404C231.719 151.352 231.84 151.274 231.942 151.174C232.043 151.074 232.123 150.955 232.177 150.823C232.231 150.692 232.257 150.55 232.255 150.408Z" fill="white"/>
<path d="M233.345 150.408C233.335 150.137 233.407 149.869 233.551 149.639C233.694 149.409 233.904 149.227 234.151 149.116C234.399 149.006 234.674 148.972 234.942 149.019C235.209 149.066 235.456 149.191 235.651 149.38C235.847 149.568 235.981 149.81 236.038 150.076C236.094 150.341 236.07 150.617 235.969 150.869C235.867 151.121 235.693 151.336 235.468 151.488C235.243 151.64 234.978 151.721 234.707 151.721C234.53 151.73 234.353 151.702 234.187 151.639C234.022 151.577 233.87 151.481 233.743 151.358C233.615 151.235 233.514 151.087 233.446 150.924C233.378 150.761 233.343 150.585 233.345 150.408ZM235.791 150.408C235.796 150.191 235.736 149.978 235.619 149.795C235.502 149.612 235.333 149.469 235.134 149.383C234.935 149.297 234.714 149.272 234.501 149.312C234.288 149.352 234.091 149.454 233.936 149.606C233.782 149.758 233.676 149.953 233.632 150.166C233.589 150.378 233.61 150.599 233.693 150.8C233.776 151 233.916 151.172 234.097 151.292C234.277 151.412 234.49 151.476 234.707 151.474C234.849 151.479 234.991 151.455 235.123 151.404C235.256 151.352 235.377 151.274 235.478 151.174C235.58 151.074 235.66 150.955 235.714 150.823C235.767 150.692 235.794 150.55 235.791 150.408Z" fill="white"/>
<path d="M237.912 150.48L237.382 151.017V151.697H237.111V149.113H237.394V150.673L238.918 149.113H239.202L238.081 150.281L239.286 151.697H238.961L237.912 150.48Z" fill="white"/>
<path d="M243.739 149.113V151.697H243.516L241.853 149.601V151.697H241.576V149.113H241.805L243.468 151.209V149.113H243.739Z" fill="white"/>
<path d="M244.787 150.408C244.778 150.137 244.85 149.869 244.993 149.639C245.137 149.409 245.346 149.227 245.594 149.116C245.842 149.006 246.117 148.972 246.384 149.019C246.651 149.066 246.898 149.191 247.094 149.38C247.289 149.568 247.424 149.81 247.48 150.076C247.537 150.341 247.513 150.617 247.411 150.869C247.31 151.121 247.135 151.336 246.91 151.488C246.686 151.64 246.421 151.721 246.149 151.721C245.972 151.73 245.796 151.702 245.63 151.639C245.464 151.577 245.313 151.481 245.185 151.358C245.058 151.235 244.957 151.087 244.888 150.924C244.82 150.761 244.786 150.585 244.787 150.408ZM247.234 150.408C247.239 150.191 247.179 149.978 247.061 149.795C246.944 149.612 246.775 149.469 246.576 149.383C246.377 149.297 246.157 149.272 245.943 149.312C245.73 149.352 245.533 149.454 245.379 149.606C245.224 149.758 245.118 149.953 245.075 150.166C245.032 150.378 245.053 150.599 245.135 150.8C245.218 151 245.359 151.172 245.539 151.292C245.72 151.412 245.932 151.476 246.149 151.474C246.291 151.479 246.433 151.455 246.566 151.404C246.698 151.352 246.819 151.274 246.921 151.174C247.022 151.074 247.102 150.955 247.156 150.823C247.21 150.692 247.236 150.55 247.234 150.408Z" fill="white"/>
<path d="M252.029 149.113L251.156 151.697H250.867L250.107 149.492L249.348 151.697H249.065L248.191 149.113H248.475L249.222 151.336L249.993 149.113H250.246L251.011 151.348L251.764 149.113H252.029Z" fill="white"/>
<path d="M229.284 127.163H220.771C219.27 127.163 218.053 128.379 218.053 129.88V138.394C218.053 139.894 219.27 141.111 220.771 141.111H229.284C230.785 141.111 232.002 139.894 232.002 138.394V129.88C232.002 128.379 230.785 127.163 229.284 127.163Z" fill="#006930"/>
<path d="M225.157 128.759C224.324 128.741 223.511 129.019 222.862 129.543C222.214 130.066 221.772 130.803 221.614 131.621C221.517 132.13 221.54 132.654 221.68 133.152C222.556 135.388 223.678 137.52 225.024 139.508C226.711 136.55 228.103 134.688 228.374 133.152C228.456 132.851 228.499 132.541 228.501 132.23C228.5 131.331 228.151 130.468 227.528 129.821C226.905 129.174 226.055 128.793 225.157 128.759ZM225.024 133.917C224.691 133.917 224.365 133.818 224.087 133.633C223.81 133.447 223.593 133.184 223.466 132.875C223.338 132.567 223.305 132.228 223.37 131.901C223.435 131.573 223.596 131.273 223.831 131.037C224.067 130.801 224.368 130.64 224.695 130.575C225.023 130.51 225.362 130.543 225.67 130.671C225.978 130.799 226.242 131.015 226.427 131.292C226.613 131.57 226.711 131.896 226.711 132.23C226.712 132.452 226.669 132.671 226.585 132.876C226.5 133.081 226.376 133.268 226.219 133.424C226.062 133.581 225.876 133.706 225.671 133.79C225.466 133.875 225.246 133.918 225.024 133.917Z" fill="white"/>
<path d="M260.139 131.772H238.274C238.063 131.772 237.861 131.688 237.711 131.539C237.562 131.39 237.479 131.187 237.479 130.977C237.478 130.872 237.498 130.768 237.537 130.67C237.577 130.573 237.635 130.485 237.709 130.41C237.783 130.336 237.871 130.277 237.968 130.236C238.065 130.196 238.169 130.175 238.274 130.175H260.139C260.245 130.174 260.349 130.195 260.447 130.235C260.545 130.275 260.633 130.334 260.708 130.408C260.782 130.483 260.841 130.571 260.881 130.669C260.921 130.767 260.942 130.871 260.941 130.977C260.941 131.082 260.92 131.185 260.88 131.282C260.839 131.379 260.78 131.467 260.706 131.541C260.631 131.615 260.543 131.673 260.446 131.713C260.348 131.753 260.244 131.773 260.139 131.772Z" fill="#006930"/>
<path d="M260.139 134.965H238.274C238.062 134.964 237.86 134.879 237.711 134.728C237.562 134.578 237.479 134.375 237.479 134.164C237.479 133.953 237.562 133.751 237.711 133.601C237.861 133.452 238.063 133.369 238.274 133.369H260.139C260.244 133.368 260.348 133.388 260.446 133.427C260.543 133.467 260.631 133.525 260.706 133.599C260.78 133.673 260.839 133.761 260.88 133.858C260.92 133.955 260.941 134.059 260.941 134.164C260.941 134.376 260.856 134.58 260.706 134.731C260.556 134.881 260.352 134.965 260.139 134.965Z" fill="#006930"/>
<path d="M253.927 138.092H238.262C238.051 138.092 237.848 138.009 237.699 137.859C237.55 137.71 237.466 137.508 237.466 137.297C237.466 137.192 237.486 137.088 237.525 136.991C237.565 136.894 237.623 136.805 237.697 136.731C237.771 136.656 237.859 136.597 237.956 136.557C238.053 136.516 238.157 136.496 238.262 136.496H253.927C254.033 136.495 254.137 136.515 254.235 136.555C254.332 136.595 254.421 136.654 254.496 136.729C254.57 136.803 254.629 136.892 254.669 136.989C254.709 137.087 254.729 137.192 254.729 137.297C254.729 137.402 254.708 137.506 254.668 137.603C254.627 137.7 254.568 137.788 254.494 137.862C254.419 137.935 254.331 137.994 254.233 138.034C254.136 138.073 254.032 138.093 253.927 138.092Z" fill="#006930"/>
<path d="M266.689 105.538V109.545H212.305V105.538C212.305 105.097 212.392 104.66 212.561 104.252C212.73 103.845 212.978 103.475 213.29 103.163C213.603 102.851 213.973 102.604 214.381 102.436C214.789 102.267 215.226 102.181 215.667 102.182H263.303C263.746 102.179 264.185 102.263 264.595 102.43C265.006 102.598 265.379 102.844 265.694 103.156C266.008 103.468 266.258 103.839 266.429 104.248C266.6 104.656 266.688 105.095 266.689 105.538Z" fill="#006930"/>
<path d="M225.904 107.321H216.986C216.809 107.321 216.633 107.286 216.468 107.218C216.304 107.15 216.155 107.05 216.03 106.924C215.904 106.798 215.805 106.649 215.738 106.484C215.67 106.32 215.636 106.144 215.637 105.966C215.636 105.788 215.67 105.612 215.738 105.447C215.805 105.283 215.904 105.134 216.03 105.008C216.155 104.882 216.304 104.782 216.468 104.713C216.633 104.645 216.809 104.61 216.986 104.61H225.904C226.263 104.61 226.608 104.753 226.862 105.007C227.117 105.261 227.259 105.606 227.259 105.966C227.259 106.325 227.117 106.67 226.862 106.924C226.608 107.179 226.263 107.321 225.904 107.321Z" fill="white"/>
<g style="mix-blend-mode:multiply" opacity="0.3">
<path d="M203.123 216.625C229.99 216.625 251.771 214.262 251.771 211.347C251.771 208.432 229.99 206.069 203.123 206.069C176.255 206.069 154.475 208.432 154.475 211.347C154.475 214.262 176.255 216.625 203.123 216.625Z" fill="#326C91"/>
</g>
<path d="M162.41 49.5575C162.41 49.6855 162.436 49.8123 162.485 49.9303C162.535 50.0482 162.608 50.1551 162.699 50.2444C163.324 50.9033 164.09 51.4125 164.939 51.7338C165.788 52.0552 166.699 52.1804 167.604 52.1002C167.604 52.1002 168.996 53.6547 170.153 54.8417C170.402 55.1 170.637 55.3715 170.858 55.6551L179.112 66.2595L185.3 74.2128H185.427C185.473 73.7838 185.574 73.3626 185.728 72.9596C186.061 72.3407 186.174 71.6266 186.047 70.9351C185.987 70.7302 185.909 70.5374 185.836 70.3326L185.493 70.3928C184.661 69.8967 183.919 69.2631 183.3 68.519C182.574 67.658 182.151 66.5828 182.095 65.4581C182.081 65.1606 182.091 64.8623 182.125 64.5664C182.327 62.9865 182.637 61.4223 183.053 59.8848L169.996 47.6415C169.809 47.4608 169.628 47.28 169.46 47.0872L164.242 41.1825C164.073 41.0094 163.846 40.9048 163.604 40.8889C163.363 40.8729 163.124 40.9467 162.933 41.0961C162.743 41.2454 162.614 41.4598 162.572 41.6982C162.53 41.9365 162.578 42.182 162.705 42.3875L165.17 45.8279L166.098 47.1173L166.266 47.3583C166.415 47.5473 166.508 47.775 166.532 48.0145C166.556 48.2541 166.512 48.4956 166.403 48.7107C166.295 48.9258 166.128 49.1055 165.921 49.2289C165.714 49.3522 165.477 49.414 165.236 49.4069C164.967 49.4044 164.706 49.3181 164.489 49.1599L163.977 48.7863C163.855 48.6945 163.714 48.6324 163.565 48.6052C163.415 48.578 163.261 48.5864 163.115 48.6297C162.963 48.6754 162.824 48.7582 162.711 48.8707C162.525 49.0511 162.416 49.2979 162.41 49.5575Z" fill="#F28546"/>
<path d="M163.115 48.5995C163.261 48.5562 163.415 48.5479 163.565 48.5751C163.714 48.6023 163.856 48.6643 163.977 48.7562L164.489 49.1297C164.658 47.2559 166.098 47.1294 166.098 47.1294L165.17 45.84C165.17 45.84 163.115 46.0026 163.115 48.5995Z" fill="#DE7038"/>
<path d="M164.489 49.1298C164.706 49.288 164.967 49.3743 165.236 49.3768C165.472 49.3834 165.705 49.3238 165.909 49.2048C166.113 49.0857 166.279 48.912 166.39 48.7032C166.5 48.4945 166.55 48.259 166.533 48.0235C166.517 47.7879 166.435 47.5617 166.296 47.3704L166.128 47.1294C166.128 47.1294 164.657 47.2559 164.489 49.1298Z" fill="#DE7038"/>
<path d="M183.402 107.454C183.631 106.482 183.844 105.49 184.041 104.478C184.481 102.194 184.848 99.8743 185.137 97.7594C185.198 97.3497 185.252 96.946 185.3 96.5544C185.3 96.5544 182.233 93.6321 176.16 94.1925L174.991 104.658C174.991 104.658 174.051 108.496 173.328 110.449C172.608 113.545 172.123 116.691 171.876 119.86C171.876 119.86 171.153 132.019 167.899 138.755C167.899 138.755 167.08 140.496 168.622 142.659L171.876 147.04C171.97 147.168 172.102 147.264 172.253 147.313C172.404 147.362 172.567 147.361 172.719 147.312C172.87 147.262 173.002 147.166 173.095 147.037C173.188 146.908 173.238 146.753 173.237 146.594C173.239 146.441 173.193 146.291 173.105 146.166L171.948 144.497L172.816 145.311C172.923 145.408 173.062 145.464 173.207 145.467C173.36 145.465 173.507 145.405 173.617 145.299C173.715 145.188 173.77 145.046 173.77 144.898C173.77 144.75 173.715 144.608 173.617 144.497L171.809 142.539C171.508 142.217 171.316 141.808 171.261 141.37C171.182 140.777 171.255 140.174 171.472 139.617L171.948 138.412L172.755 141.424C172.818 141.658 172.955 141.866 173.147 142.014C173.339 142.162 173.574 142.243 173.816 142.244C173.903 142.243 173.99 142.233 174.075 142.214C174.349 142.146 174.587 141.977 174.741 141.742C174.895 141.506 174.954 141.22 174.906 140.942C174.61 139.026 174.443 137.091 174.406 135.152C174.407 133.202 174.635 131.259 175.087 129.362C175.155 129.1 175.237 128.843 175.334 128.591L175.786 127.494L176.925 124.686L180.076 116.938L182.179 111.774C182.257 111.581 182.33 111.382 182.39 111.172C182.763 110.021 183.095 108.761 183.402 107.454Z" fill="#F28546"/>
<path d="M197.568 137.568L195.597 145.678C195.416 146.423 195.351 147.191 195.405 147.956L196.146 158.849C199.899 166.188 204.864 173.714 204.864 173.714C210.148 183.011 214.613 195.911 216.15 200.556C218.867 199.743 225.338 196.808 225.338 196.808C222.928 189.699 212.414 166.863 210.16 161.989C209.867 161.376 209.664 160.725 209.558 160.054L207.268 145.052C207.141 144.171 207.178 143.274 207.377 142.407C207.984 139.601 208.003 136.7 207.433 133.886C206.862 131.072 205.715 128.408 204.063 126.06C201.81 125.251 199.48 124.678 197.11 124.349C194.622 123.99 192.109 123.839 189.596 123.897C188.756 123.915 187.919 123.994 187.09 124.132C184.985 124.483 182.86 124.704 180.727 124.795C179.492 124.838 178.254 124.812 177.022 124.716L176.925 124.68L175.786 127.488C175.455 140.237 180.233 163.079 180.233 163.079C182.794 178.534 183.173 194.26 183.246 200.026C186.298 200.724 189.438 200.962 192.561 200.731C193.23 191.458 192.561 166.513 192.561 166.513C192.168 161.161 192.154 155.787 192.519 150.432C193.055 143.232 194.224 139.822 194.224 139.822C195.488 139.321 196.629 138.552 197.568 137.568Z" fill="#006930"/>
<path d="M176.346 92.5115L176.16 94.1986C182.233 93.6382 185.3 96.5605 185.3 96.5605C185.39 95.8495 185.475 95.1686 185.553 94.536C185.553 94.536 182.39 92.1259 176.346 92.5115Z" fill="white"/>
<path d="M194.254 85.4077C193.271 85.1103 192.411 84.5038 191.801 83.6784C191.572 83.224 191.28 82.8042 190.934 82.4312C190.331 81.9431 189.5 81.9431 188.933 81.3587C188.612 81.0015 188.388 80.5679 188.283 80.0994C188.171 79.7391 188.13 79.3606 188.162 78.9848C188.236 78.6894 188.268 78.3852 188.259 78.081C188.216 77.7737 187.987 77.6231 187.71 77.5206V77.8038C186.314 77.7535 184.92 77.9347 183.583 78.3401C184.572 78.7271 185.466 79.3231 186.204 80.0874C187.68 81.7021 187.885 85.3775 185.511 86.3476C184.493 86.7633 183.33 86.3837 182.36 86.9863C181.39 87.5888 181.432 88.4986 180.835 89.2156C179.703 90.5894 177.973 90.2218 176.732 89.2156L176.365 92.5355C182.39 92.1619 185.571 94.56 185.571 94.56C185.493 95.1625 185.409 95.8735 185.318 96.5845C185.27 96.9701 185.216 97.3738 185.156 97.7895C186.849 99.1874 189.072 100.242 189.837 102.236C190.44 103.869 189.681 105.887 187.752 106.038C186.367 106.14 185.222 105.315 184.059 104.508C183.862 105.52 183.649 106.512 183.42 107.484C184.184 107.777 184.812 108.342 185.186 109.069C186.74 112.244 185.258 115.528 186.144 118.739C186.855 121.348 189.723 121.047 191.874 121.595C192.922 121.866 194.332 121.951 195.296 122.463C196.093 122.882 196.729 123.554 197.104 124.373C199.474 124.702 201.804 125.275 204.057 126.084C204.575 126.277 204.846 126.403 204.846 126.403C203.222 124.163 201.918 121.707 200.972 119.107C200.773 118.558 200.598 117.998 200.454 117.432C199.281 117.378 198.109 117.539 196.995 117.908C195.061 118.51 193.922 118.281 192.591 116.673C191.524 115.371 191.609 113.148 192.054 111.581C192.597 109.641 194.211 108.135 194.362 106.092C194.585 103.08 192.32 99.7055 194.88 97.0544C196.332 95.5542 199.02 95.5481 200.827 96.2049C201.725 96.532 202.584 96.9584 203.388 97.4762C204.065 94.4899 204.514 91.4565 204.732 88.4022C203.864 88.0731 202.912 88.0434 202.026 88.3178C201.912 88.3178 201.797 88.3781 201.683 88.4143C199.399 89.1795 197.845 91.6438 196.164 93.2706C194.959 94.4756 192.729 95.9277 190.964 95.0179C189.199 94.1081 189.759 91.0955 191.024 90.035C191.729 89.4325 192.753 89.2759 193.561 88.8661C194.171 88.5962 194.69 88.1545 195.053 87.595C195.417 87.0355 195.61 86.3823 195.609 85.7149C195.384 85.689 195.161 85.6508 194.941 85.6005C194.708 85.5484 194.479 85.484 194.254 85.4077Z" fill="#EDAA00"/>
<path d="M176.461 209.895C176.407 210.257 176.491 210.841 177.479 211.142C177.479 211.142 179.726 212.293 184.914 212.034C185.324 212.018 185.733 212.079 186.119 212.215C187.177 212.599 188.29 212.813 189.415 212.847H192.898C193.036 211.44 192.977 210.021 192.723 208.63C192.587 207.925 192.522 207.208 192.53 206.491V206.093C192.53 205.977 192.507 205.862 192.463 205.755C192.418 205.648 192.353 205.551 192.27 205.469C192.188 205.387 192.09 205.322 191.983 205.279C191.875 205.235 191.76 205.213 191.644 205.213H190.012C189.644 205.215 189.29 205.358 189.023 205.611C188.578 206.039 187.644 206.569 186.071 205.864C185.727 205.63 185.34 205.466 184.932 205.382C184.264 205.245 183.568 205.361 182.98 205.707L181.618 207.087C181.306 207.411 180.931 207.667 180.516 207.84L176.774 209.443C176.69 209.488 176.617 209.553 176.563 209.631C176.508 209.71 176.473 209.8 176.461 209.895Z" fill="white"/>
<path d="M177.028 86.42L176.714 89.1916C177.956 90.2219 179.685 90.5894 180.818 89.1916C181.42 88.4746 181.42 87.5166 182.342 86.9623C183.264 86.4079 184.475 86.7393 185.493 86.3236C187.867 85.3535 187.662 81.6781 186.186 80.0634C185.448 79.2991 184.554 78.7031 183.565 78.316C180.812 79.1716 177.624 81.2624 177.028 86.42Z" fill="#FFC152"/>
<path d="M180.082 116.926L176.931 124.674L177.028 124.71C178.26 124.806 179.497 124.832 180.733 124.789L180.082 116.926Z" fill="#FFC152"/>
<path d="M180.082 116.926L180.757 124.789C182.889 124.698 185.014 124.477 187.12 124.126C187.948 123.988 188.786 123.909 189.626 123.891C192.139 123.833 194.652 123.984 197.139 124.343C196.765 123.524 196.129 122.852 195.332 122.433C194.368 121.921 192.958 121.83 191.91 121.565C189.759 121.017 186.891 121.318 186.18 118.709C185.294 115.498 186.782 112.214 185.222 109.039C184.848 108.311 184.219 107.747 183.456 107.454C183.149 108.762 182.817 110.021 182.45 111.172C182.39 111.371 182.317 111.569 182.239 111.774L180.082 116.926Z" fill="#FFC152"/>
<path d="M182.107 64.6086C182.024 65.3149 182.089 66.0306 182.296 66.7108C182.503 67.391 182.849 68.021 183.312 68.5611C183.931 69.3053 184.673 69.9389 185.505 70.435L185.848 70.3747C185.612 69.9241 185.497 69.4192 185.517 68.9106C185.589 68.2779 185.686 68.1574 185.216 67.6513C184.647 67.1583 184.23 66.5151 184.011 65.7955C183.911 65.3572 183.911 64.9023 184.011 64.464C184.119 64.1085 184.402 63.8614 184.517 63.5421C184.716 62.9878 184.24 62.6323 184.059 62.0539C183.673 60.7886 184.812 59.8306 184.468 58.6074C184.238 57.9888 184.122 57.3335 184.125 56.6733H184.083C184.083 56.6733 183.589 58.035 183.089 59.933C182.655 61.4672 182.326 63.0294 182.107 64.6086Z" fill="#F28546"/>
<path d="M183.233 200.038C183.233 201.514 183.233 202.333 183.233 202.333L184.993 202.526L190.891 203.183L192.247 203.334C192.399 202.477 192.5 201.612 192.548 200.743C189.426 200.974 186.286 200.736 183.233 200.038Z" fill="#EDAA00"/>
<path d="M184.975 205.232L184.933 205.4C185.34 205.484 185.727 205.648 186.071 205.882C187.644 206.587 188.578 206.057 189.024 205.629C189.291 205.376 189.644 205.234 190.012 205.232H190.874V203.165L184.975 202.508V205.232Z" fill="#F28546"/>
<path d="M185.138 97.7594C184.848 99.8743 184.481 102.194 184.041 104.478C185.204 105.285 186.349 106.11 187.734 106.008C189.663 105.857 190.44 103.839 189.819 102.206C189.054 100.212 186.831 99.1573 185.138 97.7594Z" fill="#FFC152"/>
<path d="M191.042 90.0351C189.771 91.0956 189.277 94.1383 190.982 95.018C192.687 95.8977 194.965 94.4516 196.182 93.2707C197.863 91.6439 199.417 89.1795 201.701 88.4143C201.815 88.3782 201.93 88.342 202.044 88.3179C202.544 87.2515 203.129 86.197 203.526 85.1125C203.16 85.1457 202.791 85.1457 202.424 85.1125C201.887 85.0522 201.267 84.7269 200.731 84.8112C200.135 85.0118 199.549 85.2431 198.977 85.5041C197.889 85.8156 196.749 85.8977 195.627 85.7452C195.628 86.4125 195.435 87.0657 195.071 87.6252C194.708 88.1847 194.189 88.6264 193.579 88.8963C192.771 89.2759 191.747 89.4507 191.042 90.0351Z" fill="#FFC152"/>
<path d="M192.072 111.557C191.626 113.124 191.542 115.347 192.609 116.649C193.94 118.257 195.079 118.456 197.013 117.884C198.127 117.515 199.299 117.354 200.471 117.408C200.189 116.307 200.001 115.184 199.911 114.052C199.405 114.347 194.766 112.877 194.766 112.877C197.176 111.479 201.454 104.315 201.454 104.315C202.238 102.076 202.89 99.7922 203.406 97.4763C202.602 96.9585 201.743 96.5321 200.845 96.205C199.037 95.5482 196.35 95.5543 194.898 97.0546C192.337 99.6816 194.603 103.08 194.38 106.092C194.229 108.111 192.615 109.617 192.072 111.557Z" fill="#FFC152"/>
<path d="M192.506 150.426H192.549C193.499 153.34 194.709 156.163 196.164 158.861L195.423 147.968C195.369 147.203 195.434 146.435 195.615 145.69L197.586 137.58C196.643 138.563 195.498 139.33 194.23 139.828C194.23 139.828 193.043 143.226 192.506 150.426Z" fill="#004D48"/>
<path d="M201.454 104.315C201.454 104.315 197.188 111.479 194.766 112.877C194.766 112.877 199.405 114.347 199.911 114.052C199.68 111.024 200.106 107.982 201.158 105.134C201.243 104.839 201.363 104.586 201.454 104.315Z" fill="#FFC152"/>
<path d="M202.044 88.318C202.93 88.0435 203.882 88.0732 204.749 88.4023C204.894 86.3296 204.858 85.0342 204.852 84.8293C204.427 84.9919 203.98 85.0874 203.526 85.1125C203.129 86.1971 202.544 87.2515 202.044 88.318Z" fill="#FFC152"/>
<path d="M215.908 209.678C215.185 210.022 213.131 211.154 213.384 213.064C213.842 213.326 214.352 213.485 214.878 213.528C216.396 213.662 217.923 213.396 219.307 212.757C220.382 211.918 221.253 210.847 221.855 209.624C221.855 209.624 223.247 207.057 227.278 208.341C227.278 208.341 228.146 207.28 226.941 205.533C226.856 205.412 226.778 205.286 226.7 205.153C226.274 204.348 225.899 203.517 225.579 202.665C225.457 202.334 225.226 202.054 224.923 201.872C224.621 201.69 224.266 201.617 223.916 201.665L223.705 201.701C222.361 201.9 220.415 202.418 219.114 203.719C219.114 203.719 218.186 204.539 218.186 206.798C218.186 206.798 218.005 209.112 216.378 209.528C216.218 209.566 216.061 209.616 215.908 209.678Z" fill="white"/>
<path d="M214.878 213.552V213.601C216.993 214.806 220.487 214.426 220.487 214.426C224.759 214.221 225.042 211.498 225.042 211.498C225.543 210.293 226.317 209.22 227.302 208.365C223.247 207.081 221.879 209.648 221.879 209.648C221.277 210.871 220.406 211.942 219.331 212.781C217.94 213.424 216.404 213.69 214.878 213.552Z" fill="#949494"/>
<path d="M216.149 200.556C216.517 201.677 216.716 202.315 216.716 202.315L218.21 201.677L222.777 199.731L225.79 198.435C225.668 197.883 225.511 197.34 225.32 196.808C225.32 196.808 218.867 199.743 216.149 200.556Z" fill="#EDAA00"/>
<path d="M218.21 201.677L219.138 203.743C220.439 202.442 222.385 201.936 223.729 201.725L222.777 199.73L218.21 201.677Z" fill="#F28546"/>
<path d="M163.115 48.6056C162.919 48.6454 162.738 48.7429 162.598 48.8857C162.457 49.0285 162.362 49.21 162.326 49.4069C162.281 49.6081 162.298 49.818 162.374 50.0095C162.459 50.1974 162.584 50.3641 162.741 50.4975C163.281 51.0446 163.913 51.4914 164.609 51.817C165.313 52.1437 166.081 52.3085 166.857 52.2991C167.239 52.2876 167.619 52.2331 167.989 52.1364C168.353 52.0346 168.705 51.8932 169.038 51.7146C168.333 51.9263 167.598 52.018 166.863 51.9857C166.14 51.9409 165.432 51.7589 164.778 51.4495C164.122 51.1346 163.513 50.7289 162.97 50.2445C162.833 50.1468 162.719 50.0216 162.633 49.8769C162.555 49.731 162.522 49.5656 162.537 49.4009C162.552 49.2285 162.614 49.0634 162.716 48.9234C162.818 48.7833 162.956 48.6735 163.115 48.6056Z" fill="#AC4502"/>
<path d="M200.863 128.416C200.824 129.278 200.717 130.137 200.544 130.983C200.383 131.827 200.147 132.656 199.839 133.459C199.272 135.072 198.342 136.534 197.122 137.731C195.879 138.907 194.35 139.738 192.687 140.141C191.857 140.36 191.007 140.495 190.15 140.545C189.288 140.602 188.422 140.602 187.56 140.545C188.419 140.672 189.288 140.731 190.156 140.719C191.032 140.704 191.904 140.603 192.759 140.418C194.495 140.049 196.098 139.216 197.399 138.008C197.718 137.707 198.001 137.357 198.284 137.026C198.423 136.851 198.544 136.67 198.67 136.49L198.863 136.225L199.032 135.935C199.493 135.178 199.863 134.369 200.134 133.525C200.686 131.881 200.933 130.149 200.863 128.416Z" fill="#003530"/>
<path d="M166.098 47.1294C165.844 47.1002 165.587 47.1409 165.354 47.2471C165.122 47.3533 164.923 47.5209 164.778 47.732C164.632 47.9379 164.529 48.1717 164.477 48.4188C164.456 48.5403 164.444 48.6632 164.441 48.7864C164.445 48.9082 164.461 49.0293 164.489 49.1479C164.545 49.0429 164.593 48.9342 164.634 48.8225C164.688 48.7201 164.724 48.6177 164.778 48.5152C164.87 48.3264 164.977 48.1451 165.098 47.973C165.361 47.6182 165.704 47.3294 166.098 47.1294Z" fill="#AC4502"/>
<path d="M172.725 136.448C172.436 137.05 172.177 137.653 171.906 138.255L171.52 139.165C171.374 139.473 171.255 139.794 171.165 140.123C171.084 140.46 171.052 140.807 171.068 141.153C171.079 141.512 171.169 141.864 171.333 142.184C171.416 142.345 171.519 142.495 171.641 142.629L171.978 142.997L172.653 143.732L173.334 144.455L173.496 144.636C173.53 144.677 173.557 144.724 173.575 144.774C173.626 144.861 173.642 144.963 173.619 145.061C173.597 145.158 173.538 145.244 173.455 145.299C173.371 145.355 173.27 145.376 173.171 145.359C173.073 145.342 172.984 145.288 172.924 145.208L172.189 144.545L171.442 143.883C171.191 143.676 170.963 143.444 170.761 143.19C170.555 142.938 170.379 142.663 170.237 142.37C170.092 142.075 170.002 141.768 169.881 141.442C169.987 142.108 170.231 142.745 170.598 143.31C170.799 143.582 171.023 143.836 171.267 144.069L171.972 144.768C172.207 145.009 172.442 145.238 172.689 145.467C172.769 145.543 172.864 145.599 172.968 145.634C173.072 145.668 173.183 145.679 173.292 145.666C173.401 145.653 173.507 145.617 173.601 145.56C173.696 145.502 173.777 145.426 173.84 145.335C173.901 145.242 173.942 145.136 173.958 145.026C173.975 144.916 173.967 144.803 173.936 144.696C173.905 144.59 173.851 144.491 173.78 144.407L173.605 144.22L172.924 143.467L172.243 142.744L171.906 142.382C171.805 142.27 171.718 142.147 171.647 142.015C171.381 141.451 171.309 140.816 171.442 140.207C171.512 139.892 171.608 139.584 171.731 139.285L172.062 138.345C172.322 137.707 172.52 137.08 172.725 136.448Z" fill="#AC4502"/>
<path d="M183.956 64.47C184.065 64.1145 184.348 63.8675 184.463 63.5481C184.661 62.9938 184.185 62.6383 184.005 62.0599C183.619 60.7946 184.758 59.8366 184.414 58.6135C184.184 57.9948 184.067 57.3395 184.071 56.6794C184.071 56.6794 184.071 56.6794 184.071 56.6372C184.137 56.107 184.493 55.9503 184.776 55.5346C185.107 55.0285 185.029 54.3898 185.204 53.7692C185.402 53.0183 185.853 52.3587 186.481 51.9014C187.14 51.4504 187.903 51.1746 188.698 51.1C189.439 51.0157 190.265 51.4495 190.928 51.335C191.317 51.2479 191.696 51.1228 192.06 50.9614C192.416 50.8035 192.788 50.6843 193.169 50.6059C193.979 50.4516 194.808 50.4231 195.627 50.5216C195.931 50.568 196.23 50.6447 196.519 50.7505C198.122 51.3531 199.08 52.5099 200.074 53.8415C200.64 54.6067 201.665 54.9803 202.514 55.3237C203.479 55.6451 204.321 56.2576 204.924 57.077C205.336 57.6804 205.649 58.3455 205.852 59.0473C206.081 59.8004 206.183 60.1499 206.527 60.403C207.051 60.7946 207.732 60.9151 208.334 61.2766C208.956 61.7035 209.5 62.2333 209.943 62.8432C210.677 63.8126 211.215 64.9157 211.528 66.0908C211.763 67.1151 211.57 68.1032 211.618 69.1034C211.685 70.3928 212.299 71.7063 212.221 72.9596C212.124 74.5743 211.793 76.2674 210.696 77.5146L210.618 77.605C209.973 78.2919 209.058 78.6956 208.473 79.4427C207.75 80.3525 207.768 81.7926 207.129 82.8168C206.609 83.6833 205.829 84.3641 204.9 84.763C204.476 84.9255 204.028 85.021 203.575 85.0462C203.208 85.0794 202.839 85.0794 202.472 85.0462C201.936 84.9859 201.315 84.6606 200.779 84.7449C200.183 84.9455 199.598 85.1768 199.026 85.4378C197.938 85.7493 196.797 85.8314 195.675 85.6788C195.451 85.6529 195.227 85.6147 195.007 85.5644C194.768 85.5129 194.533 85.4485 194.302 85.3715C193.319 85.0742 192.459 84.4677 191.849 83.6423C191.62 83.1879 191.328 82.768 190.982 82.3951C190.379 81.907 189.548 81.907 188.981 81.3226C188.66 80.9654 188.436 80.5318 188.331 80.0633C188.219 79.703 188.178 79.3245 188.21 78.9486C188.284 78.6533 188.316 78.3491 188.307 78.0449C188.264 77.7376 188.035 77.5869 187.758 77.4845C187.481 77.3821 187.156 77.3279 186.915 77.2194C186.552 77.0339 186.238 76.7671 185.995 76.44C185.753 76.1129 185.589 75.7342 185.517 75.3335C185.446 74.9582 185.431 74.5743 185.475 74.1947C185.521 73.7657 185.622 73.3445 185.776 72.9415C186.11 72.3226 186.222 71.6085 186.095 70.917C186.035 70.7121 185.957 70.5193 185.884 70.3145C185.648 69.8638 185.534 69.359 185.553 68.8503C185.625 68.2177 185.722 68.0972 185.252 67.5911C184.684 67.0981 184.266 66.4549 184.047 65.7353C183.927 65.3247 183.896 64.8934 183.956 64.47Z" fill="#072D32"/>
<path d="M194.193 85.3896C195.308 84.0014 195.942 82.2888 196.001 80.5092C196.161 78.7192 195.956 76.9153 195.398 75.207C194.796 73.4597 193.554 72.4474 192.386 71.4713C190.825 70.1699 189.373 68.9468 189.524 66.1992C189.578 65.193 189.722 64.2471 189.861 63.3312C190.174 61.2766 190.463 59.3365 189.753 57.0349C188.951 54.4681 187.897 52.8594 186.433 51.9616L186.529 51.8953C188.011 52.8112 189.072 54.438 189.873 57.0168C190.602 59.3425 190.301 61.2947 189.988 63.3614C189.823 64.3067 189.709 65.26 189.644 66.2173C189.481 68.9166 190.939 70.1217 192.47 71.4051C193.675 72.3932 194.88 73.4175 195.513 75.1889C196.078 76.9081 196.283 78.7253 196.115 80.5273C196.048 82.326 195.401 84.0549 194.271 85.4559L194.193 85.3896ZM203.472 85.1125C204.05 83.7907 204.108 82.2997 203.635 80.937C203.436 80.4634 203.184 80.0146 202.882 79.5994C202.636 79.2615 202.42 78.9026 202.237 78.5269C201.592 77.1109 201.767 75.5805 201.923 74.0983C202.082 73.0635 202.108 72.0127 202.002 70.9712C201.872 69.5672 201.246 68.2555 200.236 67.2717C199.747 66.8879 199.202 66.5792 198.622 66.3559C197.951 66.1138 197.336 65.7387 196.814 65.2533C195.579 63.8976 195.579 61.6863 195.609 59.5474C195.656 58.4479 195.581 57.3467 195.386 56.2636C194.784 53.6487 193.807 52.1243 192.036 51.0096L192.151 50.9675C193.922 52.0942 194.898 53.6306 195.513 56.2576C195.702 57.3495 195.774 58.4583 195.73 59.5655C195.73 61.6863 195.73 63.8795 196.935 65.2051C197.441 65.6765 198.038 66.0412 198.688 66.2776C199.28 66.5043 199.835 66.8191 200.333 67.2115C201.365 68.211 202.006 69.5466 202.14 70.9773C202.241 72.027 202.215 73.085 202.062 74.1285C201.893 75.6649 201.737 77.1411 202.363 78.5028C202.543 78.875 202.757 79.2299 203.002 79.5632C203.313 79.9821 203.569 80.4399 203.761 80.9249C204.244 82.2991 204.192 83.8047 203.617 85.1426L203.472 85.1125ZM210.636 77.605C210.456 77.122 210.204 76.669 209.889 76.2614C209.762 76.0927 209.624 75.924 209.491 75.7613C209.055 75.2724 208.699 74.7171 208.437 74.1164C208.12 73.0091 208.022 71.8509 208.148 70.7061C208.214 69.3143 208.28 67.8863 207.545 66.6451C206.906 65.5545 205.828 65.0063 204.785 64.476C203.805 64.0732 202.935 63.4409 202.249 62.6323C201.736 61.7676 201.464 60.7816 201.46 59.7763C201.426 59.315 201.363 58.8562 201.273 58.4026C200.92 56.8426 200.187 55.3939 199.14 54.1849C198.08 52.8817 196.895 51.685 195.603 50.612L195.543 50.5577L195.736 50.5879C197.004 51.6536 198.17 52.8357 199.218 54.1187C200.278 55.3502 201.019 56.8234 201.375 58.4086C201.463 58.8668 201.525 59.3294 201.562 59.7944C201.567 60.783 201.831 61.753 202.327 62.6082C203.005 63.4011 203.862 64.0208 204.828 64.4158C205.882 64.952 206.979 65.5063 207.635 66.627C208.377 67.8923 208.31 69.3384 208.238 70.7423C208.113 71.8707 208.209 73.0128 208.521 74.1044C208.775 74.698 209.125 75.2457 209.557 75.7251C209.696 75.8878 209.835 76.0626 209.961 76.2313C210.273 76.6414 210.524 77.0938 210.708 77.5749L210.636 77.605Z" fill="#005053"/>
<path d="M179.112 66.2776L185.3 74.2309H185.427C185.473 73.8019 185.574 73.3806 185.728 72.9776C186.062 72.3587 186.174 71.6446 186.047 70.9531C185.987 70.7483 185.909 70.5555 185.836 70.3506L185.493 70.4109C184.661 69.9148 183.92 69.2812 183.3 68.537C182.574 67.6761 182.151 66.6008 182.095 65.4762L179.112 66.2776Z" fill="#DE7038"/>
<path d="M184.028 56.6674C183.538 57.8453 183.121 59.0527 182.781 60.2825C182.424 61.5174 182.155 62.7757 181.974 64.0483C181.868 64.6988 181.868 65.362 181.974 66.0125C182.08 66.668 182.313 67.2963 182.661 67.8622C183.014 68.4111 183.444 68.9062 183.938 69.3324C184.417 69.7613 184.95 70.1259 185.523 70.4169C184.995 70.0715 184.507 69.6672 184.071 69.2119C183.624 68.772 183.238 68.2733 182.926 67.7297C182.338 66.6215 182.153 65.344 182.402 64.1145C182.57 62.8613 182.829 61.6141 183.106 60.3729C183.251 59.7704 183.402 59.1317 183.564 58.5111C183.727 57.8905 183.86 57.2819 184.028 56.6674Z" fill="#AC4502"/>
<path d="M184.975 99.32C185.859 95.231 186.35 91.0666 186.439 86.8839C185.554 90.9729 185.064 95.1373 184.975 99.32Z" fill="#FFC152"/>
<path d="M93.1258 51.4194C92.7281 51.3493 92.3185 51.3988 91.9488 51.5615C91.5791 51.7242 91.266 51.9928 91.0489 52.3334C90.8319 52.674 90.7207 53.0714 90.7295 53.4752C90.7382 53.879 90.8665 54.2711 91.098 54.602C91.3296 54.9329 91.6541 55.1878 92.0304 55.3343C92.4068 55.4809 92.8182 55.5126 93.2125 55.4254C93.6069 55.3382 93.9666 55.136 94.246 54.8445C94.5255 54.5529 94.7123 54.185 94.7828 53.7873C94.8296 53.523 94.8239 53.2521 94.7659 52.99C94.708 52.7279 94.599 52.4799 94.4451 52.2599C94.2912 52.04 94.0955 51.8526 93.8691 51.7084C93.6428 51.5641 93.3902 51.4659 93.1258 51.4194Z" fill="#F1951E"/>
<path d="M87.3657 44.6832C87.0312 44.6239 86.6867 44.6652 86.3756 44.8019C86.0646 44.9385 85.8011 45.1643 85.6184 45.4508C85.4358 45.7372 85.3422 46.0714 85.3495 46.411C85.3568 46.7507 85.4647 47.0805 85.6595 47.3588C85.8544 47.6371 86.1273 47.8514 86.444 47.9745C86.7606 48.0976 87.1066 48.1241 87.4382 48.0505C87.7699 47.9769 88.0723 47.8066 88.3071 47.5611C88.542 47.3157 88.6987 47.0061 88.7576 46.6715C88.8364 46.2233 88.7341 45.7621 88.4731 45.3893C88.2121 45.0165 87.8138 44.7625 87.3657 44.6832Z" fill="#006930"/>
<path d="M95.0962 38.1879C94.885 38.1508 94.6676 38.177 94.4714 38.2634C94.2752 38.3497 94.109 38.4923 93.9938 38.673C93.8785 38.8538 93.8195 39.0646 93.824 39.2789C93.8285 39.4932 93.8964 39.7014 94.0192 39.8771C94.1419 40.0529 94.314 40.1883 94.5137 40.2663C94.7134 40.3443 94.9317 40.3613 95.141 40.3153C95.3504 40.2693 95.5414 40.1623 95.69 40.0078C95.8386 39.8533 95.9381 39.6582 95.9758 39.4472C96.0018 39.3066 95.9996 39.1623 95.9693 39.0226C95.939 38.883 95.8813 38.7507 95.7994 38.6335C95.7176 38.5163 95.6133 38.4166 95.4925 38.3401C95.3718 38.2636 95.2371 38.2119 95.0962 38.1879Z" fill="#E83E4D"/>
<path d="M232.526 178.739C232.863 178.68 233.209 178.722 233.522 178.86C233.835 178.997 234.1 179.225 234.283 179.513C234.467 179.802 234.561 180.138 234.553 180.48C234.546 180.821 234.437 181.153 234.241 181.433C234.045 181.713 233.771 181.929 233.452 182.053C233.134 182.177 232.786 182.204 232.452 182.131C232.118 182.057 231.814 181.886 231.577 181.639C231.34 181.393 231.182 181.082 231.122 180.745C231.082 180.521 231.087 180.291 231.136 180.069C231.185 179.847 231.277 179.637 231.408 179.451C231.538 179.264 231.704 179.105 231.896 178.983C232.088 178.861 232.302 178.778 232.526 178.739Z" fill="#F1951E"/>
<path d="M237.43 173.021C237.714 172.975 238.006 173.014 238.267 173.134C238.529 173.253 238.75 173.447 238.901 173.692C239.053 173.936 239.129 174.22 239.12 174.508C239.11 174.795 239.016 175.074 238.849 175.308C238.682 175.542 238.449 175.721 238.18 175.823C237.911 175.925 237.618 175.946 237.337 175.882C237.057 175.817 236.801 175.672 236.604 175.463C236.406 175.254 236.274 174.991 236.225 174.708C236.193 174.518 236.199 174.323 236.243 174.136C236.286 173.948 236.366 173.771 236.478 173.614C236.59 173.457 236.731 173.324 236.895 173.222C237.058 173.121 237.24 173.052 237.43 173.021Z" fill="#006930"/>
<path d="M230.857 167.502C231.037 167.47 231.222 167.492 231.389 167.565C231.556 167.639 231.697 167.76 231.795 167.914C231.893 168.068 231.944 168.247 231.94 168.429C231.936 168.612 231.878 168.789 231.773 168.938C231.668 169.088 231.522 169.203 231.352 169.269C231.182 169.335 230.996 169.349 230.818 169.309C230.64 169.269 230.477 169.178 230.351 169.046C230.225 168.914 230.141 168.748 230.11 168.568C230.088 168.449 230.091 168.327 230.116 168.208C230.142 168.09 230.191 167.978 230.261 167.879C230.33 167.78 230.419 167.695 230.521 167.631C230.624 167.566 230.738 167.522 230.857 167.502Z" fill="#E83E4D"/>
<path d="M249.396 68.4768C249.733 68.4178 250.08 68.4598 250.393 68.5977C250.705 68.7356 250.97 68.9631 251.154 69.2514C251.337 69.5397 251.431 69.876 251.424 70.2178C251.416 70.5595 251.308 70.8914 251.112 71.1714C250.916 71.4515 250.641 71.6672 250.323 71.7913C250.004 71.9154 249.656 71.9423 249.322 71.8687C248.989 71.795 248.684 71.6241 248.448 71.3775C248.211 71.1309 248.053 70.8197 247.993 70.4832C247.953 70.2592 247.957 70.0296 248.006 69.8075C248.055 69.5853 248.148 69.3751 248.278 69.1887C248.409 69.0023 248.575 68.8435 248.766 68.7213C248.958 68.5992 249.172 68.5161 249.396 68.4768Z" fill="#F1951E"/>
<path d="M254.301 62.7589C254.585 62.7132 254.876 62.7525 255.138 62.8719C255.4 62.9913 255.62 63.1855 255.772 63.43C255.924 63.6745 256 63.9584 255.99 64.2459C255.981 64.5335 255.887 64.8118 255.719 65.046C255.552 65.2801 255.319 65.4595 255.05 65.5616C254.781 65.6637 254.488 65.684 254.208 65.6199C253.927 65.5557 253.672 65.41 253.474 65.2012C253.276 64.9923 253.145 64.7295 253.096 64.446C253.064 64.2561 253.07 64.0617 253.113 63.874C253.157 63.6864 253.236 63.5091 253.348 63.3524C253.46 63.1957 253.602 63.0626 253.766 62.9608C253.929 62.8589 254.111 62.7903 254.301 62.7589Z" fill="#006930"/>
<path d="M247.728 57.2397C247.907 57.2079 248.092 57.2301 248.259 57.3034C248.426 57.3768 248.568 57.498 248.666 57.6518C248.764 57.8057 248.814 57.9851 248.81 58.1675C248.806 58.3499 248.748 58.527 248.644 58.6764C248.539 58.8258 248.392 58.9408 248.222 59.0068C248.052 59.0728 247.866 59.0869 247.688 59.0473C247.51 59.0077 247.348 58.9161 247.222 58.7842C247.096 58.6522 247.012 58.4859 246.981 58.3062C246.959 58.1871 246.961 58.0648 246.987 57.9465C247.013 57.8282 247.062 57.7163 247.132 57.6171C247.201 57.5179 247.29 57.4335 247.392 57.3687C247.494 57.3039 247.608 57.2601 247.728 57.2397Z" fill="#E83E4D"/>
</svg>
