<svg width="187" height="146" viewBox="0 0 187 146" fill="none" xmlns="http://www.w3.org/2000/svg">
<g clip-path="url(#clip0_1052_27175)">
<path d="M9.23252 109.405L0.914062 104.983V106.222L9.23252 110.644V109.405Z" fill="#B4AEBC"/>
<path d="M27.6974 99.584L9.23242 109.405V110.644L27.6974 100.836V99.584Z" fill="#F3EDF2"/>
<path d="M19.3791 95.1747L0.914062 104.983L9.23252 109.405L27.6975 99.5832L19.3791 95.1747Z" fill="#F3EDF2"/>
<g style="mix-blend-mode:multiply">
<path d="M237.076 -4.60406L287.894 22.3949L56.3939 145.416L5.57617 118.404L237.076 -4.60406Z" fill="#C7CCD1"/>
</g>
<path d="M143.902 64.6676L104.393 85.6668V99.3359L143.902 78.3497V64.6676Z" fill="#1C1922"/>
<path d="M88.3926 95.6187L218.441 26.5039V14.8174L88.3926 83.9191V95.6187Z" fill="#222428"/>
<path d="M116.82 79.7584C116.82 86.6059 122.078 89.358 128.554 85.9146C135.03 82.4713 140.274 74.176 140.274 67.3023C140.274 60.4286 135.03 57.7027 128.554 61.146C122.078 64.5894 116.82 72.9238 116.82 79.7584Z" fill="#23222D"/>
<path d="M117.813 77.0194C119.371 70.1066 124.615 63.0503 130.567 59.8809C133.571 58.2896 136.448 57.8462 138.672 58.6418C139.604 59.0046 140.433 59.5587 141.096 60.2618C141.76 60.9649 142.239 61.7982 142.499 62.6982L143.916 62.3069C143.6 61.2178 143.015 60.2107 142.206 59.3645C141.398 58.5182 140.387 57.8557 139.253 57.4288C136.618 56.4897 133.302 56.9593 129.929 58.7331C123.637 62.0721 118.11 69.4805 116.48 76.7324L117.813 77.0194Z" fill="#232321"/>
<path d="M142.513 62.6983L149.911 66.6112L149.471 63.7678L148.635 62.4635L139.793 57.6768C139.793 57.6768 134.549 56.9072 130.737 58.9811C126.57 61.4784 123.083 64.8257 120.548 68.7633C118.946 71.3484 117.563 74.0432 116.41 76.8239L123.807 80.7368C123.807 80.7368 127.974 71.2284 131.715 67.8503C135.456 64.4721 141.125 60.1419 142.513 62.6983Z" fill="#232321"/>
<path d="M128.765 91.2224L119.695 86.3574L137.664 60.8844L145.742 65.1495L128.765 91.2224Z" fill="#23222D"/>
<path d="M125.209 80.9712C126.768 74.0454 132.011 67.0021 137.963 63.8327C140.967 62.2415 143.844 61.798 146.069 62.5284C147.002 62.8895 147.832 63.4431 148.495 64.1464C149.159 64.8498 149.638 65.684 149.895 66.5848L151.312 66.1804C150.994 65.0942 150.408 64.0902 149.599 63.2464C148.79 62.4026 147.781 61.7418 146.65 61.3154C144.014 60.3763 140.698 60.8459 137.325 62.6197C131.033 65.9718 125.507 73.3671 123.877 80.6321L125.209 80.9712Z" fill="#2F2F2D"/>
<path d="M125.182 84.2188C125.182 91.0533 130.425 93.8054 136.901 90.362C143.377 86.9187 148.635 78.6233 148.635 71.7497C148.635 64.876 143.377 62.15 136.958 65.5803C130.538 69.0106 125.182 77.319 125.182 84.2188Z" fill="#292833"/>
<path d="M126.045 83.7495C126.045 90.0884 130.906 92.6448 136.9 89.4493C140.059 87.5655 142.689 85.022 144.578 82.0258C146.467 79.0295 147.56 75.6651 147.769 72.2065C147.769 65.8676 142.909 63.3242 136.9 66.5067C130.891 69.6892 126.045 77.4106 126.045 83.7495Z" fill="#2D2C37"/>
<path d="M129.135 82.1058C129.135 86.6447 132.607 88.4707 136.901 86.1882C139.16 84.8398 141.043 83.0197 142.395 80.8757C143.747 78.7318 144.53 76.3245 144.68 73.8495C144.68 69.3236 141.194 67.4976 136.901 69.7801C134.643 71.1264 132.762 72.9445 131.413 75.0865C130.063 77.2284 129.283 79.6335 129.135 82.1058Z" fill="#D8D5DC"/>
<path d="M129.617 81.8451C129.617 81.9885 129.617 82.132 129.617 82.2624C129.83 86.1753 133.004 87.7274 136.887 85.6667C139.003 84.4038 140.766 82.6991 142.032 80.6911C143.297 78.683 144.03 76.4284 144.171 74.1106C144.171 70.0542 141.195 68.3195 137.44 70.0281L136.887 70.289C135.866 70.8436 134.936 71.5286 134.124 72.3237L133.854 72.5976C133.528 72.9236 133.217 73.2758 132.919 73.641L132.621 74.0193C132.206 74.5577 131.827 75.1197 131.488 75.7018L131.261 76.0801C131.02 76.5366 130.779 77.0061 130.581 77.4887C130.549 77.5821 130.511 77.6736 130.467 77.7626C129.926 79.0671 129.639 80.4489 129.617 81.8451Z" fill="#929197"/>
<path d="M134.847 84.7281C136.958 83.4615 138.716 81.7555 139.979 79.7481C141.242 77.7406 141.974 75.4879 142.116 73.172C142.201 71.7968 141.692 70.4464 140.699 69.4156C142.754 69.6764 144.129 71.359 144.129 74.1111C144.001 76.4197 143.285 78.6683 142.04 80.6756C140.794 82.6829 139.054 84.3927 136.958 85.6672C134.521 86.9715 132.381 86.841 131.049 85.6019C132.385 85.703 133.72 85.3959 134.847 84.7281Z" fill="#A4A3A8"/>
<path d="M129.617 81.8449C129.617 81.9884 129.617 82.1319 129.617 82.2623C129.617 83.469 130.079 84.6372 130.921 85.5622C131.734 85.8949 132.628 86.0255 133.513 85.9408C134.399 85.8561 135.244 85.5591 135.966 85.0796C138.03 83.8372 139.747 82.1649 140.978 80.198C142.209 78.2311 142.919 76.0249 143.051 73.7582C143.051 71.5279 142.13 70.0149 140.671 69.4149C139.536 69.316 138.395 69.5341 137.397 70.041L136.844 70.3019C135.839 70.8555 134.924 71.536 134.124 72.3235L133.854 72.5974C133.528 72.9235 133.217 73.2757 132.919 73.6409L132.621 74.0191C132.206 74.5576 131.827 75.1195 131.488 75.7017L131.261 76.0799C131.02 76.5364 130.779 77.006 130.581 77.4885C130.549 77.5819 130.511 77.6734 130.467 77.7624C129.926 79.0669 129.639 80.4488 129.617 81.8449Z" fill="#B6B5B9"/>
<path d="M134.577 84.5058C136.642 83.265 138.361 81.593 139.592 79.6258C140.823 77.6585 141.532 75.4516 141.662 73.1845C141.728 72.4958 141.636 71.8019 141.392 71.148C141.148 70.4941 140.757 69.8948 140.245 69.389H140.755C142.172 69.989 143.136 71.5019 143.136 73.7323C143.004 75.9989 142.294 78.2051 141.063 80.172C139.832 82.1389 138.114 83.8113 136.05 85.0536C135.329 85.5332 134.483 85.8301 133.598 85.9148C132.713 85.9995 131.819 85.869 131.005 85.5362C131.005 85.5362 130.906 85.3927 130.85 85.3406C132.158 85.4446 133.467 85.1514 134.577 84.5058Z" fill="#D8D5DC"/>
<path d="M129.617 81.8453C129.617 81.9887 129.617 82.1322 129.617 82.2626C130.595 83.5669 132.451 83.8669 134.62 82.7322C136.267 81.7417 137.638 80.4089 138.622 78.8411C139.607 77.2733 140.178 75.5145 140.288 73.7064C140.288 71.4761 139.126 70.1457 137.454 70.0283L136.901 70.2892C135.875 70.8428 134.94 71.5279 134.124 72.3239L133.854 72.5978C133.528 72.9239 133.217 73.276 132.919 73.6412L132.621 74.0195C132.206 74.5579 131.827 75.1199 131.488 75.702L131.261 76.0803C131.02 76.5368 130.779 77.0063 130.581 77.4889C130.549 77.5823 130.511 77.6738 130.467 77.7628C129.926 79.0673 129.639 80.4491 129.617 81.8453Z" fill="#A4A3A8"/>
<path d="M137.538 71.4368C137.519 71.7227 137.426 72.0003 137.269 72.2472C137.111 72.4942 136.893 72.7036 136.631 72.8585C136.149 73.1194 135.738 72.8585 135.738 72.389C135.757 72.1045 135.848 71.8281 136.003 71.5813C136.158 71.3346 136.373 71.1244 136.631 70.9673C137.127 70.7064 137.538 70.9151 137.538 71.4368Z" fill="#22222C"/>
<path d="M132.705 74.0189C132.715 74.0818 132.74 74.1417 132.78 74.1938C132.819 74.246 132.871 74.2888 132.932 74.3189C133.286 74.5015 133.853 74.2015 134.193 73.6537C134.533 73.1059 134.547 72.519 134.193 72.3494L133.924 72.6233C133.598 72.9494 133.286 73.3016 132.988 73.6668L132.705 74.0189Z" fill="#22222C"/>
<path d="M130.48 77.7625C130.573 77.8117 130.678 77.8376 130.785 77.8376C130.892 77.8376 130.997 77.8117 131.09 77.7625C131.354 77.61 131.574 77.4011 131.732 77.1537C131.89 76.9062 131.981 76.6274 131.997 76.3408C131.997 75.9756 131.798 75.7669 131.501 75.7669L131.274 76.1452C131.033 76.6017 130.792 77.0712 130.594 77.5538C130.56 77.625 130.522 77.6947 130.48 77.7625Z" fill="#22222C"/>
<path d="M130.594 77.4887C130.707 77.6583 130.934 77.6974 131.189 77.554C131.392 77.4404 131.56 77.2817 131.679 77.0926C131.798 76.9034 131.863 76.6898 131.869 76.4714C131.869 76.1062 131.614 75.9497 131.274 76.0801C131.033 76.5366 130.792 77.0061 130.594 77.4887Z" fill="#585760"/>
<path d="M132.917 73.7582C132.917 74.1625 133.214 74.3191 133.597 74.1104C133.798 73.998 133.965 73.8414 134.084 73.6547C134.202 73.468 134.269 73.257 134.277 73.0408C134.277 72.7409 134.107 72.5843 133.866 72.5974C133.54 72.9234 133.228 73.2756 132.931 73.6408C132.919 73.679 132.914 73.7186 132.917 73.7582Z" fill="#585760"/>
<path d="M136.745 71.2799C137.113 71.0713 137.425 71.2799 137.425 71.6321C137.412 71.8491 137.344 72.0601 137.225 72.2482C137.107 72.4363 136.942 72.5961 136.745 72.7147C136.362 72.9103 136.064 72.7147 136.064 72.3625C136.07 72.1441 136.136 71.9305 136.254 71.7413C136.373 71.5522 136.542 71.3935 136.745 71.2799Z" fill="#585760"/>
<path d="M130.212 79.9282C130.566 79.3673 131.133 79.0674 131.473 79.25C131.813 79.4326 131.827 80.0325 131.473 80.5543C131.119 81.076 130.566 81.402 130.212 81.2194C129.857 81.0368 129.871 80.4238 130.212 79.9282Z" fill="#22222C"/>
<path d="M131.998 82.1318C132.015 81.8469 132.104 81.5697 132.26 81.3226C132.415 81.0756 132.631 80.8657 132.891 80.7101C133.387 80.4362 133.784 80.7101 133.784 81.1797C133.767 81.4646 133.677 81.7419 133.522 81.9889C133.367 82.2359 133.151 82.4458 132.891 82.6014C132.395 82.8622 131.998 82.6536 131.998 82.1318Z" fill="#22222C"/>
<path d="M135.397 81.2319C135.042 81.0493 135.042 80.4493 135.397 79.9276C135.751 79.4058 136.318 79.0667 136.658 79.2493C136.998 79.4319 137.012 80.0319 136.658 80.5536C136.304 81.0753 135.751 81.4405 135.397 81.2319Z" fill="#22222C"/>
<path d="M138.375 77.7629C137.879 78.0237 137.482 77.7629 137.482 77.2933C137.499 77.0084 137.589 76.7312 137.744 76.4841C137.899 76.2371 138.115 76.0272 138.375 75.8716C138.871 75.5977 139.268 75.8716 139.268 76.3412C139.251 76.6261 139.162 76.9034 139.006 77.1504C138.851 77.3974 138.635 77.6073 138.375 77.7629Z" fill="#22222C"/>
<path d="M139.308 73.6928C138.968 74.2537 138.401 74.5537 138.047 74.3711C137.693 74.1885 137.693 73.5885 138.047 73.0668C138.401 72.5451 138.968 72.2059 139.308 72.3885C139.648 72.5712 139.662 73.132 139.308 73.6928Z" fill="#22222C"/>
<path d="M132.918 78.1925C132.918 79.3794 133.825 79.862 134.959 79.262C135.543 78.9013 136.029 78.4198 136.376 77.8559C136.722 77.2921 136.921 76.6615 136.957 76.0143C136.957 74.8144 136.036 74.3448 134.916 74.9448C134.327 75.3017 133.839 75.7823 133.492 76.347C133.144 76.9116 132.948 77.5442 132.918 78.1925Z" fill="#22222C"/>
<path d="M133.91 78.4024C133.91 79.4067 134.675 79.8241 135.625 79.3154C136.125 79.0148 136.543 78.6105 136.843 78.1349C137.143 77.6592 137.318 77.1255 137.354 76.5764C137.354 75.5721 136.574 75.1677 135.625 75.6764C135.125 75.9733 134.709 76.3752 134.411 76.8492C134.112 77.3231 133.941 77.8555 133.91 78.4024Z" fill="#585760"/>
<path d="M138.786 72.7277C139.154 72.519 139.466 72.7277 139.466 73.0799C139.453 73.2968 139.385 73.5079 139.266 73.696C139.148 73.8841 138.984 74.0439 138.786 74.1624C138.403 74.3581 138.105 74.1624 138.105 73.8103C138.111 73.5918 138.177 73.3782 138.295 73.1891C138.414 72.9999 138.583 72.8413 138.786 72.7277Z" fill="#585760"/>
<path d="M138.53 76.1715C138.912 75.9759 139.21 76.1715 139.21 76.5367C139.196 76.7534 139.127 76.9641 139.009 77.152C138.891 77.34 138.727 77.5 138.53 77.6193C138.161 77.8149 137.85 77.6193 137.85 77.2541C137.866 77.0378 137.936 76.8279 138.053 76.6402C138.171 76.4526 138.334 76.2923 138.53 76.1715Z" fill="#585760"/>
<path d="M136.135 79.615C136.504 79.4063 136.816 79.615 136.816 79.9672C136.8 80.1837 136.731 80.394 136.613 80.5818C136.495 80.7695 136.332 80.9297 136.135 81.0498C135.753 81.2454 135.455 81.0498 135.455 80.6976C135.461 80.4791 135.526 80.2655 135.645 80.0764C135.764 79.8872 135.932 79.7286 136.135 79.615Z" fill="#585760"/>
<path d="M132.987 81.0106C133.369 80.815 133.667 81.0106 133.667 81.3758C133.653 81.5925 133.584 81.8032 133.466 81.9911C133.348 82.1791 133.184 82.3391 132.987 82.4584C132.618 82.654 132.307 82.4584 132.307 82.0932C132.323 81.877 132.393 81.667 132.51 81.4794C132.628 81.2917 132.791 81.1314 132.987 81.0106Z" fill="#585760"/>
<path d="M130.948 79.562C131.316 79.3664 131.628 79.562 131.628 79.9272C131.612 80.1434 131.542 80.3534 131.424 80.541C131.306 80.7287 131.143 80.889 130.948 81.0098C130.565 81.2054 130.268 81.0098 130.268 80.6446C130.282 80.4279 130.35 80.2172 130.469 80.0292C130.587 79.8413 130.751 79.6813 130.948 79.562Z" fill="#585760"/>
<path d="M89.6113 94.2748C89.6113 101.109 94.8688 103.861 101.345 100.418C107.821 96.9747 113.079 88.6793 113.079 81.8057C113.079 74.932 107.821 72.206 101.345 75.6494C94.8688 79.0927 89.6113 87.375 89.6113 94.2748Z" fill="#23222D"/>
<path d="M101.557 105.675L92.502 100.81L110.457 75.3368L118.534 79.6018L101.557 105.675Z" fill="#23222D"/>
<path d="M97.9727 98.6699C97.9727 105.504 103.23 108.27 109.706 104.826C116.183 101.383 121.426 93.0875 121.426 86.2008C121.426 79.3141 116.183 76.6012 109.706 80.0445C103.23 83.4879 97.9727 91.8223 97.9727 98.6699Z" fill="#292833"/>
<path d="M98.8379 98.1878C98.8379 104.514 103.699 107.07 109.707 103.888C112.862 101.998 115.488 99.4511 117.374 96.4531C119.26 93.4552 120.352 90.0905 120.562 86.6317C120.562 80.3059 115.702 77.7494 109.707 80.9319C106.549 82.8193 103.919 85.3654 102.031 88.3636C100.142 91.3618 99.0482 94.7276 98.8379 98.1878Z" fill="#2D2C37"/>
<path d="M101.928 96.5578C101.928 101.097 105.414 102.923 109.708 100.64C111.966 99.2912 113.846 97.4706 115.195 95.3266C116.545 93.1825 117.325 90.7756 117.473 88.3016C117.473 83.7757 114.002 81.9496 109.708 84.2322C107.45 85.5793 105.568 87.3974 104.217 89.5389C102.865 91.6804 102.081 94.0851 101.928 96.5578Z" fill="#D8D5DC"/>
<path d="M102.422 96.297C102.422 96.4535 102.422 96.5839 102.422 96.7143C102.62 100.627 105.795 102.192 109.692 100.119C111.804 98.8527 113.563 97.147 114.826 95.1394C116.089 93.1318 116.82 90.8787 116.961 88.5625C116.961 84.5192 114 82.7714 110.23 84.48L109.692 84.7409C108.645 85.2953 107.691 85.9849 106.857 86.7886L106.588 87.0495C106.254 87.3795 105.941 87.7279 105.653 88.0929L105.341 88.4712C104.928 89.0086 104.554 89.5707 104.222 90.1537L104.009 90.532C103.756 90.9904 103.529 91.4606 103.329 91.9406C103.285 92.0297 103.247 92.1211 103.215 92.2145C102.694 93.5222 102.425 94.9039 102.422 96.297Z" fill="#929197"/>
<path d="M107.639 99.1786C109.755 97.9158 111.518 96.2111 112.784 94.203C114.049 92.195 114.782 89.9404 114.923 87.6225C115.008 86.2473 114.498 84.897 113.506 83.8661C115.56 84.1401 116.935 85.8096 116.935 88.5616C116.796 90.8783 116.065 93.1322 114.802 95.1401C113.539 97.1481 111.779 98.8534 109.665 100.118C107.228 101.422 105.074 101.292 103.756 100.118C105.129 100.222 106.499 99.8902 107.639 99.1786Z" fill="#A4A3A8"/>
<path d="M102.422 96.2966C102.422 96.4531 102.422 96.5835 102.422 96.7139C102.409 97.9229 102.872 99.0953 103.726 100.014C104.537 100.345 105.429 100.475 106.311 100.391C107.194 100.306 108.037 100.01 108.757 99.5312C110.822 98.2897 112.539 96.6175 113.77 94.6504C115.001 92.6833 115.711 90.4768 115.842 88.2099C115.842 85.9796 114.907 84.4666 113.461 83.8666C112.333 83.7605 111.195 83.9744 110.202 84.4796L109.664 84.7405C108.617 85.2948 107.663 85.9844 106.829 86.7882L106.56 87.0491C106.226 87.379 105.913 87.7275 105.625 88.0925L105.313 88.4708C104.9 89.0082 104.526 89.5703 104.194 90.1533L103.981 90.5316C103.728 90.99 103.501 91.4602 103.301 91.9402C103.257 92.0292 103.219 92.1207 103.187 92.2141C102.675 93.5234 102.416 94.9051 102.422 96.2966Z" fill="#B6B5B9"/>
<path d="M107.368 98.9574C109.439 97.7213 111.16 96.0504 112.392 94.0822C113.624 92.114 114.331 89.9047 114.454 87.6361C114.515 86.9477 114.421 86.2549 114.177 85.6016C113.934 84.9483 113.545 84.3487 113.037 83.8406C113.197 83.8276 113.358 83.8276 113.518 83.8406C114.936 84.4406 115.913 85.9536 115.913 88.1839C115.782 90.4508 115.073 92.6574 113.841 94.6244C112.61 96.5915 110.893 98.2637 108.828 99.5052C108.108 99.9837 107.265 100.28 106.382 100.365C105.5 100.449 104.608 100.319 103.797 99.9878L103.627 99.7922C104.94 99.9011 106.255 99.6076 107.368 98.9574Z" fill="#D8D5DC"/>
<path d="M102.422 96.2968C102.422 96.4533 102.422 96.5838 102.422 96.7142C103.4 98.0185 105.256 98.3315 107.41 97.1837C109.059 96.1948 110.431 94.8623 111.416 93.2942C112.401 91.7261 112.97 89.9665 113.079 88.158C113.079 85.9276 111.931 84.5972 110.244 84.4799L109.706 84.7407C108.66 85.2951 107.705 85.9847 106.872 86.7885L106.602 87.0493C106.268 87.3793 105.955 87.7278 105.667 88.0928L105.355 88.471C104.942 89.0085 104.568 89.5706 104.236 90.1536L104.023 90.5318C103.77 90.9903 103.543 91.4605 103.343 91.9405C103.299 92.0295 103.261 92.121 103.23 92.2144C102.703 93.5212 102.43 94.903 102.422 96.2968Z" fill="#A4A3A8"/>
<path d="M110.329 85.8886C110.312 86.1735 110.222 86.4508 110.067 86.6978C109.912 86.9449 109.696 87.1547 109.436 87.3103C108.94 87.5842 108.543 87.3103 108.543 86.8407C108.56 86.5558 108.649 86.2786 108.804 86.0315C108.96 85.7845 109.176 85.5747 109.436 85.4191C109.932 85.1452 110.329 85.3669 110.329 85.8886Z" fill="#22222C"/>
<path d="M105.426 88.4709C105.44 88.5357 105.468 88.5972 105.51 88.6511C105.551 88.705 105.605 88.7503 105.667 88.7839C106.007 88.9665 106.574 88.6665 106.928 88.1057C107.282 87.5448 107.282 86.971 106.928 86.8014L106.659 87.0623C106.324 87.3922 106.012 87.7407 105.723 88.1057L105.426 88.4709Z" fill="#22222C"/>
<path d="M103.287 92.2136C103.379 92.2655 103.484 92.293 103.592 92.293C103.699 92.293 103.805 92.2655 103.896 92.2136C104.156 92.058 104.373 91.8482 104.528 91.6011C104.683 91.3541 104.772 91.0768 104.789 90.7919C104.789 90.4267 104.591 90.218 104.307 90.218L104.095 90.5963C103.842 91.0547 103.615 91.5249 103.415 92.0049C103.368 92.0724 103.326 92.1421 103.287 92.2136Z" fill="#22222C"/>
<path d="M103.4 91.94C103.5 92.1095 103.74 92.1487 103.996 92.0052C104.192 91.8879 104.355 91.7302 104.473 91.5445C104.591 91.3588 104.661 91.1504 104.676 90.9357C104.676 90.5574 104.421 90.4009 104.081 90.5313C103.828 90.9898 103.601 91.46 103.4 91.94Z" fill="#585760"/>
<path d="M105.782 88.2097C105.782 88.614 106.094 88.7705 106.462 88.5749C106.661 88.4571 106.826 88.2975 106.944 88.1092C107.063 87.921 107.13 87.7095 107.142 87.4923C107.142 87.2054 106.986 87.0358 106.746 87.0489C106.411 87.3788 106.099 87.7273 105.81 88.0923C105.788 88.128 105.779 88.1688 105.782 88.2097Z" fill="#585760"/>
<path d="M109.536 85.7319C109.918 85.5362 110.216 85.7319 110.216 86.084C110.21 86.3025 110.145 86.5161 110.026 86.7053C109.907 86.8944 109.739 87.0531 109.536 87.1666C109.167 87.3623 108.855 87.1666 108.855 86.8145C108.868 86.5975 108.937 86.3864 109.055 86.1983C109.173 86.0102 109.338 85.8504 109.536 85.7319Z" fill="#585760"/>
<path d="M102.947 94.2748C103.301 93.7139 103.868 93.4139 104.222 93.5965C104.577 93.7791 104.577 94.3791 104.222 94.9008C103.868 95.4225 103.301 95.7617 102.947 95.5791C102.593 95.3964 102.663 94.8878 102.947 94.2748Z" fill="#22222C"/>
<path d="M104.789 96.5841C104.806 96.2992 104.895 96.022 105.051 95.7749C105.206 95.5279 105.422 95.318 105.682 95.1624C106.178 94.9016 106.589 95.1624 106.589 95.632C106.569 95.9178 106.477 96.1954 106.32 96.4424C106.162 96.6894 105.944 96.8988 105.682 97.0537C105.186 97.3145 104.789 97.1059 104.789 96.5841Z" fill="#22222C"/>
<path d="M108.191 95.71C107.851 95.5274 107.851 94.9274 108.191 94.4057C108.531 93.8839 109.112 93.5579 109.466 93.7405C109.82 93.9231 109.82 94.5231 109.466 95.0448C109.112 95.5665 108.616 95.8926 108.191 95.71Z" fill="#22222C"/>
<path d="M111.223 92.2146C110.741 92.4754 110.33 92.2146 110.33 91.745C110.349 91.4606 110.44 91.1841 110.595 90.9374C110.749 90.6906 110.965 90.4804 111.223 90.3233C111.719 90.0625 112.13 90.3233 112.13 90.7929C112.11 91.0787 112.018 91.3563 111.861 91.6033C111.703 91.8503 111.485 92.0597 111.223 92.2146Z" fill="#22222C"/>
<path d="M112.116 88.145C111.762 88.7058 111.195 89.0058 110.84 88.8232C110.486 88.6406 110.5 88.0406 110.84 87.5189C111.181 86.9972 111.762 86.6711 112.116 86.8537C112.47 87.0363 112.47 87.5971 112.116 88.145Z" fill="#22222C"/>
<path d="M105.781 92.6444C105.781 93.8313 106.702 94.3139 107.822 93.7139C108.415 93.3611 108.909 92.8841 109.264 92.3219C109.618 91.7598 109.824 91.1284 109.863 90.4793C109.863 89.2924 108.956 88.8098 107.822 89.4098C107.231 89.7649 106.739 90.2425 106.384 90.8041C106.03 91.3658 105.823 91.9961 105.781 92.6444Z" fill="#22222C"/>
<path d="M106.701 92.8662C106.701 93.8705 107.481 94.2749 108.43 93.7662C108.929 93.465 109.344 93.0602 109.642 92.5845C109.939 92.1088 110.112 91.5754 110.145 91.0272C110.145 90.0229 109.38 89.6185 108.43 90.1272C107.929 90.4278 107.512 90.8321 107.212 91.3077C106.912 91.7834 106.737 92.3171 106.701 92.8662Z" fill="#585760"/>
<path d="M111.577 87.1798C111.959 86.9842 112.257 87.1798 112.257 87.532C112.251 87.7504 112.186 87.964 112.067 88.1532C111.948 88.3424 111.78 88.501 111.577 88.6146C111.208 88.8232 110.896 88.6145 110.896 88.2624C110.909 88.0454 110.978 87.8344 111.096 87.6463C111.214 87.4582 111.379 87.2984 111.577 87.1798Z" fill="#585760"/>
<path d="M111.336 90.6361C111.705 90.4275 112.017 90.6362 112.017 90.9883C112.002 91.2048 111.932 91.4151 111.814 91.6029C111.696 91.7907 111.533 91.9508 111.336 92.0709C110.954 92.2665 110.656 92.0709 110.656 91.7057C110.664 91.4895 110.731 91.2785 110.85 91.0918C110.968 90.9051 111.136 90.7485 111.336 90.6361Z" fill="#585760"/>
<path d="M108.926 94.0657C109.309 93.87 109.607 94.0657 109.607 94.4178C109.601 94.6363 109.535 94.8499 109.417 95.0391C109.298 95.2282 109.129 95.3869 108.926 95.5004C108.558 95.6961 108.246 95.5004 108.246 95.1483C108.259 94.9313 108.327 94.7202 108.446 94.5321C108.564 94.344 108.728 94.1842 108.926 94.0657Z" fill="#585760"/>
<path d="M105.782 95.4754C106.15 95.2667 106.462 95.4754 106.462 95.8275C106.442 96.0392 106.37 96.244 106.252 96.4269C106.135 96.6097 105.974 96.7659 105.782 96.884C105.399 97.0797 105.102 96.884 105.102 96.5188C105.114 96.3071 105.183 96.1014 105.301 95.9196C105.42 95.7378 105.585 95.5853 105.782 95.4754Z" fill="#585760"/>
<path d="M103.741 94.0275C104.123 93.8188 104.421 94.0275 104.421 94.3797C104.407 94.5964 104.338 94.8071 104.22 94.995C104.102 95.1829 103.938 95.3429 103.741 95.4622C103.372 95.6579 103.061 95.4622 103.061 95.097C103.076 94.8823 103.145 94.6739 103.263 94.4882C103.381 94.3025 103.545 94.1448 103.741 94.0275Z" fill="#585760"/>
<path d="M57.2164 134.904L48.9121 130.483V131.735L57.2164 136.143V134.904Z" fill="#B4AEBC"/>
<path d="M48.9121 130.483L57.2164 134.904L75.6956 125.096L67.3771 120.674L48.9121 130.483Z" fill="#F3EDF2"/>
<path d="M84.5661 83.4364L71.9112 116.592L52.7519 126.765L48.5005 119.605L47.2109 101.462L62.6858 62.4371L51.9866 102.727L74.462 90.7926L84.5661 83.4364Z" fill="#0F3015"/>
<path d="M66.851 114.309L68.3673 115.118L66.5534 124.052L65.0371 123.244L66.851 114.309Z" fill="#D8D5DC"/>
<path d="M59.6245 118.157L61.1408 118.965L59.3269 127.9L57.8105 127.091L59.6245 118.157Z" fill="#D8D5DC"/>
<path d="M10.1683 106.236H9.14802V103.197C9.14829 103.041 9.10389 102.887 9.0193 102.752C8.93471 102.617 8.81292 102.505 8.6662 102.427C8.51666 102.351 8.34839 102.31 8.17729 102.31C8.0062 102.31 7.83793 102.351 7.68839 102.427C7.38709 102.597 7.04211 102.689 6.68907 102.695C6.33602 102.7 5.9877 102.619 5.68007 102.46C5.37243 102.3 5.11662 102.068 4.93905 101.787C4.76148 101.506 4.66858 101.187 4.66994 100.862V78.1671C4.67087 76.9672 5.01434 75.7886 5.66597 74.7494C6.31759 73.7101 7.25447 72.8467 8.38277 72.2456L19.3371 66.4023L19.8472 67.211L8.85042 73.0543C7.87649 73.5733 7.06794 74.3189 6.50583 75.2163C5.94371 76.1137 5.6478 77.1313 5.64774 78.1671V100.862C5.64495 101.02 5.68815 101.176 5.77287 101.314C5.85759 101.451 5.98074 101.565 6.12956 101.645C6.27651 101.721 6.44251 101.761 6.61138 101.761C6.78026 101.761 6.94625 101.721 7.0932 101.645C7.39375 101.472 7.7389 101.377 8.09285 101.369C8.44679 101.361 8.79662 101.44 9.10605 101.599C9.41548 101.757 9.67322 101.989 9.85254 102.27C10.0319 102.551 10.1262 102.871 10.1258 103.197L10.1683 106.236Z" fill="#6F9C72"/>
<path d="M18.4601 93.5836L15.9235 94.927L13.2168 104.344L15.7534 103.001L18.4601 93.5836Z" fill="#D8D5DC"/>
<path d="M25.6828 89.7362L23.1461 91.0927L20.4395 100.497L22.9761 99.1533L25.6828 89.7362Z" fill="#D8D5DC"/>
<path d="M50.7667 57.3246L38.0977 90.4668L18.9525 100.653L14.7012 93.4928V65.4373L22.4953 47.5162L18.1873 76.6151L40.6627 64.6678L50.7667 57.3246Z" fill="#0F3015"/>
<path d="M98.679 40.6421L59.1699 61.6283V75.3104L98.679 54.3111V40.6421Z" fill="#1C1922"/>
<path d="M43.1719 71.5935L173.22 2.47873V-9.22083L43.1719 59.894V71.5935Z" fill="#222428"/>
<path d="M62.1032 -2.9342L53.0762 59.6982L149.086 8.6871V-49.1586L62.1032 -2.9342Z" fill="#F3EDF2"/>
<path d="M58.8457 46.3935L143.632 1.34301V-42.4293L65.5628 -0.93951L58.8457 46.3935Z" fill="#D8D5DC"/>
<path d="M61.2988 38.1248L66.4004 0.952278L138.9 -37.5767V-3.11713L61.2988 38.1248Z" fill="#F3EDF2"/>
<path d="M95.8598 95.5797C98.1272 89.8016 101.146 82.7975 107.112 79.6281C110.116 78.0368 113.503 75.2195 114.197 76.8499C114.311 77.0847 114.396 77.3325 114.495 77.5803L121.892 81.4932C121.517 80.0371 121.044 78.6039 120.475 77.2021C120.05 76.576 113.857 73.8631 113.276 73.4066C112.655 72.925 111.951 72.5416 111.193 72.2718C108.557 71.3327 105.241 71.8023 101.868 73.5761C95.5763 76.9282 90.0496 84.3236 88.4199 91.5885L95.8598 95.5797Z" fill="#232321"/>
<path d="M80.4835 104.462L89.383 109.379C89.383 109.379 94.3712 105.466 90.8001 90.1536L81.1495 84.7016C81.1495 84.8451 83.8279 99.0489 79.7324 103.927L80.4835 104.462Z" fill="#2F2F2D"/>
<path d="M90.191 109.926C94.5699 104.709 91.9482 90.6096 91.8348 90.0096L90.8995 90.1662C90.8995 90.3096 93.5637 104.513 89.4824 109.392L90.191 109.926Z" fill="#232321"/>
<path d="M97.2774 95.8008C98.8221 88.888 104.08 81.8448 110.031 78.6623C113.022 77.071 115.898 76.6406 118.137 77.358C119.071 77.7221 119.901 78.2782 120.564 78.9837C121.227 79.6891 121.706 80.5251 121.964 81.4274L123.381 81.0231C123.062 79.9353 122.476 78.9295 121.668 78.0837C120.859 77.2378 119.85 76.5744 118.718 76.145C116.083 75.2059 112.766 75.6754 109.394 77.4493C103.102 80.7883 97.575 88.1967 95.9453 95.4486L97.2774 95.8008Z" fill="#2F2F2D"/>
<path d="M190.084 29.8557V36.3772C190.084 37.7989 176.551 43.1073 177.897 43.8117L184.132 55.4069C184.572 55.6417 203.277 45.3507 203.646 45.0899C203.796 44.9873 203.918 44.8536 204.002 44.6995C204.086 44.5454 204.129 44.3753 204.128 44.203V37.6815C204.118 36.9913 203.914 36.3152 203.537 35.7187C203.16 35.1222 202.621 34.6257 201.974 34.2772L191.898 28.9296C191.717 28.836 191.512 28.7866 191.305 28.7861C191.097 28.7856 190.892 28.8341 190.71 28.9269C190.529 29.0197 190.376 29.1537 190.266 29.3163C190.156 29.4789 190.094 29.6645 190.084 29.8557Z" fill="#17191D"/>
<path d="M171.069 39.964V46.4855C171.062 47.1855 171.26 47.8742 171.641 48.4799C172.023 49.0855 172.574 49.5859 173.237 49.9289L183.312 55.2895C183.496 55.3854 183.703 55.4354 183.914 55.4343C184.125 55.4333 184.332 55.3813 184.514 55.2836C184.696 55.1859 184.847 55.0459 184.952 54.8775C185.057 54.7092 185.112 54.5184 185.112 54.3244V47.8029C185.111 47.1058 184.912 46.4211 184.534 45.817C184.156 45.2128 183.613 44.7104 182.958 44.3595L172.882 39.0119C172.7 38.9133 172.492 38.8608 172.28 38.8596C172.069 38.8584 171.86 38.9086 171.676 39.0052C171.492 39.1017 171.339 39.2412 171.233 39.4095C171.126 39.5779 171.069 39.7691 171.069 39.964Z" fill="#0C0C0C"/>
<path d="M185.111 54.3508L204.129 44.2425V37.6949L185.111 47.7902V54.3508Z" fill="#1E2024"/>
<path d="M234 8.09985L232.541 7.33031L175.601 -11.4516L170.74 -7.9039L217.434 16.9039L234 8.09985Z" fill="#2A2A28"/>
<path d="M218.441 14.8171L173.221 -9.22118L173.334 -25.2641L174.255 -50.111L219.475 -26.0858L218.554 -1.23887L218.441 14.8171Z" fill="#B5AEBC"/>
<path d="M214.6 5.2828L172.016 -17.3337L163.967 -5.6994L206.579 16.9432L214.6 5.2828Z" fill="#CC454C"/>
<path d="M191.841 -4.76044L187.32 -16.7078L170.74 -7.90381L166.29 -4.33002L162.152 4.81311V12.365L191.841 -3.41702V-4.76044Z" fill="#383838"/>
<path d="M189.561 1.93081C189.561 8.77838 184.317 17.1129 177.841 20.5562C171.365 23.9995 166.107 21.2344 166.107 14.3999C166.107 7.56538 171.365 -0.782137 177.841 -4.22549C184.317 -7.66884 189.561 -4.85155 189.561 1.93081Z" fill="#0C0C0C"/>
<path d="M185.606 4.04342C185.455 6.5152 184.674 8.91951 183.325 11.0611C181.975 13.2027 180.096 15.0213 177.84 16.369C173.589 18.6516 170.074 16.8256 170.074 12.2996C170.222 9.82561 171.003 7.41869 172.352 5.27466C173.702 3.13063 175.582 1.31004 177.84 -0.0390334C182.134 -2.32156 185.606 -0.495537 185.606 4.04342Z" fill="#B7B4BA"/>
<path d="M185.138 4.27823C184.995 6.5956 184.262 8.84943 182.996 10.8571C181.731 12.8648 179.969 14.5699 177.854 15.8343C173.83 17.9603 170.57 16.2517 170.57 12.0127C170.709 9.69438 171.441 7.43898 172.706 5.43063C173.972 3.42229 175.736 1.71791 177.854 0.45663C181.865 -1.65634 185.138 0.0522971 185.138 4.27823Z" fill="#929197"/>
<path d="M183.141 5.34785C183.038 7.03663 182.505 8.6794 181.584 10.1432C180.663 11.607 179.381 12.8507 177.841 13.7736C174.908 15.3257 172.541 14.0736 172.541 10.9824C172.642 9.29493 173.174 7.65321 174.095 6.19118C175.016 4.72916 176.3 3.48825 177.841 2.5697C180.774 1.00454 183.141 2.25666 183.141 5.34785Z" fill="#B5AAB1"/>
<path d="M179.996 7.0175C179.956 7.70504 179.74 8.37415 179.366 8.97028C178.991 9.5664 178.469 10.0727 177.842 10.4478C176.652 11.0869 175.674 10.5782 175.674 9.31307C175.72 8.62534 175.94 7.95703 176.316 7.36145C176.693 6.76587 177.215 6.25951 177.842 5.88276C179.032 5.24365 179.996 5.75233 179.996 7.0175Z" fill="#0C0C0C"/>
<path d="M175.318 5.58298C175.318 5.96122 175.602 6.10469 175.97 5.92209C176.157 5.80894 176.313 5.65656 176.424 5.47746C176.535 5.29835 176.598 5.09761 176.608 4.8917C176.608 4.51345 176.325 4.36998 175.97 4.55258C175.78 4.66427 175.622 4.81601 175.509 4.99521C175.396 5.1744 175.33 5.3759 175.318 5.58298Z" fill="#0C0C0C"/>
<path d="M178.648 3.11755C178.393 3.52189 178.393 3.9523 178.648 4.08273C178.903 4.21316 179.314 3.99143 179.569 3.60014C179.825 3.20885 179.81 2.76539 179.569 2.63496C179.329 2.50453 178.903 2.71322 178.648 3.11755Z" fill="#0C0C0C"/>
<path d="M181.511 3.5613C181.323 3.67172 181.166 3.8214 181.053 3.99818C180.94 4.17495 180.873 4.37383 180.859 4.57865C180.859 4.9569 181.157 5.11342 181.511 4.91777C181.697 4.8059 181.851 4.65559 181.962 4.4789C182.072 4.30221 182.136 4.10408 182.149 3.90042C182.149 3.52217 181.866 3.36566 181.511 3.5613Z" fill="#0C0C0C"/>
<path d="M182.22 6.70442C181.965 6.56094 181.554 6.78267 181.299 7.187C181.044 7.59134 181.044 8.02176 181.299 8.15219C181.554 8.28262 181.965 8.06088 182.22 7.66959C182.475 7.2783 182.461 6.88702 182.22 6.70442Z" fill="#0C0C0C"/>
<path d="M180.364 10.6958C180.364 10.3306 180.066 10.1741 179.712 10.3567C179.525 10.4698 179.369 10.6222 179.258 10.8013C179.148 10.9804 179.084 11.1811 179.074 11.3871C179.074 11.7653 179.358 11.9088 179.712 11.7262C179.902 11.6145 180.06 11.4627 180.173 11.2835C180.287 11.1043 180.352 10.9029 180.364 10.6958Z" fill="#0C0C0C"/>
<path d="M177.032 13.2126C177.273 12.8214 177.273 12.3909 177.032 12.2605C176.791 12.1301 176.366 12.3388 176.111 12.7431C175.856 13.1474 175.856 13.5648 176.111 13.7083C176.366 13.8518 176.777 13.617 177.032 13.2126Z" fill="#0C0C0C"/>
<path d="M174.171 12.7825C174.361 12.6708 174.519 12.5191 174.632 12.3399C174.746 12.1607 174.811 11.9592 174.823 11.7521C174.823 11.3739 174.525 11.2304 174.171 11.413C173.984 11.5261 173.828 11.6785 173.717 11.8576C173.607 12.0367 173.543 12.2375 173.533 12.4434C173.533 12.8086 173.802 12.9651 174.171 12.7825Z" fill="#0C0C0C"/>
<path d="M173.463 9.63877C173.718 9.7692 174.129 9.54747 174.384 9.14313C174.639 8.7388 174.625 8.32143 174.384 8.191C174.143 8.06057 173.718 8.26925 173.463 8.67358C173.208 9.07792 173.208 9.4953 173.463 9.63877Z" fill="#0C0C0C"/>
<path d="M179.301 0.743691C179.216 1.06977 179.472 1.2915 179.897 1.22628C180.107 1.19844 180.306 1.11982 180.473 0.998402C180.639 0.876986 180.768 0.717105 180.846 0.535003C180.945 0.208928 180.676 0.000237063 180.251 0.052409C180.041 0.082746 179.844 0.162306 179.678 0.283402C179.511 0.404497 179.382 0.563037 179.301 0.743691Z" fill="#0C0C0C"/>
<path d="M183.325 1.66977C183.196 1.81915 183.117 1.99948 183.097 2.18917C183.077 2.37886 183.117 2.56986 183.211 2.7393C183.238 2.81054 183.285 2.87407 183.346 2.92355C183.408 2.97303 183.483 3.00671 183.563 3.02124C183.644 3.03577 183.727 3.03062 183.804 3.00632C183.882 2.98202 183.951 2.93942 184.005 2.88277C184.13 2.73201 184.207 2.55193 184.228 2.36291C184.248 2.17389 184.21 1.98349 184.118 1.81325C183.934 1.46109 183.566 1.39587 183.325 1.66977Z" fill="#0C0C0C"/>
<path d="M184.133 6.37823C183.863 6.37823 183.523 6.87386 183.367 7.40862C183.211 7.94339 183.296 8.33468 183.552 8.30859C183.807 8.2825 184.147 7.81295 184.303 7.27819C184.458 6.74343 184.388 6.3391 184.133 6.37823Z" fill="#0C0C0C"/>
<path d="M181.243 12.1042C181.129 11.8955 180.704 12.1042 180.293 12.4955C179.882 12.8868 179.641 13.4216 179.755 13.6172C179.868 13.8129 180.293 13.6172 180.704 13.239C181.115 12.8607 181.37 12.352 181.243 12.1042Z" fill="#0C0C0C"/>
<path d="M176.366 15.5868C176.465 15.2607 176.195 15.0521 175.784 15.1042C175.575 15.1346 175.378 15.2141 175.211 15.3352C175.045 15.4563 174.915 15.6149 174.835 15.7955C174.736 16.1216 175.005 16.3433 175.43 16.2781C175.64 16.2521 175.837 16.1739 176.002 16.0521C176.167 15.9303 176.293 15.7694 176.366 15.5868Z" fill="#0C0C0C"/>
<path d="M172.387 14.7133C172.512 14.5626 172.589 14.3825 172.609 14.1935C172.629 14.0045 172.591 13.814 172.5 13.6438C172.475 13.5716 172.43 13.5067 172.369 13.4558C172.308 13.4049 172.233 13.3697 172.152 13.3539C172.072 13.338 171.988 13.3419 171.91 13.3654C171.832 13.3888 171.761 13.4309 171.706 13.4873C171.581 13.6381 171.504 13.8181 171.484 14.0071C171.464 14.1962 171.502 14.3866 171.593 14.5568C171.618 14.629 171.663 14.6939 171.724 14.7448C171.785 14.7957 171.86 14.8309 171.941 14.8468C172.021 14.8626 172.105 14.8587 172.183 14.8352C172.261 14.8118 172.332 14.7698 172.387 14.7133Z" fill="#0C0C0C"/>
<path d="M171.548 9.96533C171.803 9.96533 172.143 9.46969 172.313 8.93493C172.483 8.40017 172.313 7.99584 172.129 8.03497C171.945 8.07409 171.534 8.5306 171.364 9.06536C171.194 9.60012 171.293 9.99141 171.548 9.96533Z" fill="#0C0C0C"/>
<path d="M174.424 4.18735C174.538 4.39603 174.977 4.18735 175.388 3.79606C175.799 3.40477 176.04 2.88305 175.927 2.67436C175.813 2.46567 175.374 2.67436 174.963 3.06565C174.552 3.45694 174.311 3.97866 174.424 4.18735Z" fill="#0C0C0C"/>
<path d="M103.414 47.7246C103.414 54.5592 98.1567 62.8936 91.6805 66.337C85.2043 69.7803 79.9609 67.0283 79.9609 60.1807C79.9609 53.3331 85.2043 45.0117 91.6805 41.5683C98.1567 38.125 103.414 40.8771 103.414 47.7246Z" fill="#0C0C0C"/>
<path d="M99.4456 49.8244C99.2976 52.2967 98.517 54.7017 97.1674 56.8437C95.8179 58.9856 93.9376 60.8038 91.6798 62.15C87.4285 64.4326 83.9141 62.6065 83.9141 58.0806C84.0622 55.6066 84.8427 53.1997 86.1921 51.0556C87.5415 48.9116 89.4218 47.091 91.6798 45.7419C95.9737 43.4072 99.4456 45.2854 99.4456 49.8244Z" fill="#B7B4BA"/>
<path d="M98.9644 50.0854C98.826 52.4073 98.0942 54.6663 96.8285 56.6789C95.5629 58.6914 93.799 60.4007 91.6805 61.6676C87.6558 63.8066 84.3965 62.085 84.3965 57.846C84.537 55.5281 85.2699 53.2735 86.5356 51.2655C87.8013 49.2575 89.564 47.5527 91.6805 46.2899C95.7051 44.1248 98.9644 45.8334 98.9644 50.0854Z" fill="#929197"/>
<path d="M98.1717 50.5031C98.0452 52.5673 97.3915 54.5749 96.2638 56.363C95.1361 58.1511 93.5661 59.6692 91.6813 60.794C88.096 62.6983 85.2051 61.1722 85.2051 57.3898C85.33 55.3267 85.9815 53.3198 87.1067 51.5318C88.2319 49.7438 89.7991 48.2251 91.6813 47.0989C95.2666 45.1946 98.1717 46.7206 98.1717 50.5031Z" fill="#B7B4BA"/>
<path d="M97.5902 50.8022C97.4795 52.6855 96.8864 54.518 95.8594 56.1501C94.8324 57.7822 93.4006 59.1676 91.6808 60.1932C88.4215 61.9279 85.7715 60.5453 85.7715 57.089C85.8867 55.2066 86.4817 53.3757 87.5083 51.7443C88.5349 50.1129 89.9643 48.7267 91.6808 47.698C94.9544 46.0155 97.5902 47.3198 97.5902 50.8022Z" fill="#B2AAAB"/>
<path d="M94.4453 52.5375C94.3827 53.4257 94.0934 54.2878 93.6009 55.0537C93.1085 55.8197 92.4267 56.468 91.611 56.946C90.0805 57.7547 88.8477 57.1026 88.8477 55.4852C88.899 54.6039 89.1761 53.7463 89.6564 52.9823C90.1366 52.2184 90.8064 51.5699 91.611 51.0897C93.2124 50.2159 94.4453 50.868 94.4453 52.5375Z" fill="#0C0C0C"/>
<path d="M88.918 51.5463C88.918 52.068 89.3148 52.2767 89.8108 52.0159C90.0706 51.8603 90.2869 51.6504 90.442 51.4034C90.5972 51.1563 90.6868 50.8791 90.7035 50.5942C90.7035 50.0725 90.3067 49.8638 89.8108 50.1246C89.5509 50.2802 89.3346 50.4901 89.1795 50.7371C89.0243 50.9841 88.9347 51.2614 88.918 51.5463Z" fill="#22222C"/>
<path d="M92.3184 48.8072C91.9642 49.355 91.9642 49.955 92.3184 50.1115C92.6727 50.268 93.2396 49.9811 93.5797 49.4333C93.9198 48.8855 93.934 48.2725 93.5797 48.129C93.2254 47.9855 92.6727 48.2464 92.3184 48.8072Z" fill="#22222C"/>
<path d="M95.3503 49.0812C95.0878 49.2354 94.8688 49.4446 94.7111 49.6917C94.5534 49.9388 94.4617 50.2168 94.4434 50.5029C94.4434 51.0246 94.8401 51.2333 95.3361 50.9725C95.596 50.8169 95.8123 50.607 95.9674 50.36C96.1226 50.1129 96.2122 49.8357 96.2289 49.5508C96.2431 49.0291 95.8605 48.8073 95.3503 49.0812Z" fill="#22222C"/>
<path d="M96.2281 52.1983C95.888 52.0157 95.3212 52.3157 94.9669 52.8766C94.6126 53.4374 94.6126 54.0243 94.9669 54.1809C95.3212 54.3374 95.888 54.0635 96.2281 53.5157C96.5682 52.9679 96.5824 52.3809 96.2281 52.1983Z" fill="#22222C"/>
<path d="M94.4443 56.3465C94.4443 55.8248 94.0333 55.6161 93.5373 55.877C93.2774 56.0325 93.0611 56.2424 92.906 56.4894C92.7509 56.7365 92.6613 57.0137 92.6445 57.2986C92.6445 57.8334 93.0413 58.0421 93.5373 57.7682C93.799 57.6133 94.0175 57.4039 94.175 57.1569C94.3326 56.9099 94.4248 56.6323 94.4443 56.3465Z" fill="#22222C"/>
<path d="M91.0426 59.0589C91.3968 58.4981 91.3968 57.8981 91.0426 57.7546C90.6883 57.6111 90.1356 57.872 89.7813 58.4328C89.4271 58.9937 89.4271 59.5806 89.7813 59.7371C90.1356 59.8937 90.7025 59.6458 91.0426 59.0589Z" fill="#22222C"/>
<path d="M88.01 58.824C88.2717 58.6691 88.4901 58.4597 88.6477 58.2127C88.8052 57.9657 88.8975 57.6881 88.9169 57.4023C88.9169 56.8806 88.506 56.6719 88.01 56.9327C87.7501 57.0883 87.5338 57.2982 87.3787 57.5452C87.2235 57.7923 87.1339 58.0695 87.1172 58.3544C87.1172 58.8761 87.514 59.0587 88.01 58.824Z" fill="#22222C"/>
<path d="M87.1329 55.6938C87.4872 55.8895 88.054 55.5764 88.3941 55.0286C88.7342 54.4808 88.7484 53.8678 88.3941 53.7243C88.0398 53.5809 87.4872 53.8417 87.1329 54.4026C86.7786 54.9634 86.7786 55.5112 87.1329 55.6938Z" fill="#22222C"/>
<path d="M71.9023 72.3313C76.469 65.1018 76.4935 57.2732 71.9569 54.8456C67.4204 52.4181 60.0407 56.3108 55.4739 63.5403C50.9072 70.7699 50.8827 78.5985 55.4192 81.026C59.9558 83.4536 67.3355 79.5608 71.9023 72.3313Z" fill="#0C0C0C"/>
<path d="M72.2508 64.2765C72.0971 66.7493 71.3143 69.1543 69.9653 71.2975C68.6164 73.4407 66.7392 75.2622 64.485 76.6152C60.2337 78.8846 56.7051 77.0717 56.7051 72.5327C56.8581 70.0582 57.6422 67.6517 58.9939 65.5081C60.3455 63.3645 62.2267 61.544 64.485 60.194C68.7647 57.9245 72.2508 59.7506 72.2508 64.2765Z" fill="#B7B4BA"/>
<path d="M71.7686 64.5369C71.6274 66.8531 70.8957 69.1062 69.6328 71.1138C68.3698 73.1214 66.611 74.8272 64.4988 76.093C60.4742 78.232 57.2148 76.5234 57.2148 72.2714C57.3576 69.954 58.0915 67.7002 59.357 65.6925C60.6224 63.6848 62.384 61.9797 64.4988 60.7153C68.4951 58.5762 71.7686 60.2849 71.7686 64.5369Z" fill="#929197"/>
<path d="M70.9627 64.9543C70.8366 67.0189 70.1847 69.0273 69.0597 70.8172C67.9347 72.6071 66.3681 74.1284 64.4865 75.2583C60.9012 77.1495 57.9961 75.6365 57.9961 71.8541C58.1204 69.7894 58.7731 67.7809 59.901 65.9925C61.0289 64.2042 62.6001 62.6864 64.4865 61.5632C68.0576 59.6589 70.9627 61.1719 70.9627 64.9543Z" fill="#B7B4BA"/>
<path d="M70.3529 65.2678C70.2523 67.1559 69.6684 68.9954 68.6488 70.6364C67.6293 72.2774 66.203 73.6735 64.486 74.7109C61.2125 76.4587 58.5625 75.0631 58.5625 71.6197C58.676 69.7355 59.2717 67.9027 60.3011 66.2707C61.3305 64.6387 62.7645 63.2537 64.486 62.2288C67.7454 60.4289 70.3529 61.8114 70.3529 65.2678Z" fill="#B2AAAB"/>
<path d="M67.2485 66.8843C67.1894 67.7714 66.9015 68.6329 66.4086 69.3973C65.9157 70.1616 65.2321 70.807 64.4143 71.2798C62.8838 72.0884 61.5801 71.4363 61.5801 69.8189C61.6437 68.9328 61.9336 68.0729 62.426 67.3092C62.9185 66.5455 63.5997 65.8994 64.4143 65.4234C66.0156 64.667 67.2485 65.3191 67.2485 66.8843Z" fill="#0C0C0C"/>
<path d="M61.709 65.9979C61.709 66.5327 62.1058 66.7414 62.6018 66.4805C62.8646 66.3235 63.0836 66.1119 63.2411 65.8627C63.3987 65.6135 63.4903 65.3336 63.5087 65.0458C63.5087 64.5241 63.0978 64.3154 62.6018 64.5762C62.3427 64.7326 62.127 64.9426 61.9719 65.1895C61.8169 65.4364 61.7269 65.7132 61.709 65.9979Z" fill="#22222C"/>
<path d="M65.1086 63.2588C64.7685 63.8197 64.7685 64.4196 65.1086 64.5631C65.4487 64.7066 66.0297 64.4457 66.384 63.8849C66.7383 63.324 66.7241 62.7371 66.384 62.5806C66.0439 62.4241 65.4629 62.711 65.1086 63.2588Z" fill="#22222C"/>
<path d="M68.1408 63.5327C67.881 63.6883 67.6647 63.8981 67.5095 64.1452C67.3544 64.3922 67.2648 64.6695 67.248 64.9544C67.248 65.4761 67.6448 65.6848 68.1408 65.4239C68.4025 65.269 68.621 65.0596 68.7785 64.8127C68.9361 64.5657 69.0283 64.2881 69.0478 64.0023C69.0478 63.4805 68.6368 63.2719 68.1408 63.5327Z" fill="#22222C"/>
<path d="M69.0339 66.6505C68.6796 66.4679 68.1127 66.7679 67.7585 67.3288C67.4042 67.8896 67.4184 68.4896 67.7585 68.6331C68.0986 68.7765 68.6796 68.5157 69.0339 67.9548C69.3882 67.394 69.3882 66.8853 69.0339 66.6505Z" fill="#22222C"/>
<path d="M67.2485 70.7976C67.2485 70.2759 66.8517 70.0542 66.3557 70.3281C66.0958 70.4836 65.8795 70.6935 65.7244 70.9405C65.5692 71.1876 65.4797 71.4648 65.4629 71.7497C65.4629 72.2715 65.8597 72.4801 66.3557 72.2193C66.6155 72.0637 66.8318 71.8538 66.987 71.6068C67.1421 71.3598 67.2317 71.0825 67.2485 70.7976Z" fill="#22222C"/>
<path d="M63.8483 73.5498C64.2026 72.989 64.2026 72.389 63.8483 72.2455C63.494 72.102 62.9272 72.3629 62.5729 72.9237C62.2186 73.4846 62.2328 74.0846 62.5729 74.228C62.913 74.3715 63.494 74.1107 63.8483 73.5498Z" fill="#22222C"/>
<path d="M60.8147 73.2753C61.0745 73.1197 61.2908 72.9098 61.446 72.6628C61.6011 72.4157 61.6907 72.1385 61.7074 71.8536C61.7074 71.3319 61.3106 71.1232 60.8147 71.384C60.5548 71.5396 60.3385 71.7495 60.1834 71.9965C60.0282 72.2436 59.9386 72.5208 59.9219 72.8057C59.9219 73.3274 60.3187 73.5361 60.8147 73.2753Z" fill="#22222C"/>
<path d="M59.9225 70.1584C60.2768 70.341 60.8437 70.041 61.1979 69.4802C61.5522 68.9193 61.5522 68.3193 61.1979 68.1759C60.8437 68.0324 60.2768 68.2933 59.9225 68.8541C59.5683 69.415 59.5824 69.9758 59.9225 70.1584Z" fill="#22222C"/>
<path d="M162.152 12.365L163.853 11.465V5.76525L166.829 -1.06928L170.74 -4.12134L186.413 -12.4558L190.126 -3.84743L191.841 -4.76044L187.32 -16.7078L170.74 -7.90381L166.29 -4.33002L162.152 4.81311V12.365Z" fill="#2F2F2D"/>
<path d="M162.649 69.8853L154.146 56.2814L169.565 48.4556C170.26 48.1046 171.051 47.945 171.842 47.9958C172.634 48.0467 173.393 48.3059 174.029 48.7426C175.786 49.7891 177.25 51.2029 178.302 52.8688C179.353 54.5347 179.962 56.4056 180.08 58.3292C180.152 59.0002 180.035 59.677 179.739 60.294C179.444 60.911 178.98 61.4473 178.393 61.8508L162.649 69.8853Z" fill="#181818"/>
<path d="M151.256 60.7153C151.29 62.6532 151.845 64.5532 152.871 66.2456C153.935 67.9379 155.465 69.3417 157.307 70.315C158.172 70.632 159.106 70.7581 160.034 70.6834C160.961 70.6087 161.857 70.3351 162.649 69.8845C163.241 69.4813 163.709 68.9436 164.007 68.324C164.305 67.7044 164.423 67.0241 164.35 66.3499C164.233 64.4245 163.624 62.5518 162.572 60.8838C161.521 59.2158 160.057 57.7996 158.299 56.7503C157.711 56.3617 157.027 56.115 156.309 56.033C155.591 55.951 154.862 56.0361 154.189 56.2807C153.362 56.7618 152.667 57.4124 152.158 58.1817C151.649 58.9509 151.34 59.8181 151.256 60.7153Z" fill="#1D1D1D"/>
<path d="M151.582 61.4852C151.688 63.0553 152.192 64.5809 153.053 65.9397C153.914 67.2986 155.109 68.4531 156.542 69.311C159.277 70.7588 161.502 69.5979 161.502 66.7024C161.396 65.1322 160.892 63.6067 160.031 62.2478C159.169 60.889 157.975 59.7344 156.542 58.8766C153.807 57.4288 151.582 58.5896 151.582 61.4852Z" fill="#1D1D1D"/>
<path d="M126.867 31.5254C126.749 33.4491 126.141 35.3203 125.093 36.9879C124.044 38.6555 122.584 40.0727 120.83 41.125C117.486 42.8989 114.779 41.4772 114.779 37.9425C114.897 36.0189 115.506 34.148 116.557 32.4822C117.609 30.8163 119.073 29.4025 120.83 28.3559C124.203 26.5821 126.867 28.0038 126.867 31.5254Z" fill="#0C0C0C"/>
<path d="M139.889 30.3257L158.906 20.2174V11.4395L139.889 21.5478V30.3257Z" fill="#F3EDF2"/>
<path d="M44.6476 87.6234L43.8965 87.0886C48.0203 82.2236 45.3136 68.0067 45.3136 67.8632L46.2489 67.7067C46.3906 68.3067 49.0123 82.4584 44.6476 87.6234Z" fill="#2F2F2D"/>
<path d="M161.317 25.6167L160.58 25.0819C164.704 20.2038 163.783 5.02177 163.783 4.8783H164.718C164.761 5.46523 165.668 20.4777 161.317 25.6167Z" fill="#2F2F2D"/>
<path d="M142.71 9.0261L130.324 15.6128V11.5564L142.71 4.96973V9.0261Z" fill="#F3EDF2"/>
<path d="M38.4961 66.6891L87.1173 92.5272L97.0229 25.121L48.4017 -0.730164L38.4961 66.6891Z" fill="#285631"/>
<path d="M94.5427 33.4948L75.6667 46.7074L53.9707 94.3795L56.1814 121.6L73.7536 112.261L86.4226 92.1622L94.5427 33.4948Z" fill="#D8D5DC"/>
<path d="M69.4585 60.324L57.498 94.4053L59.3261 116.396L71.3007 110.031L81.7023 94.927L91.027 32.1902L83.2612 36.3249L69.4585 60.324Z" fill="#B4AEBC"/>
<path d="M69.3033 108.779L79.7049 93.6749L88.6611 33.4554L91.0276 32.1902L81.703 94.927L71.3014 110.031L59.3268 116.396L59.1426 114.178L69.3033 108.779Z" fill="#798580"/>
<path d="M30.6298 14.4913L25.0038 25.4996L18.1875 76.6151L19.8739 77.5281L52.5525 4.64386L50.8378 3.7439L30.6298 14.4913Z" fill="#62A868"/>
<path d="M25.0038 25.5004L26.7044 26.4003L19.8739 77.5289L18.1875 76.6158L25.0038 25.5004Z" fill="#437E48"/>
<path d="M32.3314 15.3913L26.7055 26.3996L19.875 77.5281L43.7817 64.8242L52.5536 4.64386L32.3314 15.3913Z" fill="#36703A"/>
<path d="M49.3239 9.45648L30.448 22.6821L8.75195 70.3412L10.9485 97.5749L28.5349 88.2231L44.6049 65.2544L49.3239 9.45648Z" fill="#ABA4A9"/>
<path d="M30.4756 40.1342L75.6957 64.1594L75.6674 46.7079L30.4473 22.6827L30.4756 40.1342Z" fill="#D6CEDC"/>
<path d="M75.6676 46.7073L73.1877 45.403L51.5059 93.0751L53.9716 94.3794L75.6676 46.7073Z" fill="#E5E0E9"/>
<path d="M32.9137 23.987L30.448 22.6827L8.75195 70.3418L11.2319 71.6591L32.9137 23.987Z" fill="#E5E0E9"/>
<path d="M8.75195 70.3411L53.972 94.3793L56.1827 121.6L10.9485 97.5748L8.75195 70.3411Z" fill="#C9C4CE"/>
<path d="M66.8238 59.6718L67.1356 62.0456L51.5048 93.0749L52.8652 119.839L48.5005 119.604L47.2109 101.461L62.7425 62.3064L66.8238 59.6718Z" fill="#0F3015"/>
<path d="M9.10616 69.6624L8.2984 69.4929C8.15376 69.45 8.02012 69.3805 7.90561 69.2885C7.79111 69.1966 7.69813 69.0842 7.63236 68.9581C7.5205 68.7123 7.46289 68.4485 7.46289 68.182C7.46289 67.9156 7.5205 67.6518 7.63236 67.406L11.0618 59.3193C11.1919 58.8656 11.4717 58.4602 11.8625 58.1589C12.2533 57.8576 12.736 57.6752 13.2441 57.6368H14.2503L14.1794 58.5107L13.1733 58.4324C12.8757 58.4324 12.2805 58.8367 11.9971 59.528L8.56765 67.6147C8.45291 67.8874 8.45291 68.1897 8.56765 68.4625C8.56765 68.4625 8.56765 68.5407 8.65268 68.5407L9.46043 68.7624L9.10616 69.6624Z" fill="#D8D5DC"/>
<path d="M157.49 -43.3022V-18.8727C157.576 -12.0811 158.359 -5.31212 159.828 1.34394L194.307 19.6824L205.049 25.3822C206.642 19.5803 207.423 13.6148 207.373 7.63066V-16.7858L205.049 -33.6243C204.623 -33.9374 191.033 -44.0587 188.638 -45.363L176.253 -51.8845C173.83 -53.1888 159.843 -57.6365 159.843 -57.6365L158.426 -48.6759L157.49 -43.3022Z" fill="#D8D5DC"/>
<path d="M146.777 -37.5892V-13.1597C146.862 -6.36436 147.64 0.40863 149.101 7.06998L183.594 25.3302L194.321 31.03C195.913 25.2718 196.699 19.3502 196.66 13.4089V-11.0728L194.321 -27.9113C193.911 -28.2244 180.306 -38.3457 177.911 -39.65L165.54 -46.2367C163.117 -47.541 149.116 -51.9756 149.116 -51.9756L147.698 -43.0282L146.777 -37.5892Z" fill="#E1E0E6"/>
<path d="M149.088 -49.1586L164.081 -44.137L178.876 -36.2721L194.308 -25.1334L107.326 21.091L62.1055 -2.9342L149.088 -49.1586Z" fill="#FCFBFA"/>
<path d="M62.1055 -2.93422L149.088 -49.1586L164.081 -44.137L73.0172 1.89169L62.1055 -2.93422Z" fill="#F8F4FC"/>
<path d="M86.8613 12.6261L178.875 -36.2721L194.307 -25.1334L107.324 21.091L86.8613 12.6261Z" fill="#F8F4FC"/>
<path d="M75.0859 3.00034L164.081 -44.137L178.875 -36.2721L88.01 9.67836L75.0859 3.00034Z" fill="#FCFBFA"/>
<path d="M26.3359 42.8995L62.7416 62.3075L66.8229 59.6728L30.4739 40.1344L26.3359 42.8995Z" fill="#62A868"/>
<path d="M75.694 125.095L57.2148 134.904V136.143L75.694 126.334V125.095Z" fill="#B4AEBC"/>
<path d="M63.6767 117.609L61.1401 118.965L59.3262 127.9L60.97 127.026L63.6767 117.609Z" fill="#B4AEBC"/>
<path d="M70.9052 113.775L68.3686 115.118L66.5547 124.053L68.1985 123.179L70.9052 113.775Z" fill="#B4AEBC"/>
<path d="M107.326 21.0909L98.2988 83.7364L194.308 32.7122V-25.1335L107.326 21.0909Z" fill="#C9C4CE"/>
<path d="M104.078 70.4329L188.864 25.3693V-18.3899L110.795 23.0868L104.078 70.4329Z" fill="#D0CCD5"/>
<path d="M106.516 62.1503L111.617 24.9778L184.131 -13.5512V20.9214L106.516 62.1503Z" fill="#C9C4CE"/>
<path d="M187.93 33.0639L175.545 39.6376V35.5812L187.93 28.9945V33.0639Z" fill="#798580"/>
<path d="M87.1172 92.5275L99.8854 85.7451L109.805 18.3259L97.0228 25.1213L87.1172 92.5275Z" fill="#437E48"/>
<path d="M53.5304 93.4661L52.7226 93.2443C52.5765 93.2082 52.441 93.1427 52.3258 93.0525C52.2106 92.9623 52.1186 92.8496 52.0566 92.7226C51.9382 92.4784 51.877 92.214 51.877 91.9465C51.877 91.6791 51.9382 91.4147 52.0566 91.1705L55.4718 83.0838C55.6112 82.6431 55.8909 82.2509 56.2749 81.958C56.6588 81.665 57.1294 81.4847 57.6258 81.4404L58.6178 81.5187V82.3795H57.6116C57.3141 82.3795 56.733 82.7969 56.4354 83.4751L53.0202 91.5618C52.8719 91.8231 52.8414 92.1277 52.9352 92.4096C52.9352 92.4878 52.9352 92.4878 53.0344 92.5009L53.8421 92.7096L53.5304 93.4661Z" fill="#F3EDF2"/>
<path d="M61.1828 -7.51221L109.804 18.326L97.0216 25.1214L48.4004 -0.729851L61.1828 -7.51221Z" fill="#62A868"/>
<path d="M49.3232 9.45648L94.5433 33.4947L75.6674 46.7073L30.4473 22.6821L49.3232 9.45648Z" fill="#C9C4CE"/>
<path d="M50.0459 8.961L95.266 32.9862L76.39 46.1987L31.1699 22.1735L50.0459 8.961Z" fill="#F8F4FC"/>
<path d="M26.3362 42.8987L62.7419 62.3067L47.2103 101.462L48.4999 119.605L52.7512 126.765L16.4022 107.227L12.1509 100.066L10.8613 81.9234L26.3362 42.8987Z" fill="#437E48"/>
<path d="M48.5013 119.605L12.1523 100.066L16.4037 107.227L52.7527 126.765L48.5013 119.605Z" fill="#28432A"/>
<path d="M31.1978 28.7599L30.5176 29.1251V18.5733L31.1978 18.2081V28.7599Z" fill="#F3EDF2"/>
<path d="M32.7582 33.8073C32.8935 33.8073 33.0233 33.7578 33.1189 33.6697C33.2146 33.5817 33.2684 33.4622 33.2684 33.3377V25.5119C33.2684 25.3874 33.2146 25.2679 33.1189 25.1799C33.0233 25.0918 32.8935 25.0424 32.7582 25.0424C32.6229 25.0424 32.4931 25.0918 32.3975 25.1799C32.3018 25.2679 32.248 25.3874 32.248 25.5119V33.3377C32.248 33.4622 32.3018 33.5817 32.3975 33.6697C32.4931 33.7578 32.6229 33.8073 32.7582 33.8073Z" fill="#D8D5DC"/>
<path d="M30.5176 29.125L34.3013 31.1336V20.5948L30.5176 18.5732V29.125Z" fill="#FCFBFA"/>
<path d="M34.9971 30.7688L34.3027 31.134V20.5953L34.9971 20.217V30.7688Z" fill="#B0A9B8"/>
<path d="M31.1978 18.2081L30.5176 18.5733L34.3013 20.595L34.9957 20.2168L31.1978 18.2081Z" fill="#F3EDF2"/>
<path d="M30.2207 29.2823L33.14 30.8344V21.2087L30.2207 19.6566V29.2823Z" fill="#BA1914"/>
<path d="M30.8164 23.7387L32.5311 24.6518V21.8866L30.8164 20.9736V23.7387Z" fill="#D8D5DC"/>
<path d="M33.8614 30.4554L33.1387 30.8337V21.2079L33.8614 20.8167V30.4554Z" fill="#6F0A14"/>
<path d="M30.2207 29.2819L33.14 30.834V28.395L30.2207 26.8298V29.2819Z" fill="#FF8D22"/>
<path d="M33.8614 30.4557L33.1387 30.8339V28.3949L33.8614 28.0036V30.4557Z" fill="#B84F22"/>
<path d="M33.8627 20.8173L33.14 21.2085L30.2207 19.6564L30.9434 19.2651L33.8627 20.8173Z" fill="#DD363B"/>
<path d="M65.0518 46.7463L64.3574 47.1115V36.5597L65.0518 36.1945V46.7463Z" fill="#F3EDF2"/>
<path d="M67.1512 42.4421H66.1309V51.2201H67.1512V42.4421Z" fill="#F3EDF2"/>
<path d="M66.641 52.7338C66.7763 52.7338 66.9061 52.6843 67.0018 52.5962C67.0974 52.5082 67.1512 52.3887 67.1512 52.2642V44.4384C67.1512 44.3139 67.0974 44.1945 67.0018 44.1064C66.9061 44.0183 66.7763 43.9689 66.641 43.9689C66.5057 43.9689 66.376 44.0183 66.2803 44.1064C66.1846 44.1945 66.1309 44.3139 66.1309 44.4384V52.2642C66.1309 52.3887 66.1846 52.5082 66.2803 52.5962C66.376 52.6843 66.5057 52.7338 66.641 52.7338Z" fill="#D8D5DC"/>
<path d="M64.3574 47.1123L68.1553 49.1339V38.5822L64.3574 36.5605V47.1123Z" fill="#FCFBFA"/>
<path d="M68.8506 48.7551L68.1562 49.1334V38.5816L68.8506 38.2164V48.7551Z" fill="#B0A9B8"/>
<path d="M65.0518 36.1945L64.3574 36.5597L68.1553 38.5814L68.8497 38.2162L65.0518 36.1945Z" fill="#F3EDF2"/>
<path d="M64.0605 47.2681L66.994 48.8332V39.1944L64.0605 37.6423V47.2681Z" fill="#BA1914"/>
<path d="M64.6719 41.7251L66.3866 42.6381V39.873L64.6719 38.96V41.7251Z" fill="#D8D5DC"/>
<path d="M67.7169 48.4418L66.9941 48.8331V39.1943L67.7169 38.803V48.4418Z" fill="#6F0A14"/>
<path d="M64.0605 47.2683L66.994 48.8335V46.3814L64.0605 44.8162V47.2683Z" fill="#FF8D22"/>
<path d="M67.7169 48.4417L66.9941 48.833V46.3809L67.7169 45.9896V48.4417Z" fill="#B84F22"/>
<path d="M67.7167 38.8033L66.994 39.1946L64.0605 37.6425L64.7974 37.2512L67.7167 38.8033Z" fill="#DD363B"/>
<path d="M74.1512 37.6161L68.5253 48.6244L61.709 99.7399L63.4095 100.653L96.074 27.7687L94.3734 26.8687L74.1512 37.6161Z" fill="#62A868"/>
<path d="M68.5253 48.6246L70.2258 49.5245L63.4095 100.653L61.709 99.7401L68.5253 48.6246Z" fill="#437E48"/>
<path d="M75.8505 38.5166L70.2245 49.5249L63.4082 100.653L87.3149 87.9496L96.0727 27.7692L75.8505 38.5166Z" fill="#437E48"/>
<path d="M55.3876 130.261H54.3673V127.235C54.3633 127.083 54.3178 126.935 54.2348 126.803C54.1519 126.672 54.0342 126.562 53.8928 126.484C53.7514 126.406 53.5908 126.362 53.426 126.357C53.2611 126.351 53.0975 126.384 52.9501 126.452C52.6457 126.625 52.2948 126.717 51.9369 126.717C51.579 126.717 51.2281 126.625 50.9237 126.452C50.6206 126.294 50.3689 126.065 50.1945 125.787C50.0201 125.51 49.9294 125.194 49.9317 124.874V102.192C49.9337 100.994 50.2777 99.8178 50.9294 98.7808C51.581 97.7438 52.5173 96.8827 53.6445 96.2837L68.0141 88.8753C68.1106 88.8306 68.1912 88.7614 68.2465 88.6759C68.3017 88.5904 68.3293 88.4921 68.3258 88.3927C68.3286 88.2916 68.3009 88.1919 68.2459 88.1044C68.1909 88.0169 68.1106 87.9452 68.0141 87.8971L67.0504 87.4014L67.5464 86.5797L68.51 87.0884C68.7656 87.2147 68.9787 87.4031 69.1261 87.633C69.2735 87.863 69.3496 88.1257 69.3461 88.3927C69.3465 88.6591 69.2691 88.9207 69.122 89.1501C68.9749 89.3796 68.7636 89.5685 68.51 89.697L54.1405 97.0924C53.1703 97.611 52.3652 98.355 51.8056 99.25C51.246 100.145 50.9517 101.16 50.952 102.192V124.9C50.9544 125.052 50.9993 125.201 51.0823 125.332C51.1652 125.464 51.2836 125.574 51.4259 125.651C51.5682 125.728 51.7297 125.77 51.8948 125.774C52.06 125.777 52.2233 125.741 52.3691 125.67C52.6789 125.503 53.0309 125.416 53.3894 125.416C53.7479 125.416 54.1 125.503 54.4098 125.67C54.7129 125.831 54.9644 126.063 55.1386 126.342C55.3129 126.622 55.4036 126.939 55.4017 127.261L55.3876 130.261Z" fill="#6F9C72"/>
<path d="M10.8613 81.9238L47.2103 101.462L48.4999 119.605L12.1509 100.067L10.8613 81.9238Z" fill="#285631"/>
<path d="M184.133 20.9217L188.866 25.3693V-18.3899L184.133 -13.5509V20.9217Z" fill="#BCB6BA"/>
<path d="M184.134 -13.5509L111.621 24.9781L110.799 23.0868L188.868 -18.3899L184.134 -13.5509Z" fill="#ABA4A9"/>
<path d="M111.617 24.978L106.516 62.1506L104.078 70.4329L110.795 23.0868L111.617 24.978Z" fill="#968D93"/>
<path d="M46.3746 109.887L44.9434 110.644V125.683L46.3746 124.926V109.887Z" fill="#798580"/>
<path d="M14.8027 109.666L44.9447 125.683V110.644L14.8027 94.6272V109.666Z" fill="#D8D5DC"/>
<path d="M14.8027 94.6273L44.9447 110.644L46.376 109.888L16.234 93.8708L14.8027 94.6273Z" fill="#F3EDF2"/>
<path d="M158.214 31.0297C158.284 31.1712 158.319 31.3245 158.319 31.4797C158.319 31.6348 158.284 31.7882 158.214 31.9297C158.214 32.034 158.129 32.0992 158.087 32.1123L148.861 37.0164V30.0776L154.629 27.0255L158.214 31.0297Z" fill="#62A868"/>
<path d="M139.068 34.5641L132.706 37.9292C132.541 38.0473 132.344 38.1219 132.137 38.1449C131.93 38.1679 131.72 38.1384 131.529 38.0596L135.143 30.1165L140.684 30.9121L139.068 34.5641Z" fill="#62A868"/>
<path d="M146.566 23.0601L138.545 29.2164L136.773 21.6776L138.899 21.9776L142.201 14.7126C142.773 13.436 143.764 12.3554 145.035 11.6214L151.044 8.4259L144.497 22.7732L146.566 23.0601Z" fill="#62A868"/>
<path d="M147.443 17.5301L150.504 10.7086C150.706 10.2339 151.062 9.82834 151.525 9.54778C151.61 9.54778 151.681 9.46952 151.723 9.54778L156.357 14.765L150.816 21.443L147.443 17.5301Z" fill="#62A868"/>
<path d="M152.307 27.9644L154.078 18.6256L162.099 16.2388L159.987 18.8474L162.226 21.2342C162.559 21.7648 162.744 22.3631 162.763 22.9754C162.783 23.5877 162.638 24.195 162.34 24.7428L159.661 31.2643L154.432 25.3689L152.307 27.9644Z" fill="#62A868"/>
<path d="M142.03 33.7297V31.1211L147.855 34.1601L142.03 43.3815V40.7729L136.263 43.838C135.129 44.438 134.08 44.3467 133.542 43.5902L130.807 39.7816L142.03 33.7297Z" fill="#62A868"/>
<path d="M14.3906 80.5663L22.9216 85.1444L45.2554 97.157L55.4869 72.6232L59.2281 63.6757L46.3749 56.8281L28.2925 47.1893L14.3906 80.5663Z" fill="#285631"/>
<path d="M22.9219 85.1448L45.2556 97.1574L55.4872 72.6236L46.3751 67.7455L22.9219 85.1448Z" fill="#194222"/>
<path d="M106.219 75.8848L169.55 42.2339V44.099L106.219 77.75V75.8848Z" fill="#C4DDBD"/>
<path d="M109.776 73.9932L107.707 75.0888L106.219 77.7496L108.288 76.654L109.776 73.9932Z" fill="#FF6D5E"/>
<path d="M115.218 71.0975L113.134 72.2062L111.646 74.867L113.715 73.7713L115.218 71.0975Z" fill="#FF6D5E"/>
<path d="M120.647 68.2153L118.578 69.3109L117.09 71.9848L119.159 70.8761L120.647 68.2153Z" fill="#FF6D5E"/>
<path d="M126.073 65.3333L124.004 66.4289L122.516 69.0897L124.585 67.9941L126.073 65.3333Z" fill="#FF6D5E"/>
<path d="M131.514 62.4371L129.445 63.5458L127.943 66.2066L130.027 65.111L131.514 62.4371Z" fill="#FF6D5E"/>
<path d="M136.942 59.5544L134.873 60.6501L133.385 63.3239L135.454 62.2152L136.942 59.5544Z" fill="#FF6D5E"/>
<path d="M142.386 56.6719L140.302 57.7676L138.814 60.4283L140.898 59.3327L142.386 56.6719Z" fill="#FF6D5E"/>
<path d="M147.813 53.7767L145.744 54.8853L144.256 57.5461L146.325 56.4505L147.813 53.7767Z" fill="#FF6D5E"/>
<path d="M153.239 50.8942L151.17 51.9898L149.682 54.6636L151.751 53.5549L153.239 50.8942Z" fill="#FF6D5E"/>
<path d="M158.682 47.999L156.613 49.1076L155.111 51.7684L157.194 50.6728L158.682 47.999Z" fill="#FF6D5E"/>
<path d="M164.108 45.1159L162.039 46.2115L160.551 48.8853L162.62 47.7897L164.108 45.1159Z" fill="#FF6D5E"/>
<path d="M169.55 42.2339L167.466 43.3295L165.979 46.0033L168.048 44.8947L169.55 42.2339Z" fill="#FF6D5E"/>
<path d="M89.8948 22.9822L58.6191 6.36548V8.24367L89.8948 24.8604V22.9822Z" fill="#F3EDF2"/>
<path d="M86.3359 21.0909L88.4049 22.1866L89.8929 24.8604L87.8239 23.7648L86.3359 21.0909Z" fill="#FF6D5E"/>
<path d="M81.7168 18.6387L83.7858 19.7343L85.2738 22.4081L83.2048 21.3125L81.7168 18.6387Z" fill="#FF6D5E"/>
<path d="M77.0996 16.1864L79.1686 17.282L80.6566 19.9558L78.5876 18.8472L77.0996 16.1864Z" fill="#FF6D5E"/>
<path d="M72.4785 13.7341L74.5475 14.8297L76.0355 17.4904L73.9665 16.3948L72.4785 13.7341Z" fill="#FF6D5E"/>
<path d="M67.8594 11.2697L69.9284 12.3783L71.4163 15.0391L69.3473 13.9435L67.8594 11.2697Z" fill="#FF6D5E"/>
<path d="M63.2383 8.81787L65.3073 9.91348L66.7952 12.5873L64.7262 11.4786L63.2383 8.81787Z" fill="#FF6D5E"/>
<path d="M58.6191 6.36548L60.6881 7.46109L62.1761 10.1349L60.1071 9.02625L58.6191 6.36548Z" fill="#FF6D5E"/>
</g>
<defs>
<clipPath id="clip0_1052_27175">
<rect width="286.98" height="216.788" fill="white" transform="translate(0.917969 -71.371)"/>
</clipPath>
</defs>
</svg>
