<svg width="8" height="16" viewBox="0 0 8 16" fill="none" xmlns="http://www.w3.org/2000/svg">
<g clip-path="url(#clip0_1779_4533)">
<path d="M3.82025 15.5791C3.6788 15.5606 3.38412 15.5214 3.38412 15.3204V8.21381C3.4194 7.73169 3.55892 7.26242 3.79344 6.83715C4.02795 6.41188 4.3521 6.04033 4.74437 5.74716L4.85045 3.35673H4.82688V2.14188C4.82347 2.12355 4.82347 2.10478 4.82688 2.08645C4.82331 2.06814 4.82331 2.04933 4.82688 2.03102V2.03795C4.82958 2.01419 4.83763 1.99131 4.85045 1.97097V1.86473C4.84385 1.80743 4.85014 1.74941 4.86888 1.69475C4.88761 1.64008 4.91834 1.5901 4.95889 1.54831C5.03706 1.47174 5.13071 1.41205 5.23384 1.37306C5.33697 1.33408 5.44728 1.31668 5.55768 1.32197C5.66804 1.3176 5.77811 1.33589 5.88082 1.37567C5.98354 1.41544 6.07663 1.47582 6.15411 1.55293C6.19415 1.59507 6.22453 1.64509 6.24323 1.69966C6.26193 1.75423 6.26852 1.81208 6.26256 1.86935L6.24841 1.97097C6.25869 1.9919 6.26432 2.01473 6.26491 2.03795H6.27906V3.36828H6.24605L6.34742 5.71021C7.17488 6.19753 7.78782 7.42393 7.78782 8.22536V15.3204C7.78782 15.5006 7.55207 15.5514 7.29747 15.5791H3.82025Z" fill="#3F3B39"/>
<path d="M3.82021 15.4636H7.28564C7.52138 15.4382 7.67226 15.392 7.67226 15.3204V8.21373C7.67226 7.44463 7.06876 6.21823 6.23422 5.76786L6.07863 2.15796H5.01779L4.85041 5.81174C4.05831 6.29676 3.49252 7.46773 3.49252 8.21373V15.3204C3.50195 15.392 3.61982 15.4335 3.82021 15.4636Z" fill="#423B08"/>
<path d="M5.08613 15.0964C4.65236 15.0964 3.85791 15.0964 3.6976 15.011V8.08216C3.6976 7.38928 4.23745 6.28067 4.95883 5.83723L5.02012 5.80027L5.15921 2.29199H5.93952L6.08804 5.75639L6.15405 5.79103C6.90607 6.19983 7.48836 7.35694 7.48836 8.07754V15.0063C7.29741 15.0964 6.35208 15.0964 5.58827 15.0964H5.08613Z" fill="#5B510C"/>
<path d="M7.67223 8.37549H3.50192V13.8562H7.67223V8.37549Z" fill="#CCBA2E"/>
<path d="M6.02916 2.75142C6.01265 2.88306 5.79341 2.98238 5.55767 2.98238C5.32193 2.98238 5.10268 2.88075 5.08618 2.75142L4.97302 1.85067C4.94474 1.61971 5.20877 1.43726 5.55767 1.43726C5.91128 1.43726 6.17296 1.62895 6.14467 1.85067L6.02916 2.75142Z" fill="#EFD978"/>
<path d="M6.16117 2.08643C6.16057 2.10891 6.15119 2.13031 6.13496 2.14621C6.11873 2.16211 6.09689 2.1713 6.07395 2.17189H5.02253C4.99958 2.1713 4.97774 2.16211 4.96151 2.14621C4.94528 2.13031 4.9359 2.10891 4.9353 2.08643C4.9359 2.06395 4.94528 2.04255 4.96151 2.02665C4.97774 2.01075 4.99958 2.00156 5.02253 2.00098H6.07395C6.09689 2.00156 6.11873 2.01075 6.13496 2.02665C6.15119 2.04255 6.16057 2.06395 6.16117 2.08643Z" fill="#423B08"/>
<path d="M6.16353 2.14185H4.94473V3.24121H6.16353V2.14185Z" fill="#394251"/>
<g style="mix-blend-mode:overlay" opacity="0.6">
<path d="M5.25355 2.1394C5.25355 2.1394 5.11447 5.00562 5.11447 5.83476C5.11447 6.06572 4.05362 6.54843 4.05362 8.20672V15.3942L4.72077 15.415V8.58087C4.72077 6.69162 5.50816 6.36366 5.50816 5.95948V2.1394H5.25355Z" fill="white"/>
<path d="M6.2838 6.04488H6.19186C6.67441 6.5925 6.92713 7.29896 6.8991 8.02189V15.3941H6.81894V15.4126L7.48845 15.3918V8.21359C7.48374 6.92484 6.42761 5.98021 6.2838 6.04488Z" fill="white"/>
</g>
<path d="M1.31426 15.579C1.16338 15.5605 0.842773 15.5166 0.842773 15.3041V7.74944C0.842773 6.94339 1.43449 5.68697 2.29024 5.12805L2.39868 2.58749H2.37511V1.29411C2.37266 1.27417 2.37266 1.25401 2.37511 1.23407C2.3728 1.21488 2.3728 1.19551 2.37511 1.17633C2.38188 1.15364 2.39309 1.13246 2.40811 1.11397L2.39397 0.998486C2.38629 0.935982 2.39264 0.872588 2.4126 0.812744C2.43255 0.752901 2.46562 0.698054 2.50948 0.652046C2.59309 0.573297 2.69229 0.512174 2.80096 0.47245C2.90962 0.432726 3.02545 0.415245 3.14127 0.421087C3.25748 0.415063 3.37371 0.432451 3.48278 0.472176C3.59186 0.511901 3.69146 0.573119 3.77543 0.652046C3.81825 0.696765 3.85057 0.75012 3.87012 0.808371C3.88966 0.866622 3.89597 0.928358 3.88858 0.989248L3.8768 1.11397C3.89145 1.13269 3.90262 1.1538 3.9098 1.17633H3.92159V2.58518H3.88858L3.99467 5.07493C4.87635 5.59459 5.527 6.8972 5.527 7.74944V15.3041C5.527 15.4935 5.27711 15.549 5.00601 15.579H1.31426Z" fill="#3F3B39"/>
<path d="M1.31429 15.4565H4.99189C5.24885 15.4288 5.40208 15.3803 5.40208 15.304V7.74935C5.40208 6.92944 4.76086 5.62683 3.87211 5.14874L3.70709 1.3125H2.57787L2.41285 5.19724C1.56889 5.70998 0.967743 6.95716 0.967743 7.74935V15.304C0.967743 15.3803 1.09269 15.4334 1.31429 15.4565Z" fill="#08421F"/>
<path d="M2.64154 15.0664C2.17005 15.0664 1.33551 15.0664 1.16342 14.9763V7.60638C1.16342 6.86962 1.73864 5.69173 2.5048 5.22057L2.56845 5.18131L2.72876 1.45361H3.55622L3.71653 5.14897L3.78489 5.18823C4.58406 5.62244 5.19935 6.85115 5.19935 7.61793V14.9717C4.99661 15.0664 3.99235 15.0664 3.17903 15.0664H2.64154Z" fill="#0C5B28"/>
<path d="M5.40208 7.92261H0.967743V13.7474H5.40208V7.92261Z" fill="#2ECC71"/>
<path d="M3.6458 1.94307C3.62694 2.08165 3.41005 2.18789 3.14131 2.18789C2.88199 2.18789 2.65567 2.08165 2.63917 1.94307L2.51894 0.98459C2.49301 0.749011 2.76647 0.543457 3.14131 0.543457C3.51614 0.543457 3.79432 0.749011 3.76603 0.98459L3.6458 1.94307Z" fill="#EFD978"/>
<path d="M3.79429 1.23412C3.79429 1.25822 3.78468 1.28138 3.76751 1.29864C3.75033 1.3159 3.72694 1.3259 3.70235 1.3265H2.58492C2.57265 1.32651 2.56049 1.3241 2.54918 1.31943C2.53787 1.31476 2.52763 1.30792 2.51906 1.29931C2.51049 1.2907 2.50377 1.28049 2.49929 1.2693C2.49481 1.2581 2.49267 1.24614 2.49298 1.23412C2.49298 1.21023 2.50267 1.18732 2.51991 1.17043C2.53715 1.15353 2.56054 1.14404 2.58492 1.14404H3.70235C3.72654 1.14463 3.74958 1.15431 3.7667 1.17107C3.78381 1.18784 3.79369 1.21041 3.79429 1.23412Z" fill="#08421F"/>
<path d="M3.79903 1.29419H2.50244V2.46285H3.79903V1.29419Z" fill="#394251"/>
<g style="mix-blend-mode:overlay" opacity="0.6">
<path d="M2.83008 1.28955C2.83008 1.28955 2.68392 4.33822 2.68392 5.21587C2.68392 5.46992 1.54999 5.98727 1.54999 7.7495V15.3827L2.25722 15.4035V8.13751C2.25722 6.13047 3.09411 5.78172 3.09411 5.35213V1.28955H2.83008Z" fill="white"/>
<path d="M3.92399 5.44209H3.82733C4.33803 6.0262 4.60491 6.77761 4.57464 7.54613V15.3826H4.48977V15.4011L5.197 15.3803V7.75862C5.19936 6.37979 4.07958 5.3728 3.92399 5.44209Z" fill="white"/>
</g>
</g>
<defs>
<clipPath id="clip0_1779_4533">
<rect width="6.94737" height="15.1579" fill="white" transform="translate(0.842773 0.421143)"/>
</clipPath>
</defs>
</svg>
