<svg width="8" height="16" viewBox="0 0 8 16" fill="none" xmlns="http://www.w3.org/2000/svg">
<g clip-path="url(#clip0_1779_4561)">
<path d="M4.50415 15.579C4.39862 15.5812 4.29587 15.5324 4.21365 15.4411C2.57254 15.3708 1.03141 14.5352 0.944635 13.9157L0.927658 13.7855L1.03141 13.7673C1.5841 13.6762 2.60838 13.1998 3.2686 11.0288C3.80243 9.27692 3.32708 7.38446 2.83286 6.08291C2.33864 4.78135 0.955953 3.68024 0.940863 3.66983L0.842773 3.59173L0.920113 3.47459C1.19363 3.0659 2.17264 2.50363 3.2686 2.24332C2.99204 2.04944 2.74489 1.78437 2.54047 1.46239C2.49708 1.3965 2.45111 1.33393 2.40277 1.27497L2.31411 1.17605L2.41032 1.07973C2.71472 0.733601 3.09009 0.527854 3.48364 0.491431C4.08915 0.491431 4.38531 1.20729 4.50415 1.61337C4.61869 1.13599 4.85454 0.731931 5.16814 0.475813L5.2002 0.441972C5.21872 0.428092 5.23949 0.420927 5.26057 0.421148C5.3662 0.421148 5.4492 0.600762 5.47372 0.655427C5.52152 0.753137 5.54104 0.872026 5.52843 0.988625C5.52536 1.01145 5.5187 1.03307 5.50892 1.05196C5.49915 1.07085 5.48649 1.08655 5.47184 1.09796L5.45109 1.11357H5.43788C5.14147 1.3315 4.90542 1.67828 4.76635 2.10015C5.99624 2.16002 7.00354 2.71709 7.68639 3.71668L7.77694 3.84944L7.65433 3.91972C7.64112 3.91972 6.38105 4.6564 5.81892 6.26252C5.32848 7.65258 5.519 11.0158 5.90381 11.6483C6.41689 12.4918 6.94506 13.3664 7.64301 13.6241L7.79014 13.6788L7.68639 13.8324C7.02806 14.7955 6.03019 15.3526 4.80219 15.4463C4.74642 15.5186 4.67602 15.5658 4.60035 15.5816C4.56834 15.5853 4.53616 15.5853 4.50415 15.5816V15.579Z" fill="#3F3B39"/>
<path d="M4.58527 15.4436C4.72674 15.4097 4.79465 15.29 4.78522 15.2093C4.77579 15.1286 4.65129 15.0765 4.50793 15.0974C4.40132 15.1165 4.29641 15.1505 4.1948 15.1989C4.2287 15.2965 4.28641 15.3744 4.3578 15.4192C4.4292 15.4639 4.50972 15.4726 4.58527 15.4436Z" fill="#6B2F07"/>
<path d="M3.13652 4.72926C3.19877 4.81517 5.73778 10.5941 2.61778 13.3429C3.91558 14.5456 5.50953 14.0952 6.44326 13.244C3.81749 10.5498 4.66256 6.59829 5.96225 4.82818C5.15113 4.26331 4.17589 4.21905 3.13652 4.72926Z" fill="#FFEEA4"/>
<path d="M4.07782 9.28727C4.04387 9.51113 3.93069 9.62307 3.85523 9.60745C3.77978 9.59183 3.73262 9.3992 3.75526 9.17273C3.77742 9.00224 3.81284 8.83555 3.86089 8.67554C3.94639 8.72077 4.0163 8.80902 4.05655 8.92252C4.0968 9.03602 4.1044 9.16635 4.07782 9.28727Z" fill="#6B2F07"/>
<path d="M4.86066 9.25353C4.88896 9.44876 4.98894 9.54507 5.0493 9.53206C5.10966 9.51904 5.15493 9.34984 5.13607 9.152C5.11895 9.0031 5.08984 8.85729 5.0493 8.71729C4.97426 8.75667 4.91295 8.8341 4.87789 8.93376C4.84284 9.03343 4.83667 9.1478 4.86066 9.25353Z" fill="#6B2F07"/>
<path d="M4.8324 2.68322C4.8324 2.7535 4.70036 2.81077 4.53625 2.81077C4.37213 2.81077 4.2382 2.76391 4.2382 2.68322C4.2382 2.60252 4.37025 2.55566 4.53436 2.55566C4.69847 2.55566 4.8324 2.61293 4.8324 2.68322Z" fill="#B20616"/>
<path d="M4.46834 2.62855C4.46834 1.63156 4.75317 0.93393 5.24739 0.559082C5.35114 0.788156 5.4266 0.983389 5.4266 0.983389C5.4266 0.983389 4.63622 1.47798 4.57963 2.65458C4.55511 2.68842 4.46834 2.72226 4.46834 2.62855Z" fill="#6B2F07"/>
<path d="M0.986095 3.56058C0.986095 3.56058 2.3933 4.68252 2.90638 6.02572C3.4836 7.53552 3.86087 9.39414 3.3459 11.0784C2.68757 13.2363 1.66518 13.7882 1.03137 13.8923C2.70077 15.3188 5.93584 15.2381 7.61656 13.7335C6.89598 13.4732 6.3546 12.5777 5.8302 11.7161C5.40766 11.0159 5.24921 7.57457 5.7472 6.19492C6.33197 4.53935 7.63354 3.80267 7.63354 3.80267C7.63354 3.80267 4.69274 1.80088 0.986095 3.56058Z" fill="#EFD978"/>
<path d="M4.58527 15.4436C4.72674 15.4097 4.79465 15.29 4.78522 15.2093C4.77579 15.1286 4.65129 15.0765 4.50793 15.0974C4.40132 15.1165 4.29641 15.1505 4.1948 15.1989C4.2287 15.2965 4.28641 15.3744 4.3578 15.4192C4.4292 15.4639 4.50972 15.4726 4.58527 15.4436Z" fill="#6B2F07"/>
<path d="M0.986095 3.5604C1.52181 2.76385 5.61516 0.868786 7.62033 3.80509C6.69226 3.74262 5.96224 4.83072 5.96224 4.83072C4.83044 4.31009 3.69864 4.68494 3.13274 4.7318C2.61777 3.76344 1.07853 3.54478 0.986095 3.5604Z" fill="#E74C3C"/>
<path d="M1.03143 13.8922C1.1465 14.8137 5.61145 16.6671 7.61662 13.7334C6.68854 13.7959 5.95853 12.7078 5.95853 12.7078C4.82673 13.2284 3.69493 12.8535 3.12903 12.8041C2.8533 13.1765 2.52439 13.4655 2.16324 13.6529C1.8021 13.8402 1.41665 13.9217 1.03143 13.8922Z" fill="#E74C3C"/>
<path d="M3.13652 4.72926C3.19877 4.81517 5.73778 10.5941 2.61778 13.3429C3.91558 14.5456 5.50953 14.0952 6.44326 13.244C3.81749 10.5498 4.66256 6.59829 5.96225 4.82818C5.15113 4.26331 4.17589 4.21905 3.13652 4.72926Z" fill="#FFEEA4"/>
<path d="M4.07782 9.28727C4.04387 9.51113 3.93069 9.62307 3.85523 9.60745C3.77978 9.59183 3.73262 9.3992 3.75526 9.17273C3.77742 9.00224 3.81284 8.83555 3.86089 8.67554C3.94639 8.72077 4.0163 8.80902 4.05655 8.92252C4.0968 9.03602 4.1044 9.16635 4.07782 9.28727Z" fill="#6B2F07"/>
<path d="M4.86066 9.25353C4.88896 9.44876 4.98894 9.54507 5.0493 9.53206C5.10966 9.51904 5.15493 9.34984 5.13607 9.152C5.11895 9.0031 5.08984 8.85729 5.0493 8.71729C4.97426 8.75667 4.91295 8.8341 4.87789 8.93376C4.84284 9.03343 4.83667 9.1478 4.86066 9.25353Z" fill="#6B2F07"/>
<path d="M4.8324 2.68322C4.8324 2.7535 4.70036 2.81077 4.53625 2.81077C4.37213 2.81077 4.2382 2.76391 4.2382 2.68322C4.2382 2.60252 4.37025 2.55566 4.53436 2.55566C4.69847 2.55566 4.8324 2.61293 4.8324 2.68322Z" fill="#B20616"/>
<path d="M4.52866 2.63628C4.5098 2.3161 4.47584 1.91522 4.47584 1.91522C4.47584 1.91522 4.07405 -0.427577 2.46312 1.18114C2.70835 1.45707 3.3497 2.80028 4.36078 2.0662C4.41566 2.26585 4.4561 2.4725 4.4815 2.68314L4.52866 2.63628Z" fill="#198444"/>
<path d="M4.46834 2.62855C4.46834 1.63156 4.75317 0.93393 5.24739 0.559082C5.35114 0.788156 5.4266 0.983389 5.4266 0.983389C5.4266 0.983389 4.63622 1.47798 4.57963 2.65458C4.55511 2.68842 4.46834 2.72226 4.46834 2.62855Z" fill="#934D2B"/>
<path d="M5.39261 0.725659C5.44354 0.845402 5.45863 0.962542 5.42657 0.98597C5.3945 1.0094 5.32659 0.936511 5.27566 0.819371C5.22473 0.702231 5.21152 0.582488 5.24359 0.55906C5.27566 0.535632 5.34168 0.608519 5.39261 0.725659Z" fill="#A55E37"/>
</g>
<defs>
<clipPath id="clip0_1779_4561">
<rect width="6.94737" height="15.1579" fill="white" transform="translate(0.842773 0.421143)"/>
</clipPath>
</defs>
</svg>
