<svg width="16" height="16" viewBox="0 0 16 16" fill="none" xmlns="http://www.w3.org/2000/svg">
<g clip-path="url(#clip0_1779_4606)">
<path d="M2.44419 11.8332V11.4956L0 9.89484L4.14709 7.31564L5.19942 6.26076L6.27507 7.31564L6.96193 7.76133C7.26945 7.56543 7.60165 7.41284 7.94946 7.30773C7.88263 7.17557 7.84211 7.03128 7.83023 6.88314L7.75247 1.05489L8.50413 0.596011V0.210977L8.867 0L15.8652 3.79759L15.987 11.4033C15.9943 11.5871 15.9522 11.7695 15.8652 11.9308C15.7681 12.1064 15.6291 12.2543 15.4609 12.3606L15.1395 12.5532C15.0489 12.6101 14.9452 12.642 14.8388 12.6455C14.8095 12.6483 14.78 12.6483 14.7507 12.6455C14.6648 12.7676 14.5555 12.8708 14.4293 12.9487L13.9446 13.2309L9.25061 16L2.44419 11.8332Z" fill="#3F3B39"/>
<path d="M14.2557 11.8676C13.993 11.5954 13.7496 11.3046 13.5273 10.9973L7.86395 8.6001L2.90817 10.3934V11.5089L9.20916 15.3751L14.1623 12.4557C14.3088 12.3625 14.4181 12.2196 14.4708 12.0522C14.3948 11.9961 14.3229 11.9344 14.2557 11.8676Z" fill="white"/>
<path d="M13.4262 11.4269L14.8181 12.0414L14.774 12.4133L15.7071 11.7962L15.6605 11.5509L14.927 11.2081C14.927 11.2081 14.45 10.7017 13.4262 11.4269Z" fill="#1A7299"/>
<path d="M14.8181 12.0416L9.7016 15.0639L3.04033 10.9867L8.49894 9.02466L14.8181 12.0416Z" fill="#1A7299"/>
<path d="M13.1152 11.9493L14.3593 12.6376L14.6548 12.4108L14.6107 12.1655L13.8772 11.8227C13.8772 11.8227 14.139 11.2214 13.1152 11.9493Z" fill="#1A7299"/>
<path d="M14.3697 12.8062L9.25319 15.8285L2.59192 11.7487V11.4902L14.3697 12.5478V12.8062Z" fill="#3498DB"/>
<path d="M9.25319 15.5674V15.8285L2.59192 11.7487V11.4902L9.25319 15.5674Z" fill="#288DC6"/>
<path d="M14.3697 12.5479L9.25319 15.5675L2.59192 11.4904L8.05053 9.52832L14.3697 12.5479Z" fill="#1A7299"/>
<path d="M14.0535 11.2742L7.86395 8.6001L2.90817 10.3934V11.5089L9.20916 15.3751C9.20916 15.3751 13.0685 13.1598 13.6465 12.7221C14.2245 12.2843 14.7118 11.7964 14.8388 12.0549L15.4609 11.7067C14.7429 10.8918 14.0535 11.2742 14.0535 11.2742Z" fill="#EAEAEA"/>
<path d="M9.21953 14.1672L2.90817 10.3933L2.91336 11.5115L9.20916 15.375L9.21953 14.1672Z" fill="#CCCCCC"/>
<path d="M14.0535 11.2742L9.18843 14.1488L2.90817 10.3934L6.44616 8.26514L14.0535 11.2742Z" fill="#F9F9F9"/>
<path d="M15.0954 11.0896C15.1153 10.9778 15.1483 10.8689 15.1939 10.7652L8.88256 6.9729C8.81182 7.14805 8.78596 7.33861 8.80739 7.52672C9.4813 8.22822 13.6491 10.549 15.0695 11.3665C15.0721 11.2737 15.0807 11.1812 15.0954 11.0896Z" fill="#EFEFEF"/>
<path d="M15.8497 11.406L15.7486 11.4508L15.6319 11.5405V11.6038C15.6085 11.6875 15.569 11.7655 15.5156 11.8335C15.4622 11.9014 15.396 11.9578 15.3209 11.9994L15.111 12.1233L15.0617 12.1523C14.8777 12.2605 14.8155 12.2235 14.8155 12.0363L14.6055 12.155C14.5546 12.331 14.4421 12.4821 14.2893 12.5796L14.0845 12.7009V12.9646L14.3619 12.7985C14.5044 12.7087 14.6222 12.5834 14.704 12.4345C14.7598 12.4706 14.8254 12.488 14.8914 12.4842C14.9574 12.4804 15.0206 12.4557 15.0721 12.4134L15.1084 12.3897L15.3935 12.2183C15.5413 12.1272 15.6629 11.998 15.746 11.8438C15.8175 11.7096 15.8532 11.5586 15.8497 11.406Z" fill="#3498DB"/>
<path d="M13.5428 11.5773L9.21947 14.167L2.93663 10.4116L9.22984 13.84L13.5428 11.5773Z" fill="white"/>
<path d="M14.9943 10.3089C14.6303 10.219 14.2605 10.1555 13.8876 10.119L8.9629 6.42694L7.90021 1.1525L8.83849 0.574951L15.3183 4.08509L15.4375 9.92653C15.4351 10.1029 15.3718 10.2728 15.2587 10.4065C15.1733 10.3668 15.0849 10.3342 14.9943 10.3089Z" fill="white"/>
<path d="M15.8522 11.4297L15.733 3.88723L8.87217 0.171387L8.65445 0.305885L15.6319 11.5642L15.8522 11.4297Z" fill="#3498DB"/>
<path d="M15.5153 4.02172L15.733 3.88723L8.87217 0.171387L8.65445 0.305885L15.5153 4.02172Z" fill="#62BFF4"/>
<path d="M15.632 11.5642L15.5153 4.02175L8.65449 0.305908L8.56895 7.72177L15.632 11.5642Z" fill="#1A7299"/>
<path d="M14.406 10.4434L8.9629 6.41375L7.90021 1.13932L8.83849 0.574951L15.3183 4.08509C15.3183 4.08509 15.3987 8.60264 15.3935 9.33843C15.3935 10.9023 15.4479 11.7119 15.4479 11.7119C15.1581 11.653 14.8968 11.4952 14.7073 11.2644C14.5178 11.0337 14.4115 10.744 14.406 10.4434Z" fill="#EAEAEA"/>
<path d="M14.3256 4.71802L7.90021 1.14986L8.83849 0.574951L15.3313 4.08509L14.3256 4.71802Z" fill="#CCCCCC"/>
<path d="M14.406 10.4435L14.2919 4.6996L7.90021 1.1499L7.9676 6.88585L14.406 10.4435Z" fill="#EFEFEF"/>
<path d="M14.4034 10.3405C14.4522 10.8145 14.6776 11.2514 15.0332 11.5616C14.8569 12.2921 8.75813 7.91167 8.65186 7.85101C8.4667 7.76311 8.30666 7.62855 8.18691 7.4601C8.06717 7.29165 7.99167 7.09488 7.96759 6.88843L10.8343 7.66641L14.4034 10.3405Z" fill="#EFEFEF"/>
<path d="M14.393 9.83958L14.3256 4.7181L7.93127 1.16577L14.056 4.89743L14.393 9.83958Z" fill="white"/>
<path d="M13.618 11.5326C14.0489 11.4078 14.5097 11.4472 14.914 11.6434C14.774 11.5115 8.29421 7.49765 8.19054 7.45809C7.81989 7.3315 6.44617 8.26508 6.44617 8.26508L9.52797 9.64171L13.618 11.5326Z" fill="#F9F9F9"/>
<path d="M8.11277 13.5077L11.9488 11.1844L6.95158 7.94849L2.97556 10.3378L8.11277 13.5077Z" fill="#CCCCCC"/>
<path d="M6.16364 7.43168L5.19166 6.47437L4.22746 7.43168H6.16364Z" fill="#CCCCCC"/>
<path d="M6.16365 7.43164H4.22748L0.27478 9.89744L6.86088 14.2119L11.8063 11.129L6.16365 7.43164Z" fill="#FCFCFC"/>
</g>
<defs>
<clipPath id="clip0_1779_4606">
<rect width="16" height="16" fill="white"/>
</clipPath>
</defs>
</svg>
